<?xml version="1.0" encoding="UTF-8"?>
<svg width="28px" height="28px" viewBox="0 0 28 28" version="1.1" xmlns="http://www.w3.org/2000/svg" xmlns:xlink="http://www.w3.org/1999/xlink">
    <title>Group 4@2x</title>
    <g id="chrome-v4" stroke="none" stroke-width="1" fill="none" fill-rule="evenodd">
        <g id="设置-添加了地址本-更改了用户协议图标" transform="translate(-47.000000, -339.000000)">
            <g id="编组-5" transform="translate(28.000000, 73.000000)">
                <g id="编组" transform="translate(19.000000, 266.000000)">
                    <g id="Group-4" fill="#3360FF">
                        <rect id="Rectangle" x="0" y="0" width="28" height="28" rx="10"></rect>
                    </g>
                    <g id="KHCFDC_通讯录" transform="translate(6.000000, 6.000000)" fill="#FFFFFF" fill-rule="nonzero">
                        <path d="M10.96,8.55529413 C11.62,8.03764707 11.95,7.31294118 11.95,6.5882353 C11.95,5.13882354 10.74,4 9.20000001,4 C7.66000001,4 6.45,5.13882354 6.45,6.5882353 C6.45,7.31294118 6.78,8.03764706 7.44,8.55529413 C5.90000001,9.1764706 4.8,10.6258824 4.8,12.2823529 C4.8,12.5929412 5.01999999,12.8 5.34999999,12.8 C5.68,12.8 5.89999999,12.5929412 5.90000001,12.2823529 C5.90000001,10.522353 7.33000001,9.1764706 9.20000001,9.1764706 C11.07,9.1764706 12.5,10.522353 12.5,12.2823529 C12.5,12.5929412 12.72,12.8 13.05,12.8 C13.38,12.8 13.6,12.5929412 13.6,12.2823529 C13.6,10.6258824 12.5,9.1764706 10.96,8.55529413 L10.96,8.55529413 Z M9.20000001,8.14117647 C8.32,8.14117647 7.55000001,7.41647059 7.55000001,6.5882353 C7.55000001,5.76000001 8.32000001,5.03529412 9.20000001,5.03529412 C10.08,5.03529412 10.85,5.76000001 10.85,6.5882353 C10.85,7.41647059 10.08,8.14117647 9.20000001,8.14117647 Z M13.3333333,0 C14.8266667,0 16,1.17333333 16,2.66666667 L16,2.66666667 L16,13.3333333 C16,14.8266667 14.8266667,16 13.3333333,16 L13.3333333,16 L3.73333333,16 C2.24,16 1.06666667,14.8266667 1.06666667,13.3333333 L1.06666667,13.3333333 L1.06666667,11.7333333 L0.533333328,11.7333333 C0.213333328,11.7333333 0,11.52 0,11.2 C0,10.88 0.213333328,10.6666667 0.533333328,10.6666667 L0.533333328,10.6666667 L1.06666667,10.6666667 L1.06666667,8.53333333 L0.533333328,8.53333333 C0.213333328,8.53333333 0,8.32 0,8 C0,7.68 0.213333328,7.46666667 0.533333328,7.46666667 L0.533333328,7.46666667 L1.06666667,7.46666667 L1.06666667,5.33333333 L0.533333328,5.33333333 C0.213333328,5.33333333 0,5.12 0,4.8 C0,4.48 0.213333328,4.26666667 0.533333328,4.26666667 L0.533333328,4.26666667 L1.06666667,4.26666667 L1.06666667,2.66666667 C1.06666667,1.17333333 2.24,0 3.73333333,0 L3.73333333,0 Z" id="形状"></path>
                    </g>
                </g>
            </g>
        </g>
    </g>
</svg>