<?xml version="1.0" encoding="UTF-8"?>
<svg width="28px" height="28px" viewBox="0 0 28 28" version="1.1" xmlns="http://www.w3.org/2000/svg" xmlns:xlink="http://www.w3.org/1999/xlink">
    <title>usd</title>
    <g id="chrome-v4" stroke="none" stroke-width="1" fill="none" fill-rule="evenodd">
        <g id="设置-添加了地址本-更改了用户协议图标" transform="translate(-48.000000, -277.000000)">
            <g id="编组-5" transform="translate(28.000000, 73.000000)">
                <g id="编组" transform="translate(20.000000, 204.000000)">
                    <g id="Group-4" fill="#FF5B33">
                        <rect id="Rectangle" x="0" y="0" width="28" height="28" rx="10"></rect>
                    </g>
                    <g id="美元" transform="translate(9.092824, 5.965625)" fill="#FFFFFF" fill-rule="nonzero">
                        <path d="M5.6040512,14.821875 L5.6103012,15.8125 C5.6103012,15.95 5.4978012,16.065625 5.3603012,16.065625 L4.4728012,16.065625 C4.3353012,16.065625 4.2228012,15.953125 4.2228012,15.815625 L4.2228012,14.834375 C1.4478012,14.628125 0.141551202,13.046875 0.000926201949,11.328125 C-0.0115737981,11.18125 0.104051202,11.05625 0.250926202,11.05625 L1.6946762,11.05625 C1.8165512,11.05625 1.9228012,11.14375 1.9415512,11.2625 C2.1009262,12.253125 2.8728012,12.99375 4.2571762,13.178125 L4.2571762,8.71875 L3.4853012,8.521875 C1.8509262,8.13125 0.294676202,7.1125 0.294676202,5 C0.294676202,2.721875 2.0259262,1.496875 4.2384262,1.28125 L4.2384262,0.25 C4.2384262,0.1125 4.3509262,0 4.4884262,0 L5.3665512,0 C5.5040512,0 5.6165512,0.1125 5.6165512,0.25 L5.6165512,1.271875 C7.7571762,1.4875 9.3634262,2.7375 9.5509262,4.684375 C9.5665512,4.83125 9.4509262,4.959375 9.3009262,4.959375 L7.8978012,4.959375 C7.7728012,4.959375 7.6665512,4.865625 7.6509262,4.74375 C7.5259262,3.83125 6.7946762,3.0875 5.6040512,2.925 L5.6040512,7.121875 L6.3978012,7.30625 C8.4228012,7.80625 9.8009262,8.775 9.8009262,10.94375 C9.8009262,13.296875 8.0509262,14.609375 5.6040512,14.821875 Z M2.2384262,4.85625 C2.2384262,5.65 2.7290512,6.265625 3.7853012,6.646875 C3.9321762,6.70625 4.0790512,6.753125 4.2540512,6.803125 L4.2540512,2.928125 C3.1009262,3.075 2.2384262,3.721875 2.2384262,4.85625 Z M5.8790512,9.08125 C5.7915512,9.0625 5.7040512,9.040625 5.6040512,9.0125 L5.6040512,13.190625 C6.9353012,13.071875 7.8540512,12.340625 7.8540512,11.115625 C7.8540512,10.15625 7.3571762,9.53125 5.8790512,9.08125 Z" id="形状"></path>
                    </g>
                </g>
            </g>
        </g>
    </g>
</svg>