<?xml version="1.0" encoding="UTF-8"?>
<svg width="13px" height="13px" viewBox="0 0 13 13" version="1.1" xmlns="http://www.w3.org/2000/svg" xmlns:xlink="http://www.w3.org/1999/xlink">
    <title>连接 (1)</title>
    <g id="chrome-v6-支持dapp" stroke="none" stroke-width="1" fill="none" fill-rule="evenodd">
        <g id="钱包交易首页（鼠标悬停在连接dapp&amp;账户设置按钮）" transform="translate(-297.000000, -378.000000)" fill="#FFFFFF" fill-rule="nonzero">
            <g id="编组-6" transform="translate(290.968780, 372.346680)">
                <g id="连接-(1)" transform="translate(6.093331, 6.093331)">
                    <path d="M6.96837325,8.39818358 C6.91964895,8.35014983 6.84137932,8.35014983 6.79265502,8.39818358 L4.97718568,10.2135897 C4.13630965,11.0535794 2.71770637,11.1435782 1.78939982,10.2135897 C0.85937894,9.28360121 0.949380959,7.86676156 1.78939982,7.0259148 L3.60486915,5.21136578 C3.65347066,5.16254201 3.65347066,5.0836203 3.60486915,5.03479653 L2.98342662,4.41251849 C2.93460115,4.36391868 2.8556767,4.36391868 2.80685123,4.41251849 L0.991381896,6.22792465 C0.356666991,6.86157378 0,7.72161308 0,8.61846657 C0,9.51532006 0.356666991,10.3753594 0.991381896,11.0090085 C1.6251649,11.6434908 2.48519222,12 3.38200701,12 C4.27882179,12 5.13884912,11.6434908 5.77263212,11.0090085 L7.58810144,9.19360233 C7.63670296,9.14477855 7.63670296,9.06585684 7.58810144,9.01703307 L6.96923042,8.39818358 L6.96837325,8.39818358 Z M11.0098926,0.991703586 C10.3763334,0.356800128 9.51622217,0 8.61926747,0 C7.72231276,0 6.86220157,0.356800128 6.22864235,0.991703586 L4.4114587,2.80710975 C4.36285719,2.85593352 4.36285719,2.93485522 4.4114587,2.98367899 L5.03204406,3.60424276 C5.08004514,3.65224217 5.15976121,3.65224217 5.20776229,3.60424276 L7.02408878,1.78797947 C7.86410764,0.94798984 9.28356809,0.858848077 10.2110175,1.78797947 C11.1410384,2.71796798 11.0518935,4.13566477 10.2110175,4.97651153 L8.39554815,6.79106056 C8.34694665,6.83988433 8.34694665,6.91880603 8.39554815,6.96762981 L9.01784784,7.5890507 C9.06584892,7.63790724 9.14642216,7.63790724 9.19442324,7.5890507 L11.0098926,5.77364454 C12.3300358,4.45264797 12.3300358,2.31184302 11.0098926,0.990846451 L11.0098926,0.991703586 Z M7.53324308,3.81852583 C7.48441761,3.76992601 7.40549315,3.76992601 7.35666768,3.81852583 L3.81744535,7.35591073 C3.76884385,7.4047345 3.76884385,7.4836562 3.81744535,7.53247998 L4.43631639,8.15132948 C4.48517463,8.19932889 4.56489071,8.19932889 4.61289179,8.15132948 L8.15039979,4.61308745 C8.1990013,4.56426368 8.1990013,4.48534197 8.15039979,4.4365182 L7.53324308,3.81852583 L7.53324308,3.81852583 Z" id="形状"></path>
                </g>
            </g>
        </g>
    </g>
</svg>