<?xml version="1.0" encoding="UTF-8"?>
<svg width="13px" height="13px" viewBox="0 0 13 13" version="1.1" xmlns="http://www.w3.org/2000/svg" xmlns:xlink="http://www.w3.org/1999/xlink">
    <title>连接 (1)</title>
    <g id="chrome-v6-支持dapp" stroke="none" stroke-width="1" fill="none" fill-rule="evenodd">
        <g id="钱包交易首页（鼠标悬停在连接dapp&amp;账户设置按钮）" transform="translate(-302.000000, -68.000000)" fill="#FFFFFF" fill-rule="nonzero">
            <g id="编组-7" transform="translate(296.038102, 62.005597)">
                <g id="连接-(1)" transform="translate(6.000000, 6.000000)">
                    <path d="M6.27153593,8.75836522 C6.22768406,8.71513484 6.15724138,8.71513484 6.11338951,8.75836522 L4.47946711,10.3922308 C3.72267869,11.1482214 2.44593573,11.2292204 1.61045984,10.3922308 C0.773441046,9.55524109 0.854442863,8.2800854 1.61045984,7.52332332 L3.24438223,5.8902292 C3.28812359,5.84628781 3.28812359,5.77525827 3.24438223,5.73131687 L2.68508396,5.17126664 C2.64114104,5.12752681 2.57010903,5.12752681 2.52616611,5.17126664 L0.892243706,6.80513219 C0.321000292,7.3754164 0,8.14945177 0,8.95661991 C0,9.76378805 0.321000292,10.5378234 0.892243706,11.1081076 C1.46264841,11.6791417 2.236673,12 3.04380631,12 C3.85093961,12 4.6249642,11.6791417 5.19536891,11.1081076 L6.8292913,9.47424209 C6.87303266,9.4303007 6.87303266,9.35927116 6.8292913,9.31532976 L6.27230737,8.75836522 L6.27153593,8.75836522 Z M11.1089033,0.892533227 C10.5387,0.321120115 9.76459995,0 8.95734072,0 C8.15008148,0 7.37598142,0.321120115 6.80577812,0.892533227 L5.17031283,2.52639877 C5.12657147,2.57034016 5.12657147,2.6413697 5.17031283,2.68531109 L5.72883965,3.24381849 C5.77204062,3.28701796 5.84378509,3.28701796 5.88698606,3.24381849 L7.5216799,1.60918152 C8.27769688,0.853190856 9.55521128,0.772963269 10.3899157,1.60918152 C11.2269345,2.44617118 11.1467042,3.7220983 10.3899157,4.47886037 L8.75599333,6.11195451 C8.71225198,6.1558959 8.71225198,6.22692543 8.75599333,6.27086682 L9.31606305,6.83014563 C9.35926403,6.87411651 9.43177994,6.87411651 9.47498091,6.83014563 L11.1089033,5.19628009 C12.2970322,4.00738317 12.2970322,2.08065872 11.1089033,0.891761806 L11.1089033,0.892533227 Z M5.53508932,4.98062071 C5.57882916,4.93667778 5.57882916,4.86564577 5.53508932,4.82170285 L2.35144291,1.63640275 C2.30750151,1.5926614 2.23647198,1.5926614 2.19253059,1.63640275 L1.63556603,2.19338669 C1.59236656,2.2373591 1.59236656,2.30910357 1.63556603,2.35230455 L4.81998386,5.53606174 C4.86392525,5.57980311 4.93495479,5.57980311 4.97889619,5.53606174 L5.53508932,4.98062071 L5.53508932,4.98062071 Z M10.3350893,9.78062071 C10.3788292,9.73667778 10.3788292,9.66564577 10.3350893,9.62170285 L7.15144291,6.43640275 C7.10750151,6.3926614 7.03647198,6.3926614 6.99253059,6.43640275 L6.43556603,6.99338669 C6.39236656,7.0373591 6.39236656,7.10910357 6.43556603,7.15230455 L9.61998386,10.3360617 C9.66392525,10.3798031 9.73495479,10.3798031 9.77889619,10.3360617 L10.3350893,9.78062071 L10.3350893,9.78062071 Z" id="形状"></path>
                </g>
            </g>
        </g>
    </g>
</svg>