<svg width="140" height="140" xmlns="http://www.w3.org/2000/svg"><path d="M70 0C31.34 0 0 31.34 0 70s31.34 70 70 70 70-31.34 70-70S108.66 0 70 0zm-.443 108.487a5.292 5.292 0 1 1 0-10.583 5.293 5.293 0 0 1 0 10.585v-.002zm22.073-47.19c-1.551 2.792-4.58 6.183-9.088 10.175-3.028 2.682-4.995 4.661-5.931 5.932a13.185 13.185 0 0 0-2.084 4.395c-.335 1.235-.564 3.044-.687 5.428a2.772 2.772 0 0 1-2.77 2.627h-3.505a2.779 2.779 0 0 1-2.777-2.772v-.02c0-3.647.516-6.796 1.547-9.446.755-1.998 1.977-4.012 3.665-6.043 1.243-1.482 3.47-3.644 6.684-6.484s5.304-5.102 6.272-6.785a10.88 10.88 0 0 0 1.449-5.523c0-3.617-1.41-6.791-4.23-9.522-2.82-2.73-6.28-4.099-10.381-4.105-3.954 0-7.26 1.238-9.914 3.715-1.932 1.81-3.38 4.36-4.344 7.649a4.842 4.842 0 1 1-9.285-2.756c1.307-4.386 3.482-7.924 6.524-10.614 4.252-3.746 9.871-5.622 16.858-5.627 7.401 0 13.305 2.014 17.71 6.042 4.407 4.028 6.61 8.9 6.61 14.612a18.505 18.505 0 0 1-2.323 9.123z" fill="#666"/></svg>