<?xml version="1.0" encoding="UTF-8"?>
<svg width="10px" height="10px" viewBox="0 0 10 10" version="1.1" xmlns="http://www.w3.org/2000/svg" xmlns:xlink="http://www.w3.org/1999/xlink">
    <title>删除 (2)</title>
    <g id="chrome-v6.3-支持dapp-&amp;账户地址重复" stroke="none" stroke-width="1" fill="none" fill-rule="evenodd">
        <g id="点击编辑后所有节点均不可被选中" transform="translate(-312.000000, -445.000000)" fill="#FFFFFF" fill-rule="nonzero">
            <g id="编组-8" transform="translate(309.000000, 418.000000)">
                <g id="删除-(2)" transform="translate(3.000000, 27.000000)">
                    <path d="M4.99984733,10 C2.23847328,10 1.10946069e-16,7.76137405 1.10946069e-16,4.99984733 C1.10946069e-16,2.23832061 2.23847328,1.97260044e-16 4.99984733,1.97260044e-16 C7.76122139,1.97260044e-16 10,2.23847329 10,4.99984733 C10,7.76122138 7.76122138,10 4.99984733,10 Z M5.00885496,0.766564887 C2.66625955,0.766564887 0.76717557,2.66396947 0.76717557,5.00442749 C0.76717557,7.34488551 2.66641221,9.24244276 5.00900764,9.24244276 C7.35160306,9.24244276 9.25053436,7.34503818 9.25053436,5.00442749 C9.25053436,2.6638168 7.35145038,0.766564887 5.00900764,0.766564887 L5.00885496,0.766564887 Z M6.71175572,5.39160306 L3.30610687,5.39160306 C3.16778236,5.39160306 3.03996523,5.31780782 2.97080298,5.19801528 C2.90164072,5.07822273 2.90164072,4.93063223 2.97080298,4.81083969 C3.03996523,4.69104715 3.16778236,4.61725191 3.30610687,4.61725191 L6.71175572,4.61725191 C6.92558689,4.61725191 7.0989313,4.79059632 7.0989313,5.00442748 C7.0989313,5.21825865 6.92558689,5.39160306 6.71175572,5.39160306 L6.71175572,5.39160306 Z" id="形状"></path>
                </g>
            </g>
        </g>
    </g>
</svg>