<?xml version="1.0" encoding="UTF-8"?>
<svg width="10px" height="10px" viewBox="0 0 10 10" version="1.1" xmlns="http://www.w3.org/2000/svg" xmlns:xlink="http://www.w3.org/1999/xlink">
    <title>编辑 (1)</title>
    <g id="chrome-v6.3-支持dapp-&amp;账户地址重复" stroke="none" stroke-width="1" fill="none" fill-rule="evenodd">
        <g id="点击编辑后所有节点均不可被选中" transform="translate(-312.000000, -331.000000)" fill="#FFFFFF" fill-rule="nonzero">
            <g id="编组-8" transform="translate(309.000000, 328.000000)">
                <g id="编辑-(1)" transform="translate(3.000000, 3.000000)">
                    <path d="M9.58977595,4.28749481 L5.35079409,8.53759867 C5.25963319,8.62899875 5.16847229,8.62899875 5.07731139,8.62899875 C4.98615049,8.62899875 4.89498959,8.62899875 4.84940914,8.53759867 C4.71266779,8.40049855 4.71266779,8.17199834 4.84940914,8.03489821 L9.088391,3.78479435 C9.1795519,3.69339427 9.22513235,3.55629414 9.22513235,3.37349398 C9.22513235,3.19069381 9.13397145,3.00789364 9.04281055,2.87079352 L7.03727074,0.859991691 C6.80936849,0.631491483 6.49030534,0.768591608 6.30798354,0.997091816 L2.25132349,5.06439551 L1.15739268,6.16119651 L0.747168633,9.26879934 L3.57315654,8.81179892 L1.97784079,7.16659742 C1.84109943,7.0294973 1.84109943,6.80099709 1.97784079,6.66389697 C2.11458214,6.52679684 2.34248439,6.52679684 2.47922574,6.66389697 L4.57592644,8.76609888 C4.66708734,8.85749896 4.71266779,8.99459909 4.66708734,9.13169921 C4.62150689,9.26879934 4.53034599,9.36019942 4.39360464,9.36019942 L0.382525032,10 L0.336944582,10 C0.245783682,10 0.154622782,9.95429996 0.109042332,9.90859992 C0.0178814314,9.81719983 -0.0276990187,9.72579975 0.0178814314,9.58869963 L0.519266382,5.88699626 C0.519266382,5.79559618 0.564846832,5.74989614 0.610427283,5.70419609 L1.29413403,5.01869547 L5.85217904,0.448691317 C6.39914444,-0.0997091816 7.12843164,-0.145409223 7.58423615,0.311591192 L9.58977595,2.32239302 C9.86325865,2.59659327 10,2.9621936 10,3.32779393 C9.95441955,3.73909431 9.8176782,4.0589946 9.58977595,4.28749481 L9.58977595,4.28749481 Z" id="形状"></path>
                </g>
            </g>
        </g>
    </g>
</svg>