<?xml version="1.0" standalone="no"?><!DOCTYPE svg PUBLIC "-//W3C//DTD SVG 1.1//EN" "http://www.w3.org/Graphics/SVG/1.1/DTD/svg11.dtd"><svg t="1621072499267" class="icon" viewBox="0 0 1024 1024" version="1.1" xmlns="http://www.w3.org/2000/svg" p-id="1852" xmlns:xlink="http://www.w3.org/1999/xlink" width="200" height="200"><defs><style type="text/css"></style></defs><path d="M753.066667 270.933333A339.541333 339.541333 0 0 0 512 170.666667a341.333333 341.333333 0 0 0-341.333333 341.333333 341.333333 341.333333 0 0 0 341.333333 341.333333c159.146667 0 291.84-108.8 329.813333-256h-88.746666A255.573333 255.573333 0 0 1 512 768a256 256 0 0 1-256-256 256 256 0 0 1 256-256c70.826667 0 133.973333 29.44 180.053333 75.946667L554.666667 469.333333h298.666666V170.666667l-100.266666 100.266666z" fill="#666666" p-id="1853"></path></svg>