<?xml version="1.0" encoding="UTF-8"?>
<svg width="60px" height="60px" viewBox="0 0 60 60" version="1.1" xmlns="http://www.w3.org/2000/svg" xmlns:xlink="http://www.w3.org/1999/xlink">
    <title>警告</title>
    <g id="chrome-v5" stroke="none" stroke-width="1" fill="none" fill-rule="evenodd">
        <g id="首页单页面" transform="translate(-156.000000, -141.000000)" fill="#F95051" fill-rule="nonzero">
            <g id="警告" transform="translate(156.000000, 141.000000)">
                <path d="M30,0 C13.4316964,0 0,13.4316964 0,30 C0,46.5683036 13.4316964,60 30,60 C46.5683036,60 60,46.5683036 60,30 C60,13.4316964 46.5683036,0 30,0 Z M30,50.3571429 C28.6685993,50.3571429 27.5892857,49.2778293 27.5892857,47.9464286 C27.5892857,46.6150278 28.6685993,45.5357143 30,45.5357143 C31.3314007,45.5357143 32.4107143,46.6150278 32.4107143,47.9464286 C32.4107143,49.2778293 31.3314007,50.3571429 30,50.3571429 L30,50.3571429 Z M33.4707589,13.3962054 L32.4107143,38.3035714 C32.4107143,39.6349722 31.3314007,40.7142857 30,40.7142857 C28.6685993,40.7142857 27.5892857,39.6349722 27.5892857,38.3035714 L26.5292411,13.3962054 C26.5225446,13.3071429 26.5178571,13.2167411 26.5178571,13.125 C26.5178571,11.2018656 28.0768656,9.64285714 30,9.64285714 C31.9231344,9.64285714 33.4821429,11.2018656 33.4821429,13.125 C33.4821429,13.2167411 33.4774554,13.3071429 33.4707589,13.3962054 Z" id="形状"></path>
            </g>
        </g>
    </g>
</svg>