<?xml version="1.0" encoding="UTF-8"?>
<svg width="28px" height="28px" viewBox="0 0 28 28" version="1.1" xmlns="http://www.w3.org/2000/svg" xmlns:xlink="http://www.w3.org/1999/xlink">
    <title>Group 6</title>
    <g id="chrome-v4" stroke="none" stroke-width="1" fill="none" fill-rule="evenodd">
        <g id="设置-添加了地址本-更改了用户协议图标" transform="translate(-48.000000, -554.000000)">
            <g id="编组" transform="translate(48.000000, 554.000000)">
                <g id="Group-4" fill="#1D7EA6">
                    <rect id="Rectangle" x="0" y="0" width="28" height="28" rx="10"></rect>
                </g>
                <g id="隐私" transform="translate(7.000000, 6.000000)" fill="#FFFFFF" fill-rule="nonzero">
                    <path d="M7.70944243,0.221070045 L12.0182425,2.0961984 C12.719599,2.40141409 13.1764706,3.11704769 13.1764706,3.91047557 L13.1764706,9.75870482 C13.1764706,10.3288981 12.9393348,10.8709885 12.5266023,11.2443265 L7.79972794,15.5200776 C7.09011704,16.1619589 6.0360496,16.1597257 5.32894859,15.514836 L0.644088503,11.2420194 C0.234830817,10.8687696 0,10.3290556 0,9.76165787 L0,3.91809812 C0,3.11845038 0.463959361,2.39849795 1.17335815,2.09730579 L5.61488217,0.211564931 C6.28695713,-0.0737777729 7.03976798,-0.0703615173 7.70944243,0.221070045 Z M6.61237094,5.22031725 C5.89266743,5.22031725 5.30920526,5.82954893 5.30920526,6.58109895 C5.30920526,7.05290329 5.53914345,7.46861824 5.88840768,7.71272434 L5.88840768,7.71272434 L5.88839001,10.2349941 C5.88839001,10.6664156 6.22333724,11.0161669 6.63649774,11.0161669 C7.04967592,11.0161669 7.38462315,10.666434 7.38462315,10.2349941 L7.38462315,10.2349941 L7.38441105,7.69643876 L7.38441105,7.69643876 L7.38377474,7.67795223 C7.70626087,7.43022865 7.91553661,7.03117996 7.91553661,6.58109895 C7.91553661,5.82956739 7.33209212,5.22031725 6.61237094,5.22031725 Z" id="形状"></path>
                </g>
            </g>
        </g>
    </g>
</svg>