<?xml version="1.0" encoding="UTF-8"?>
<svg width="28px" height="28px" viewBox="0 0 28 28" version="1.1" xmlns="http://www.w3.org/2000/svg" xmlns:xlink="http://www.w3.org/1999/xlink">
    <title>Group 6</title>
    <g id="chrome-v4" stroke="none" stroke-width="1" fill="none" fill-rule="evenodd">
        <g id="设置-添加了地址本-更改了用户协议图标" transform="translate(-48.000000, -492.000000)">
            <g id="编组" transform="translate(48.000000, 492.000000)">
                <g id="Group-4" fill="#5DC6FB">
                    <rect id="Rectangle" x="0" y="0" width="28" height="28" rx="10"></rect>
                </g>
                <g id="用户协议2" transform="translate(7.000000, 6.000000)" fill="#FFFFFF" fill-rule="nonzero">
                    <path d="M12.9545455,0 C14.0842188,0 15,0.8954305 15,2 L15,14 C15,15.1045695 14.0842188,16 12.9545455,16 L2.04545455,16 C0.915781194,16 0,15.1045695 0,14 L0,2 C0,0.8954305 0.915781194,0 2.04545455,0 L12.9545455,0 Z M9.54545455,11.3333333 L4.09090909,11.3333333 C3.71435131,11.3333333 3.40909091,11.6318102 3.40909091,12 C3.40909091,12.3681898 3.71435131,12.6666667 4.09090909,12.6666667 L9.54545455,12.6666667 C9.92201233,12.6666667 10.2272727,12.3681898 10.2272727,12 C10.2272727,11.6318102 9.92201233,11.3333333 9.54545455,11.3333333 Z M9.54545455,8.66666667 L4.09090909,8.66666667 C3.71439207,8.66672303 3.40919529,8.96518336 3.40919529,9.33333334 C3.40919529,9.70148331 3.71439207,9.99994364 4.09090909,10 L9.54545455,10 C9.92197157,9.99994364 10.2271684,9.70148331 10.2271684,9.33333334 C10.2271684,8.96518336 9.92197157,8.66672303 9.54545455,8.66666667 Z M7.5,2 L4.09090909,2 C3.71435131,2 3.40909087,2.29847684 3.40909087,2.66666667 L3.40909087,6.112 C3.40900738,6.35580381 3.54504118,6.58020738 3.76382035,6.69716741 C3.98259951,6.81412745 4.2492261,6.80498741 4.45909091,6.67333333 L5.42727272,6.06533333 C5.6516246,5.92459112 5.93928448,5.92459112 6.16363636,6.06533333 L7.13181818,6.67333333 C7.34168299,6.80498741 7.60830958,6.81412745 7.82708875,6.69716741 C8.04586791,6.58020738 8.18190172,6.35580381 8.18181823,6.112 L8.18181823,2.66666667 C8.18181823,2.29847684 7.87655779,2 7.5,2 L7.5,2 Z" id="形状"></path>
                </g>
            </g>
        </g>
    </g>
</svg>