<svg width="245" height="221" viewBox="0 0 245 221" fill="none" xmlns="http://www.w3.org/2000/svg">
<path fill-rule="evenodd" clip-rule="evenodd" d="M122.478 218.977L122.38 218.982C119.356 219.15 116.391 218.122 114.135 216.127C111.88 214.133 110.519 211.337 110.343 208.355L110.339 208.285L108.523 194.213C117.759 195.943 127.241 195.943 136.477 194.213L134.663 208.27L134.659 208.325C134.44 211.303 133.06 214.082 130.806 216.073C128.551 218.064 125.599 219.109 122.576 218.981L122.478 218.977ZM136.754 192.124C136.751 192.124 136.749 192.125 136.746 192.125C127.34 193.972 117.66 193.972 108.254 192.125C108.251 192.125 108.249 192.124 108.246 192.124C107.591 191.995 106.936 191.857 106.283 191.71C106.252 191.703 106.221 191.696 106.189 191.689C106.186 191.689 106.183 191.688 106.181 191.687L108.347 208.472C108.553 211.989 110.159 215.281 112.81 217.625C115.462 219.97 118.943 221.176 122.491 220.979C126.028 221.129 129.486 219.907 132.13 217.572C134.773 215.237 136.396 211.973 136.653 208.472L138.819 191.687C138.817 191.688 138.814 191.689 138.811 191.689C138.779 191.696 138.748 191.703 138.717 191.71C138.064 191.857 137.409 191.995 136.754 192.124ZM154.201 68.9973C157.164 46.4055 166.978 32.1804 184.734 27.1278C185.418 26.9331 186.114 26.752 186.822 26.5846L188.369 15.5934C189.898 4.92709 195.76 0.0360924 204.06 0.0360932C212.361 0.0360939 218.623 5.82949 218.623 16.2793L218.532 28.1187C219.211 28.3263 219.878 28.5477 220.532 28.7827C236.211 34.4103 245 47.8526 245 67.4813L244.909 217.37L218.532 217.37L218.532 28.1187C217.87 27.9072 217.205 27.7077 216.537 27.5202C211.186 26.0193 205.641 25.2898 200.074 25.3574C196.328 25.2798 192.586 25.5592 188.897 26.1909C188.203 26.3097 187.511 26.4409 186.822 26.5846L170.202 153.823C167.547 174.331 157.229 186.395 140.905 191.162C140.905 191.162 140.904 191.162 140.904 191.162C140.25 191.353 139.587 191.532 138.915 191.7C138.886 191.707 138.856 191.714 138.827 191.721C138.825 191.722 138.822 191.723 138.819 191.723L154.201 68.9973ZM141.178 188.991C148.293 186.77 154.099 183.085 158.521 177.869C163.526 171.965 166.873 163.962 168.219 153.566L184.451 29.2966C176.704 31.6671 170.651 35.8952 166.105 41.8926C160.994 48.6365 157.695 57.7443 156.185 69.2514C156.185 69.2534 156.185 69.2554 156.184 69.2573L141.178 188.991ZM189.189 24.1151L190.349 15.8772C190.349 15.8767 190.349 15.8761 190.349 15.8755C191.071 10.8435 192.778 7.42359 195.052 5.26578C197.305 3.12795 200.318 2.03609 204.06 2.03609C207.733 2.03609 210.822 3.30721 213.001 5.61269C215.184 7.92224 216.622 11.4522 216.623 16.2717L216.553 25.4501C211.191 23.9982 205.648 23.2926 200.083 23.3571C196.434 23.2835 192.788 23.5375 189.189 24.1151ZM220.532 30.9143C227.359 33.502 232.702 37.6561 236.459 43.1968C240.689 49.4336 243 57.5646 243 67.4801L243 67.4813M243 67.4813L242.91 215.37L220.532 215.37L220.532 30.9143M60.2602 27.1307C78.0257 32.186 87.8371 46.4099 90.7987 68.9973L106.181 191.723C106.178 191.723 106.175 191.722 106.173 191.721C106.144 191.714 106.114 191.707 106.085 191.7C105.413 191.531 104.75 191.351 104.096 191.159C104.095 191.159 104.095 191.159 104.094 191.158C88.0253 186.432 77.4509 174.369 74.7797 153.823L58.16 26.5846C58.8678 26.7519 59.5637 26.9327 60.2478 27.1272C60.252 27.1284 60.2561 27.1296 60.2602 27.1307ZM60.5311 29.2957C68.2872 31.6661 74.3449 35.8948 78.8928 41.893C84.0064 48.6372 87.3059 57.7457 88.8153 69.254C88.8154 69.2551 88.8156 69.2562 88.8157 69.2573L103.822 188.985C96.828 186.784 91.0302 183.115 86.5811 177.904C81.5365 171.996 78.1168 163.978 76.763 153.565L76.7628 153.564L60.5311 29.2957ZM56.0892 26.1786C46.8902 24.6851 37.4756 25.1426 28.4678 27.5209C27.7988 27.6976 27.132 27.8848 26.4678 28.0826L26.4678 16.2431C26.4678 5.86557 32.6206 -1.85668e-05 40.9395 -1.78395e-05C49.2585 -1.71123e-05 55.0836 4.89098 56.6309 15.5573L57.8691 24.4576L57.8696 24.4609L58.16 26.5485C57.4714 26.4142 56.7806 26.2908 56.0892 26.1786C56.089 26.1786 56.0895 26.1786 56.0892 26.1786ZM55.8013 24.1085C46.6931 22.7137 37.3928 23.1715 28.4678 25.4545L28.4678 16.2431C28.4678 11.4495 29.883 7.91349 32.0465 5.59424C34.2019 3.28368 37.266 1.99998 40.9395 1.99998C44.6913 1.99998 47.6987 3.09204 49.9468 5.22851C52.2167 7.38571 53.9199 10.8056 54.6509 15.8398C54.6512 15.8414 54.6514 15.8429 54.6516 15.8444L55.8013 24.1085ZM9.3515e-06 67.5715C1.10675e-05 47.9428 8.78926 34.5005 24.4678 28.8729C25.1225 28.6379 25.7892 28.4166 26.4678 28.2089L26.4678 217.37L-3.74426e-06 217.37L9.3515e-06 67.5715ZM2 215.37L2.00001 67.5715C2.00001 57.6555 4.31124 49.5241 8.54075 43.287C12.298 37.7464 17.6414 33.5923 24.4678 31.0046L24.4678 215.37L2 215.37Z" fill="url(#paint0_linear_2231_6373)"/>
<path d="M15.964 206L25.936 180.8H31.12L41.02 206H34.828L30.076 193.22C29.884 192.716 29.692 192.176 29.5 191.6C29.308 191.024 29.116 190.436 28.924 189.836C28.732 189.212 28.54 188.612 28.348 188.036C28.18 187.436 28.036 186.884 27.916 186.38L28.996 186.344C28.852 186.944 28.684 187.532 28.492 188.108C28.324 188.684 28.144 189.26 27.952 189.836C27.784 190.388 27.592 190.952 27.376 191.528C27.16 192.08 26.956 192.656 26.764 193.256L22.012 206H15.964ZM20.716 201.176L22.624 196.568H34.216L36.088 201.176H20.716ZM49.7165 206.396C48.3005 206.396 47.0885 206.096 46.0805 205.496C45.0965 204.872 44.3285 203.984 43.7765 202.832C43.2485 201.68 42.9845 200.3 42.9845 198.692V186.884H48.7805V197.9C48.7805 198.668 48.9005 199.328 49.1405 199.88C49.3805 200.432 49.7405 200.864 50.2205 201.176C50.7005 201.464 51.2765 201.608 51.9485 201.608C52.4525 201.608 52.9085 201.524 53.3165 201.356C53.7485 201.188 54.1085 200.96 54.3965 200.672C54.7085 200.36 54.9485 200.012 55.1165 199.628C55.2845 199.22 55.3685 198.776 55.3685 198.296V186.884H61.1645V206H55.7285L55.4765 202.076L56.5565 201.644C56.2685 202.556 55.7885 203.372 55.1165 204.092C54.4445 204.788 53.6405 205.352 52.7045 205.784C51.7685 206.192 50.7725 206.396 49.7165 206.396ZM66.2982 206V186.884H71.7702L72.0222 193.112L70.9422 191.924C71.2302 190.892 71.6982 189.968 72.3462 189.152C73.0182 188.336 73.7982 187.688 74.6862 187.208C75.5742 186.728 76.5222 186.488 77.5302 186.488C77.9622 186.488 78.3582 186.524 78.7182 186.596C79.1022 186.668 79.4502 186.752 79.7622 186.848L78.1782 193.22C77.9142 193.052 77.5542 192.92 77.0982 192.824C76.6662 192.704 76.2102 192.644 75.7302 192.644C75.2022 192.644 74.7102 192.74 74.2542 192.932C73.7982 193.1 73.4142 193.352 73.1022 193.688C72.7902 194.024 72.5382 194.42 72.3462 194.876C72.1782 195.332 72.0942 195.848 72.0942 196.424V206H66.2982ZM90.8724 206.36C88.8804 206.36 87.1044 205.928 85.5444 205.064C84.0084 204.2 82.7844 203.024 81.8724 201.536C80.9844 200.048 80.5404 198.344 80.5404 196.424C80.5404 194.504 80.9844 192.8 81.8724 191.312C82.7844 189.824 84.0084 188.648 85.5444 187.784C87.1044 186.92 88.8804 186.488 90.8724 186.488C92.8644 186.488 94.6284 186.92 96.1644 187.784C97.7244 188.648 98.9484 189.824 99.8364 191.312C100.724 192.8 101.168 194.504 101.168 196.424C101.168 198.344 100.724 200.048 99.8364 201.536C98.9484 203.024 97.7244 204.2 96.1644 205.064C94.6284 205.928 92.8644 206.36 90.8724 206.36ZM90.8724 201.392C91.7364 201.392 92.5044 201.176 93.1764 200.744C93.8484 200.312 94.3764 199.724 94.7604 198.98C95.1444 198.236 95.3244 197.384 95.3004 196.424C95.3244 195.464 95.1444 194.612 94.7604 193.868C94.3764 193.1 93.8484 192.5 93.1764 192.068C92.5044 191.636 91.7364 191.42 90.8724 191.42C90.0084 191.42 89.2284 191.636 88.5324 192.068C87.8604 192.5 87.3324 193.1 86.9484 193.868C86.5644 194.612 86.3844 195.464 86.4084 196.424C86.3844 197.384 86.5644 198.236 86.9484 198.98C87.3324 199.724 87.8604 200.312 88.5324 200.744C89.2284 201.176 90.0084 201.392 90.8724 201.392ZM121.614 206L114.054 180.8H120.282L124.062 194.048C124.23 194.648 124.374 195.26 124.494 195.884C124.638 196.484 124.746 197.06 124.818 197.612C124.914 198.164 124.986 198.68 125.034 199.16C125.082 199.616 125.13 200 125.178 200.312H124.386C124.53 199.424 124.65 198.632 124.746 197.936C124.866 197.24 124.998 196.592 125.142 195.992C125.286 195.368 125.466 194.72 125.682 194.048L129.426 184.076H134.322L137.994 194.048C138.282 194.84 138.522 195.584 138.714 196.28C138.906 196.976 139.05 197.648 139.146 198.296C139.266 198.92 139.362 199.544 139.434 200.168L138.714 200.276C138.762 199.844 138.798 199.448 138.822 199.088C138.846 198.704 138.87 198.344 138.894 198.008C138.942 197.648 138.99 197.276 139.038 196.892C139.086 196.508 139.158 196.088 139.254 195.632C139.35 195.152 139.482 194.612 139.65 194.012L143.394 180.8H149.478L141.918 206H137.238L131.262 191.492L131.946 191.564L126.438 206H121.614ZM158.362 206.324C156.754 206.324 155.314 205.904 154.042 205.064C152.794 204.2 151.798 203.024 151.054 201.536C150.31 200.024 149.938 198.32 149.938 196.424C149.938 194.48 150.31 192.764 151.054 191.276C151.798 189.788 152.818 188.624 154.114 187.784C155.41 186.92 156.886 186.488 158.542 186.488C159.454 186.488 160.282 186.62 161.026 186.884C161.794 187.148 162.466 187.52 163.042 188C163.618 188.456 164.11 188.996 164.518 189.62C164.926 190.22 165.226 190.868 165.418 191.564L164.23 191.42V186.884H169.954V206H164.122V201.392L165.418 201.356C165.226 202.028 164.914 202.664 164.482 203.264C164.05 203.864 163.522 204.392 162.898 204.848C162.274 205.304 161.578 205.664 160.81 205.928C160.042 206.192 159.226 206.324 158.362 206.324ZM159.946 201.464C160.834 201.464 161.602 201.26 162.25 200.852C162.898 200.444 163.402 199.868 163.762 199.124C164.122 198.356 164.302 197.456 164.302 196.424C164.302 195.392 164.122 194.504 163.762 193.76C163.402 192.992 162.898 192.404 162.25 191.996C161.602 191.564 160.834 191.348 159.946 191.348C159.082 191.348 158.326 191.564 157.678 191.996C157.054 192.404 156.562 192.992 156.202 193.76C155.842 194.504 155.662 195.392 155.662 196.424C155.662 197.456 155.842 198.356 156.202 199.124C156.562 199.868 157.054 200.444 157.678 200.852C158.326 201.26 159.082 201.464 159.946 201.464ZM175.072 206V179.36H180.832V206H175.072ZM186.006 206V179.36H191.766V206H186.006ZM205.66 206.36C203.548 206.36 201.712 205.94 200.152 205.1C198.592 204.236 197.38 203.072 196.516 201.608C195.652 200.12 195.22 198.428 195.22 196.532C195.22 195.068 195.46 193.724 195.94 192.5C196.42 191.276 197.092 190.22 197.956 189.332C198.82 188.42 199.84 187.724 201.016 187.244C202.216 186.74 203.524 186.488 204.94 186.488C206.284 186.488 207.508 186.728 208.612 187.208C209.74 187.688 210.712 188.36 211.528 189.224C212.344 190.088 212.968 191.108 213.4 192.284C213.832 193.46 214.024 194.744 213.976 196.136L213.94 197.684H198.712L197.884 194.444H209.26L208.648 195.128V194.408C208.6 193.808 208.408 193.28 208.072 192.824C207.76 192.344 207.34 191.972 206.812 191.708C206.284 191.444 205.684 191.312 205.012 191.312C204.076 191.312 203.272 191.504 202.6 191.888C201.952 192.248 201.46 192.788 201.124 193.508C200.788 194.204 200.62 195.068 200.62 196.1C200.62 197.156 200.836 198.08 201.268 198.872C201.724 199.64 202.372 200.24 203.212 200.672C204.076 201.104 205.096 201.32 206.272 201.32C207.088 201.32 207.808 201.2 208.432 200.96C209.08 200.72 209.776 200.312 210.52 199.736L213.22 203.552C212.476 204.2 211.684 204.728 210.844 205.136C210.004 205.544 209.14 205.844 208.252 206.036C207.388 206.252 206.524 206.36 205.66 206.36ZM219.23 206V182.06H224.99V206H219.23ZM215.846 191.924V186.884H228.698V191.924H215.846Z" fill="black"/>
<defs>
<linearGradient id="paint0_linear_2231_6373" x1="122.5" y1="-1.07093e-05" x2="122.5" y2="221" gradientUnits="userSpaceOnUse">
<stop offset="0.307292" stop-color="#594AF1"/>
<stop offset="0.864583" stop-color="#FF5959" stop-opacity="0"/>
</linearGradient>
</defs>
</svg>
