<svg width="30" height="30" viewBox="0 0 30 30" fill="none" xmlns="http://www.w3.org/2000/svg">
<path d="M20.4545 7.13208C22.845 7.13208 24.7776 9.06257 24.7777 11.3635C24.7777 11.5592 24.7031 11.7105 24.5765 11.8118C24.4516 11.9117 24.2805 11.9592 24.0912 11.9592C23.9017 11.9592 23.7299 11.9118 23.6049 11.8118C23.4785 11.7105 23.4047 11.5591 23.4047 11.3635C23.4046 9.75291 22.0613 8.32251 20.4545 8.32251H9.54529C7.93667 8.32262 6.50438 9.75491 6.50427 11.3635V18.636C6.50427 20.2437 7.84474 21.5861 9.54529 21.5862H20.4545C22.0632 21.5862 23.4047 20.2447 23.4047 18.636V13.636C23.4048 13.4408 23.4787 13.2899 23.6049 13.1887C23.7299 13.0887 23.9017 13.0413 24.0912 13.0413C24.477 13.0414 24.7774 13.3311 24.7777 13.636V18.636C24.7777 21.0272 22.8457 22.9592 20.4545 22.9592H9.54529C7.15273 22.9591 5.31384 21.0258 5.31384 18.636V11.3635C5.31394 8.97172 7.24579 7.13217 9.54529 7.13208H20.4545Z" fill="black" stroke="black" stroke-width="0.1"/>
<path d="M12.2727 11.041C13.9367 11.041 15.3225 12.4268 15.3225 14.0908C15.3225 15.7548 13.9367 17.1406 12.2727 17.1406C10.6087 17.1406 9.2229 15.7548 9.2229 14.0908C9.2229 12.4268 10.6087 11.041 12.2727 11.041ZM12.2727 12.3223C11.3003 12.3223 10.5042 13.1184 10.5042 14.0908C10.5042 15.0632 11.3003 15.8594 12.2727 15.8594C13.2451 15.8594 14.0413 15.0632 14.0413 14.0908C14.0413 13.1184 13.2451 12.3223 12.2727 12.3223Z" fill="black" stroke="black" stroke-width="0.1"/>
<path d="M12.2729 15.8586C14.0179 15.8587 15.4964 16.8705 15.8667 18.3518L16.064 19.1409H8.48096L8.49658 19.0784L8.6792 18.3518L8.76123 18.0793C9.23523 16.7476 10.6369 15.8586 12.2729 15.8586ZM20.7271 16.7678C20.9223 16.7678 21.0725 16.8419 21.1733 16.9553C21.2734 17.0679 21.3228 17.2165 21.3228 17.3635L21.3091 17.5012C21.283 17.6307 21.2204 17.7341 21.1353 17.8098C21.0227 17.9098 20.8741 17.9592 20.7271 17.9592H17.3638C17.1685 17.9592 17.0183 17.8851 16.9175 17.7717C16.8174 17.6592 16.7681 17.5105 16.7681 17.3635C16.7681 17.2109 16.8443 17.0627 16.9536 16.9534C17.0629 16.8441 17.2112 16.7678 17.3638 16.7678H20.7271ZM12.1821 17.1409C11.4332 17.1409 10.8406 17.4532 10.4009 17.8586H14.0522C13.6033 17.4544 12.9324 17.141 12.1821 17.1409ZM20.7271 14.0413C20.9223 14.0413 21.0725 14.1145 21.1733 14.2278C21.2733 14.3403 21.3227 14.4891 21.3228 14.636L21.3091 14.7747C21.283 14.9038 21.2202 15.0067 21.1353 15.0823C21.0227 15.1823 20.8741 15.2317 20.7271 15.2317H17.3638C17.1684 15.2317 17.0183 15.1576 16.9175 15.0442C16.8174 14.9316 16.7681 14.783 16.7681 14.636C16.7682 14.4835 16.8444 14.3351 16.9536 14.2258C17.0629 14.1167 17.2112 14.0413 17.3638 14.0413H20.7271ZM20.7271 11.3137C21.1183 11.3137 21.4136 11.609 21.4136 12.0002C21.4134 12.3862 21.1229 12.6858 20.8179 12.6858H16.5327V12.6838C16.343 12.6363 16.1755 12.5414 16.0552 12.4211C15.9354 12.3012 15.859 12.1532 15.8589 12.0002C15.8589 11.6141 16.1494 11.3137 16.4546 11.3137H20.7271Z" fill="black" stroke="black" stroke-width="0.1"/>
</svg>
