<svg width="30" height="30" viewBox="0 0 30 30" fill="none" xmlns="http://www.w3.org/2000/svg">
    <g clip-path="url(#clip0_10008_545)">
    <path d="M20.4542 22.9089H9.5451C7.18146 22.9089 5.36328 20.9998 5.36328 18.6362V11.3635C5.36328 8.99982 7.27237 7.18164 9.5451 7.18164H20.4542C22.8178 7.18164 24.7269 9.09073 24.7269 11.3635C24.7269 11.7271 24.4542 11.9089 24.0906 11.9089C23.7269 11.9089 23.4542 11.7271 23.4542 11.3635C23.4542 9.7271 22.0906 8.27255 20.4542 8.27255H9.5451C7.90874 8.27255 6.45419 9.7271 6.45419 11.3635V18.6362C6.45419 20.2725 7.81783 21.6362 9.5451 21.6362H20.4542C22.0906 21.6362 23.4542 20.2725 23.4542 18.6362V13.6362C23.4542 13.2725 23.7269 13.0907 24.0906 13.0907C24.4542 13.0907 24.7269 13.3635 24.7269 13.6362V18.6362C24.7269 20.9998 22.8178 22.9089 20.4542 22.9089Z" fill="black"/>
    <path d="M12.2725 17.0908C10.6361 17.0908 9.27246 15.7272 9.27246 14.0908C9.27246 12.4545 10.6361 11.0908 12.2725 11.0908C13.9088 11.0908 15.2725 12.4545 15.2725 14.0908C15.2725 15.7272 13.9088 17.0908 12.2725 17.0908ZM12.2725 12.2726C11.2725 12.2726 10.4543 13.0908 10.4543 14.0908C10.4543 15.0908 11.2725 15.909 12.2725 15.909C13.2725 15.909 14.0906 15.0908 14.0906 14.0908C14.0906 13.0908 13.2725 12.2726 12.2725 12.2726Z" fill="black"/>
    <path d="M16.0004 19.0906H8.5459L8.72772 18.3633C9.09135 16.9087 10.5459 15.9087 12.2732 15.9087C14.0004 15.9087 15.455 16.9087 15.8186 18.3633L16.0004 19.0906ZM10.2732 17.9087H14.1823C13.7277 17.4542 13.0004 17.0906 12.1823 17.0906C11.3641 17.0906 10.7277 17.4542 10.2732 17.9087ZM16.455 11.3633H20.7277C21.0914 11.3633 21.3641 11.636 21.3641 11.9996C21.3641 12.3633 21.0914 12.636 20.8186 12.636H16.5459C16.1823 12.5451 15.9095 12.2724 15.9095 11.9996C15.9095 11.636 16.1823 11.3633 16.455 11.3633ZM17.3641 14.0906H20.7277C21.0914 14.0906 21.2732 14.3633 21.2732 14.636C21.2732 14.9996 21.0004 15.1815 20.7277 15.1815H17.3641C17.0004 15.1815 16.8186 14.9087 16.8186 14.636C16.8186 14.3633 17.0914 14.0906 17.3641 14.0906ZM17.3641 16.8178H20.7277C21.0914 16.8178 21.2732 17.0906 21.2732 17.3633C21.2732 17.7269 21.0004 17.9087 20.7277 17.9087H17.3641C17.0004 17.9087 16.8186 17.636 16.8186 17.3633C16.8186 17.0906 17.0914 16.8178 17.3641 16.8178Z" fill="black"/>
    </g>
    <defs>
    <clipPath id="clip0_10008_545">
    <rect width="20" height="20" fill="white" transform="translate(5 5)"/>
    </clipPath>
    </defs>
    </svg>
    