<svg width="20" height="20" viewBox="0 0 20 20" fill="none" xmlns="http://www.w3.org/2000/svg">
<g id="icon_credentials 1" clip-path="url(#clip0_10008_546)">
<path id="Vector" d="M15.4542 17.9089H4.5451C2.18146 17.9089 0.363281 15.9998 0.363281 13.6362V6.36346C0.363281 3.99982 2.27237 2.18164 4.5451 2.18164H15.4542C17.8178 2.18164 19.7269 4.09073 19.7269 6.36346C19.7269 6.7271 19.4542 6.90891 19.0906 6.90891C18.7269 6.90891 18.4542 6.7271 18.4542 6.36346C18.4542 4.7271 17.0906 3.27255 15.4542 3.27255H4.5451C2.90874 3.27255 1.45419 4.7271 1.45419 6.36346V13.6362C1.45419 15.2725 2.81783 16.6362 4.5451 16.6362H15.4542C17.0906 16.6362 18.4542 15.2725 18.4542 13.6362V8.63619C18.4542 8.27255 18.7269 8.09073 19.0906 8.09073C19.4542 8.09073 19.7269 8.36346 19.7269 8.63619V13.6362C19.7269 15.9998 17.8178 17.9089 15.4542 17.9089Z" fill="black"/>
<path id="Vector_2" d="M7.27246 12.0908C5.6361 12.0908 4.27246 10.7272 4.27246 9.09082C4.27246 7.45446 5.6361 6.09082 7.27246 6.09082C8.90882 6.09082 10.2725 7.45446 10.2725 9.09082C10.2725 10.7272 8.90882 12.0908 7.27246 12.0908ZM7.27246 7.27264C6.27246 7.27264 5.45428 8.09082 5.45428 9.09082C5.45428 10.0908 6.27246 10.909 7.27246 10.909C8.27246 10.909 9.09064 10.0908 9.09064 9.09082C9.09064 8.09082 8.27246 7.27264 7.27246 7.27264Z" fill="black"/>
<path id="Vector_3" d="M11.0004 14.0906H3.5459L3.72772 13.3633C4.09135 11.9087 5.5459 10.9087 7.27317 10.9087C9.00044 10.9087 10.455 11.9087 10.8186 13.3633L11.0004 14.0906ZM5.27317 12.9087H9.18226C8.72772 12.4542 8.00044 12.0906 7.18226 12.0906C6.36408 12.0906 5.72772 12.4542 5.27317 12.9087ZM11.455 6.36328H15.7277C16.0914 6.36328 16.3641 6.63601 16.3641 6.99964C16.3641 7.36328 16.0914 7.63601 15.8186 7.63601H11.5459C11.1823 7.5451 10.9095 7.27237 10.9095 6.99964C10.9095 6.63601 11.1823 6.36328 11.455 6.36328ZM12.3641 9.09055H15.7277C16.0914 9.09055 16.2732 9.36328 16.2732 9.63601C16.2732 9.99964 16.0004 10.1815 15.7277 10.1815H12.3641C12.0004 10.1815 11.8186 9.90874 11.8186 9.63601C11.8186 9.36328 12.0914 9.09055 12.3641 9.09055ZM12.3641 11.8178H15.7277C16.0914 11.8178 16.2732 12.0906 16.2732 12.3633C16.2732 12.7269 16.0004 12.9087 15.7277 12.9087H12.3641C12.0004 12.9087 11.8186 12.636 11.8186 12.3633C11.8186 12.0906 12.0914 11.8178 12.3641 11.8178Z" fill="black"/>
</g>
<defs>
<clipPath id="clip0_10008_546">
<rect width="20" height="20" fill="white"/>
</clipPath>
</defs>
</svg>
