<svg width="16" height="16" viewBox="0 0 16 16" fill="none" xmlns="http://www.w3.org/2000/svg">
<path d="M5.44671 2.6662L5.49204 2.55154C5.64941 2.18026 5.91533 1.86523 6.25492 1.64777C6.59451 1.43031 6.9919 1.32058 7.39496 1.33298C7.79802 1.34538 8.18791 1.47933 8.51349 1.71725C8.83907 1.95517 9.08513 2.28596 9.21937 2.6662H11.3334C11.8638 2.6662 12.3725 2.87692 12.7476 3.25199C13.1227 3.62706 13.3334 4.13577 13.3334 4.6662V6.77954C14.11 7.05487 14.6667 7.79554 14.6667 8.6662C14.6667 9.5282 14.12 10.2682 13.3334 10.5482V12.6662C13.3334 13.1966 13.1227 13.7053 12.7476 14.0804C12.3725 14.4555 11.8638 14.6662 11.3334 14.6662H9.33337C9.17008 14.6662 9.01248 14.6062 8.89046 14.4977C8.76844 14.3892 8.69048 14.2397 8.67137 14.0775L8.66337 13.9002C8.63897 13.5551 8.4814 13.2331 8.22396 13.002C7.96652 12.7709 7.62936 12.649 7.28367 12.6619C6.93798 12.6748 6.61084 12.8215 6.37132 13.0711C6.13181 13.3207 5.99868 13.6536 6.00004 13.9995C6.00004 14.1763 5.9298 14.3459 5.80478 14.4709C5.67975 14.596 5.51019 14.6662 5.33337 14.6662H3.33337C2.80294 14.6662 2.29423 14.4555 1.91916 14.0804C1.54409 13.7053 1.33337 13.1966 1.33337 12.6662V10.6662C1.3334 10.5029 1.39334 10.3453 1.50185 10.2233C1.61036 10.1013 1.75987 10.0233 1.92204 10.0042L2.09937 9.9962C2.44444 9.9718 2.76651 9.81423 2.99757 9.55679C3.22864 9.29935 3.3506 8.96218 3.33771 8.6165C3.32481 8.27081 3.17807 7.94367 2.92848 7.70415C2.67888 7.46464 2.34597 7.3315 2.00004 7.33287C1.82323 7.33287 1.65366 7.26263 1.52864 7.13761C1.40361 7.01258 1.33337 6.84301 1.33337 6.6662V4.6662C1.33337 4.13577 1.54409 3.62706 1.91916 3.25199C2.29423 2.87692 2.80294 2.6662 3.33337 2.6662H5.44671ZM11.3334 13.3329C11.5102 13.3329 11.6798 13.2626 11.8048 13.1376C11.9298 13.0126 12 12.843 12 12.6662V9.99954C11.9999 9.82692 12.0668 9.66098 12.1865 9.53664C12.3062 9.4123 12.4695 9.33926 12.642 9.33287L12.7174 9.33087C12.8824 9.31799 13.0367 9.24418 13.1503 9.12381C13.2639 9.00343 13.3287 8.84511 13.332 8.67962C13.3353 8.51414 13.277 8.35333 13.1683 8.22849C13.0596 8.10365 12.9084 8.02371 12.744 8.0042L12.5887 7.99487C12.4265 7.97576 12.277 7.89781 12.1685 7.77578C12.06 7.65376 12.0001 7.49616 12 7.33287V4.6662C12 4.48939 11.9298 4.31982 11.8048 4.1948C11.6798 4.06977 11.5102 3.99954 11.3334 3.99954H8.66671C8.50342 3.99951 8.34582 3.93956 8.22379 3.83106C8.10177 3.72255 8.02381 3.57304 8.00471 3.41087L7.99537 3.25487C7.9761 3.09284 7.89807 2.9435 7.77606 2.83514C7.65406 2.72679 7.49655 2.66694 7.33337 2.66694C7.1702 2.66694 7.01269 2.72679 6.89068 2.83514C6.76868 2.9435 6.69065 3.09284 6.67137 3.25487L6.66204 3.41087C6.64294 3.57304 6.56498 3.72255 6.44296 3.83106C6.32093 3.93956 6.16333 3.99951 6.00004 3.99954H3.33337C3.15656 3.99954 2.98699 4.06977 2.86197 4.1948C2.73695 4.31982 2.66671 4.48939 2.66671 4.6662V6.08354C3.23887 6.23183 3.74559 6.56592 4.10733 7.03336C4.46906 7.5008 4.66534 8.07514 4.66534 8.6662C4.66534 9.25727 4.46906 9.8316 4.10733 10.299C3.74559 10.7665 3.23887 11.1006 2.66671 11.2489V12.6662C2.66671 12.843 2.73695 13.0126 2.86197 13.1376C2.98699 13.2626 3.15656 13.3329 3.33337 13.3329H4.75071C4.89611 12.7715 5.22043 12.2729 5.67456 11.9123C6.1287 11.5518 6.68792 11.349 7.26759 11.3347C7.84727 11.3204 8.41582 11.4953 8.8872 11.833C9.35857 12.1707 9.70711 12.6527 9.88004 13.2062L9.91604 13.3329H11.3334Z" fill="white"/>
</svg>
