<svg width="16" height="16" viewBox="0 0 16 16" fill="none" xmlns="http://www.w3.org/2000/svg">
<g clip-path="url(#clip0_6909_10762)">
<path d="M5.32273 2.17047C5.45678 2.11749 5.59963 2.09034 5.74377 2.09046L9.97886 2.09262C10.1644 2.09274 10.3471 2.13803 10.5112 2.22459C10.6754 2.31114 10.8159 2.43636 10.9208 2.58941C11.0257 2.74246 11.0918 2.91874 11.1133 3.10304C11.1348 3.28733 11.1111 3.47409 11.0442 3.64717L10.6264 4.72925L10.6281 7.54475L12.066 9.20571C12.2093 9.37134 12.302 9.57469 12.3331 9.79153C12.3642 10.0084 12.3323 10.2296 12.2412 10.4288C12.1501 10.628 12.0037 10.7968 11.8194 10.9152C11.6351 11.0336 11.4206 11.0965 11.2016 11.0964L8.46768 11.0951L8.47845 15.7623L7.3355 15.7647L7.32472 11.0948L4.49683 11.0937C4.27809 11.0936 4.06397 11.0308 3.8799 10.9126C3.69583 10.7944 3.54955 10.6259 3.45842 10.427C3.36729 10.2282 3.33514 10.0073 3.36579 9.79075C3.39644 9.57417 3.4886 9.37093 3.63133 9.20517L5.10589 7.49249L5.10427 4.7271L4.68001 3.65364C4.6248 3.51405 4.59764 3.36496 4.60006 3.21487C4.60249 3.06479 4.63446 2.91665 4.69414 2.77892C4.75383 2.64119 4.84006 2.51656 4.94791 2.41216C5.05577 2.30776 5.18313 2.22564 5.32273 2.17047ZM5.74296 3.23342L6.24696 4.5089L6.24965 7.91648L4.49683 9.95107L11.2018 9.95349L9.48537 7.9709L9.48322 4.51644L9.97806 3.23503L5.74296 3.23342Z" fill="white"/>
</g>
<defs>
<clipPath id="clip0_6909_10762">
<rect width="16" height="16" fill="white"/>
</clipPath>
</defs>
</svg>
