<svg width="30" height="30" viewBox="0 0 30 30" fill="none" xmlns="http://www.w3.org/2000/svg">
<path d="M23.3125 10H21.0625C20.9133 10 20.7703 9.92098 20.6648 9.78033C20.5593 9.63968 20.5 9.44891 20.5 9.25C20.5 9.05109 20.5593 8.86032 20.6648 8.71967C20.7703 8.57902 20.9133 8.5 21.0625 8.5H23.3125C23.4617 8.5 23.6048 8.57902 23.7103 8.71967C23.8158 8.86032 23.875 9.05109 23.875 9.25C23.875 9.44891 23.8158 9.63968 23.7103 9.78033C23.6048 9.92098 23.4617 10 23.3125 10ZM17.6875 10H7.56249C7.41331 10 7.27024 9.92098 7.16475 9.78033C7.05926 9.63968 7 9.44891 7 9.25C7 9.05109 7.05926 8.86032 7.16475 8.71967C7.27024 8.57902 7.41331 8.5 7.56249 8.5H17.6875C17.8367 8.5 17.9798 8.57902 18.0852 8.71967C18.1907 8.86032 18.25 9.05109 18.25 9.25C18.25 9.44891 18.1907 9.63968 18.0852 9.78033C17.9798 9.92098 17.8367 10 17.6875 10Z" fill="black"/>
<path d="M19.375 11.5C18.93 11.5 18.495 11.368 18.1249 11.1208C17.7549 10.8735 17.4666 10.5221 17.2963 10.111C17.126 9.69988 17.0814 9.24748 17.1682 8.81103C17.2551 8.37457 17.4694 7.97366 17.784 7.659C18.0987 7.34433 18.4996 7.13005 18.9361 7.04323C19.3725 6.95642 19.8249 7.00098 20.236 7.17127C20.6472 7.34157 20.9986 7.62996 21.2458 7.99997C21.493 8.36998 21.625 8.80499 21.625 9.24999C21.625 9.54547 21.5668 9.83805 21.4537 10.111C21.3406 10.384 21.1749 10.6321 20.966 10.841C20.757 11.0499 20.509 11.2157 20.236 11.3287C19.963 11.4418 19.6704 11.5 19.375 11.5ZM19.375 8.12498C19.1525 8.12498 18.935 8.19097 18.7499 8.31458C18.5649 8.4382 18.4207 8.6139 18.3356 8.81947C18.2504 9.02504 18.2282 9.25124 18.2716 9.46947C18.315 9.6877 18.4221 9.88816 18.5795 10.0455C18.7368 10.2028 18.9373 10.31 19.1555 10.3534C19.3737 10.3968 19.5999 10.3745 19.8055 10.2894C20.0111 10.2042 20.1868 10.06 20.3104 9.87502C20.434 9.69001 20.5 9.4725 20.5 9.24999C20.5 9.10226 20.4709 8.95596 20.4143 8.81947C20.3578 8.68298 20.2749 8.55896 20.1705 8.45449C20.066 8.35003 19.942 8.26716 19.8055 8.21062C19.669 8.15408 19.5227 8.12498 19.375 8.12498Z" fill="black"/>
<path d="M23.3125 21H21.0625C20.9133 21 20.7703 20.921 20.6648 20.7803C20.5593 20.6397 20.5 20.4489 20.5 20.25C20.5 20.0511 20.5593 19.8603 20.6648 19.7197C20.7703 19.579 20.9133 19.5 21.0625 19.5H23.3125C23.4617 19.5 23.6048 19.579 23.7103 19.7197C23.8158 19.8603 23.875 20.0511 23.875 20.25C23.875 20.4489 23.8158 20.6397 23.7103 20.7803C23.6048 20.921 23.4617 21 23.3125 21ZM17.6875 21H7.56249C7.41331 21 7.27024 20.921 7.16475 20.7803C7.05926 20.6397 7 20.4489 7 20.25C7 20.0511 7.05926 19.8603 7.16475 19.7197C7.27024 19.579 7.41331 19.5 7.56249 19.5H17.6875C17.8367 19.5 17.9798 19.579 18.0852 19.7197C18.1907 19.8603 18.25 20.0511 18.25 20.25C18.25 20.4489 18.1907 20.6397 18.0852 20.7803C17.9798 20.921 17.8367 21 17.6875 21Z" fill="black"/>
<path d="M19.375 22.5C18.93 22.5 18.495 22.368 18.1249 22.1208C17.7549 21.8735 17.4666 21.5221 17.2963 21.111C17.126 20.6999 17.0814 20.2475 17.1682 19.811C17.2551 19.3746 17.4694 18.9737 17.784 18.659C18.0987 18.3443 18.4996 18.13 18.9361 18.0432C19.3725 17.9564 19.8249 18.001 20.236 18.1713C20.6472 18.3416 20.9986 18.63 21.2458 19C21.493 19.37 21.625 19.805 21.625 20.25C21.625 20.5455 21.5668 20.8381 21.4537 21.111C21.3406 21.384 21.1749 21.6321 20.966 21.841C20.757 22.0499 20.509 22.2157 20.236 22.3287C19.963 22.4418 19.6704 22.5 19.375 22.5ZM19.375 19.125C19.1525 19.125 18.935 19.191 18.7499 19.3146C18.5649 19.4382 18.4207 19.6139 18.3356 19.8195C18.2504 20.025 18.2282 20.2512 18.2716 20.4695C18.315 20.6877 18.4221 20.8882 18.5795 21.0455C18.7368 21.2028 18.9373 21.31 19.1555 21.3534C19.3737 21.3968 19.5999 21.3745 19.8055 21.2894C20.0111 21.2042 20.1868 21.06 20.3104 20.875C20.434 20.69 20.5 20.4725 20.5 20.25C20.5 20.1023 20.4709 19.956 20.4143 19.8195C20.3578 19.683 20.2749 19.559 20.1705 19.4545C20.066 19.35 19.942 19.2672 19.8055 19.2106C19.669 19.1541 19.5227 19.125 19.375 19.125Z" fill="black"/>
<path d="M7.56248 14H9.8125C9.96168 14 10.1047 14.079 10.2102 14.2197C10.3157 14.3603 10.375 14.5511 10.375 14.75C10.375 14.9489 10.3157 15.1397 10.2102 15.2803C10.1047 15.421 9.96168 15.5 9.8125 15.5H7.56248C7.4133 15.5 7.27022 15.421 7.16473 15.2803C7.05925 15.1397 6.99998 14.9489 6.99998 14.75C6.99998 14.5511 7.05925 14.3603 7.16473 14.2197C7.27022 14.079 7.4133 14 7.56248 14ZM13.1875 14H23.3125C23.4617 14 23.6048 14.079 23.7102 14.2197C23.8157 14.3603 23.875 14.5511 23.875 14.75C23.875 14.9489 23.8157 15.1397 23.7102 15.2803C23.6048 15.421 23.4617 15.5 23.3125 15.5H13.1875C13.0383 15.5 12.8952 15.421 12.7898 15.2803C12.6843 15.1397 12.625 14.9489 12.625 14.75C12.625 14.5511 12.6843 14.3603 12.7898 14.2197C12.8952 14.079 13.0383 14 13.1875 14Z" fill="black"/>
<path d="M11.5 12.5C11.945 12.5 12.38 12.632 12.7501 12.8792C13.1201 13.1265 13.4084 13.4779 13.5787 13.889C13.749 14.3001 13.7936 14.7525 13.7068 15.189C13.6199 15.6254 13.4056 16.0263 13.091 16.341C12.7763 16.6557 12.3754 16.87 11.9389 16.9568C11.5025 17.0436 11.0501 16.999 10.639 16.8287C10.2278 16.6584 9.87643 16.37 9.6292 16C9.38197 15.63 9.25001 15.195 9.25001 14.75C9.25001 14.4545 9.30821 14.1619 9.42128 13.889C9.53436 13.616 9.70009 13.3679 9.90903 13.159C10.118 12.9501 10.366 12.7843 10.639 12.6713C10.912 12.5582 11.2046 12.5 11.5 12.5ZM11.5 15.875C11.7225 15.875 11.94 15.809 12.1251 15.6854C12.3101 15.5618 12.4543 15.3861 12.5394 15.1805C12.6246 14.975 12.6468 14.7488 12.6034 14.5305C12.56 14.3123 12.4529 14.1118 12.2955 13.9545C12.1382 13.7972 11.9377 13.69 11.7195 13.6466C11.5013 13.6032 11.2751 13.6255 11.0695 13.7106C10.8639 13.7958 10.6882 13.94 10.5646 14.125C10.441 14.31 10.375 14.5275 10.375 14.75C10.375 14.8977 10.4041 15.044 10.4607 15.1805C10.5172 15.317 10.6001 15.441 10.7045 15.5455C10.809 15.65 10.933 15.7328 11.0695 15.7894C11.206 15.8459 11.3523 15.875 11.5 15.875Z" fill="black"/>
</svg>
