<svg width="31" height="29" viewBox="0 0 31 29" fill="none" xmlns="http://www.w3.org/2000/svg">
<path d="M30.3504 3.16938L25.7871 26.7116L25.7664 26.7649C25.7632 26.7732 25.552 27.3017 25.0509 27.7086C24.7207 27.9761 24.2122 28.1361 23.6907 28.1361C23.3239 28.1359 22.9632 28.0591 22.6192 27.9073L22.5597 27.8815L17.5973 24.0471C17.2463 23.7759 16.809 23.6265 16.3664 23.6265C15.8615 23.6265 15.3778 23.815 15.0047 24.1571L12.3194 26.6198L12.2971 26.6372C12.2967 26.6372 11.9693 26.8735 11.5451 26.8735C11.4335 26.8735 11.3221 26.8569 11.2144 26.8239L11.1675 26.8095C11.1675 26.8095 11.1643 26.8091 11.161 26.8086L11.6 21.1009C11.6925 19.8996 12.2242 18.7745 13.0936 17.9406L19.1571 12.1246C19.7311 11.574 19.0315 10.6623 18.3512 11.0742L7.5821 17.5923L1.40801 15.498C1.30353 15.4545 1.06546 15.3459 0.822735 15.1716C0.335215 14.8233 0.0692948 14.4163 0.00881482 13.926C-0.0358252 13.5758 0.0966551 13.2326 0.235695 13.0271C0.414255 12.7633 0.621135 12.61 0.761455 12.5179C1.08161 12.2964 1.38385 12.1763 1.46913 12.1444L1.49778 12.1331C1.91858 11.9545 8.07441 9.34058 14.3328 6.68618L23.3706 2.85242L24.7603 2.26522C26.3632 1.58778 27.4584 1.12506 27.8199 0.977377L27.8858 0.952576C28.1157 0.862656 28.4618 0.741057 28.8106 0.724577C28.8375 0.723297 28.8645 0.722656 28.892 0.722656C29.1903 0.722656 29.4645 0.800256 29.7304 0.959776C30.0221 1.1337 30.2813 1.48746 30.3773 1.84122C30.4776 2.21162 30.4691 2.63386 30.3504 3.16938Z" fill="#594AF1"/>
</svg>
