<svg width="30" height="30" viewBox="0 0 30 30" fill="none" xmlns="http://www.w3.org/2000/svg">
<path d="M27.8413 8.59406C26.2499 5.48057 23.5848 3.0488 20.3389 1.74866C18.7888 1.13573 17.1463 0.788858 15.4807 0.722656L14.5231 0.722656C12.6584 0.793746 10.8243 1.22018 9.1195 1.97906C6.54343 3.13832 4.3624 5.02529 2.8447 7.40786C1.42779 9.64124 0.651361 12.2208 0.600098 14.8653V15.3801C0.655595 18.7806 1.9189 22.0505 4.1641 24.6051C6.00748 26.7123 8.42505 28.2367 11.1211 28.9917C12.2281 29.3067 13.3747 29.4615 14.5231 29.5227H15.4807C16.3555 29.4687 17.2321 29.3805 18.0871 29.1879C20.1818 28.7297 22.1475 27.8089 23.8403 26.4927C25.533 25.1765 26.9099 23.4983 27.8701 21.5811C28.8351 19.6549 29.3579 17.5376 29.4001 15.3837V14.8653C29.3648 12.6834 28.8317 10.5385 27.8413 8.59406ZM27.3067 14.0967H23.3017C23.1799 12.1479 22.8128 10.2223 22.2091 8.36546C22.9903 8.03786 23.7481 7.65446 24.4771 7.21886C26.108 9.16422 27.0964 11.5669 27.3067 14.0967ZM20.5603 21.1113C20.3371 21.0393 20.1121 20.9727 19.8889 20.9079C18.6292 20.5609 17.3372 20.3444 16.0333 20.2617V16.1541H21.2839C21.2374 17.8291 20.9946 19.4928 20.5603 21.1113ZM17.6533 27.1791C17.1192 27.2948 16.578 27.3754 16.0333 27.4203V22.3263C17.3571 22.4159 18.6654 22.6637 19.9303 23.0643C19.3921 24.4917 18.7045 25.8543 17.8765 27.1251C17.8029 27.1462 17.7284 27.1642 17.6533 27.1791ZM12.3919 3.06266C12.9146 2.9505 13.4435 2.86996 13.9759 2.82146V7.68866C12.8983 7.60945 11.8312 7.42436 10.7899 7.13606C10.6945 7.10906 10.5973 7.08206 10.5019 7.05146C10.9915 5.65646 11.6251 4.31906 12.3919 3.06266ZM19.5415 7.12526C19.2337 7.2121 18.9234 7.28954 18.6109 7.35746C17.7617 7.53919 16.9001 7.65712 16.0333 7.71026V2.82506C16.4059 2.85746 16.7767 2.90786 17.1457 2.97266C18.0961 4.25786 18.8989 5.65106 19.5397 7.12526H19.5415ZM10.2355 9.11786C11.4523 9.46526 12.7105 9.66146 13.9759 9.75506V14.0967H9.3013C9.3013 12.3867 9.5065 10.6839 9.9133 9.02606L10.2337 9.11786H10.2355ZM13.9741 16.1541V20.2653C12.9967 20.3373 12.0229 20.4489 11.0689 20.6631C10.84 20.7121 10.6126 20.7673 10.3867 20.8287C9.8827 19.3167 9.5497 17.7489 9.3967 16.1577H13.9741V16.1541ZM11.5081 22.6701C12.3181 22.4865 13.1461 22.3857 13.9741 22.3263V27.3915C12.8357 25.9734 11.883 24.4158 11.1391 22.7565L11.5081 22.6701ZM11.0113 26.8065C9.50622 26.2924 8.11498 25.4917 6.9145 24.4485C7.6363 24.0309 8.3887 23.6727 9.1627 23.3739C9.6847 24.5691 10.3021 25.7175 11.0113 26.8065ZM16.0333 14.0985V9.76946C17.0485 9.69746 18.0601 9.58586 19.0501 9.36446C19.4587 9.27446 19.8637 9.17186 20.2651 9.05486C20.7907 10.6875 21.1165 12.3795 21.2371 14.0949H16.0333V14.0985ZM22.9759 5.70866C22.4909 5.97741 21.9922 6.22074 21.4819 6.43766C21.1172 5.5823 20.7 4.75031 20.2327 3.94646C21.2191 4.40546 22.1407 4.99766 22.9759 5.70866ZM9.5029 4.07426C9.1519 4.81226 8.8387 5.56826 8.5669 6.33866C8.07966 6.12073 7.60329 5.87924 7.1395 5.61506C7.86553 5.01243 8.65856 4.49542 9.5029 4.07426ZM4.5835 8.51126C4.8967 8.01626 5.2459 7.54646 5.6239 7.10366C6.3763 7.56446 7.1593 7.97126 7.9675 8.31866C7.48621 10.2069 7.24371 12.148 7.2457 14.0967H2.7025C2.86892 12.1102 3.51434 10.1937 4.5835 8.51126ZM3.2587 18.9243C2.96931 18.0244 2.7839 17.0943 2.7061 16.1523H7.3357C7.4923 17.9577 7.8613 19.7361 8.4319 21.4515C7.3951 21.8475 6.3979 22.3425 5.4475 22.9275C4.47416 21.7416 3.73174 20.3837 3.2587 18.9243ZM20.9095 25.9641C21.2587 25.2675 21.5701 24.5529 21.8455 23.8221C22.2523 24.0147 22.6519 24.2235 23.0407 24.4467H23.0893C22.4205 25.0299 21.6902 25.5387 20.9113 25.9641H20.9095ZM24.5455 22.9491C23.8831 22.5405 23.1955 22.1751 22.4881 21.8529C23.0055 19.995 23.2908 18.0802 23.3377 16.1523H27.3049C27.0965 18.6455 26.134 21.0162 24.5455 22.9491Z" fill="#594AF1"/>
</svg>
