<svg width="29" height="28" viewBox="0 0 29 28" fill="none" xmlns="http://www.w3.org/2000/svg">
<path d="M13.8139 17.1402L4.86413 27.5119C4.62701 27.7837 4.29421 27.9229 3.95949 27.9229C3.67949 27.9229 3.39837 27.8255 3.17101 27.6271C2.67165 27.1913 2.62013 26.4333 3.05597 25.934L12.2905 15.2361L13.8139 17.1402ZM17.0696 13.4097L26.3041 2.71173C26.74 2.21237 26.6884 1.45445 26.1891 1.01861C25.6899 0.582774 24.9315 0.634294 24.496 1.13365L15.5462 11.5053L17.0696 13.4097Z" fill="#594AF1"/>
<path d="M27.56 27.9227H21.32C20.9554 27.9227 20.6107 27.7569 20.383 27.4723L0.863045 2.67226C0.574885 2.3121 0.518726 1.8185 0.718566 1.40282C0.918406 0.987136 1.33873 0.722656 1.80001 0.722656H8.04001C8.40465 0.722656 8.74929 0.888416 8.97697 1.17306L28.497 25.9731C28.7851 26.3332 28.8413 26.8268 28.6414 27.2425C28.4416 27.6582 28.0213 27.9227 27.56 27.9227ZM21.8968 25.5227H25.0632L7.46321 3.12266H4.29681L21.8968 25.5227Z" fill="#594AF1"/>
</svg>
