<svg width="25" height="24" viewBox="0 0 25 24" fill="none" xmlns="http://www.w3.org/2000/svg">
<path d="M11.7618 14.4005L4.13411 23.2401C3.93202 23.4718 3.64838 23.5904 3.36311 23.5904C3.12447 23.5904 2.88488 23.5074 2.6911 23.3383C2.26551 22.9668 2.2216 22.3209 2.59306 21.8953L10.4635 12.7777L11.7618 14.4005ZM14.5365 11.2211L22.407 2.10345C22.7784 1.67786 22.7345 1.0319 22.3089 0.660441C21.8835 0.288984 21.2371 0.332894 20.8659 0.758487L13.2382 9.59805L14.5365 11.2211Z" fill="#594AF1"/>
<path d="M23.4773 23.5902H18.1591C17.8484 23.5902 17.5546 23.4489 17.3606 23.2063L0.724105 2.06981C0.478512 1.76285 0.430648 1.34216 0.600968 0.987889C0.771287 0.633614 1.12952 0.408203 1.52266 0.408203H6.84087C7.15165 0.408203 7.44538 0.549477 7.63942 0.792069L24.2759 21.9286C24.5215 22.2355 24.5694 22.6562 24.399 23.0105C24.2287 23.3648 23.8705 23.5902 23.4773 23.5902ZM18.6507 21.5447H21.3494L6.34928 2.45367H3.65062L18.6507 21.5447Z" fill="#594AF1"/>
</svg>
