<svg width="30" height="30" viewBox="0 0 30 30" fill="none" xmlns="http://www.w3.org/2000/svg">
<g opacity="0.5">
<path d="M14.9997 8.91699C10.9088 8.91699 7.39067 11.4539 5.99902 15.0541C7.39067 18.6543 10.9087 21.1912 14.9997 21.1912C19.0908 21.1912 22.61 18.6543 24.0004 15.0541C22.61 11.4539 19.0908 8.91699 14.9997 8.91699H14.9997ZM14.9997 19.1451C12.7091 19.1451 10.9088 17.3459 10.9088 15.0541C10.9088 12.7623 12.7091 10.963 14.9997 10.963C17.2916 10.963 19.0908 12.7623 19.0908 15.0541C19.0908 17.3459 17.2916 19.1451 14.9997 19.1451ZM14.9997 12.5993C13.6093 12.5993 12.5449 13.6637 12.5449 15.0541C12.5449 16.4446 13.6093 17.5089 14.9997 17.5089C16.3914 17.5089 17.4546 16.4446 17.4546 15.0541C17.4546 13.6637 16.3914 12.5993 14.9997 12.5993" fill="#868295"/>
<rect x="20.5781" y="8.22852" width="1.92" height="17.5885" transform="rotate(45 20.5781 8.22852)" fill="#868295"/>
</g>
</svg>
