<svg width="30" height="30" viewBox="0 0 30 30" fill="none" xmlns="http://www.w3.org/2000/svg">
<circle cx="15" cy="15.5" r="12" fill="#594AF1"/>
<path d="M14.8859 24.2713C13.5265 24.2713 12.3163 24.0859 11.2552 23.7152C10.1942 23.3487 9.29714 22.8097 8.56419 22.098C7.83123 21.3906 7.27299 20.5256 6.88947 19.5028C6.50595 18.4801 6.31419 17.3168 6.31419 16.0128C6.31419 14.7259 6.50595 13.5582 6.88947 12.5099C7.27726 11.4616 7.84189 10.5625 8.58336 9.8125C9.32484 9.05824 10.2304 8.47869 11.3 8.07386C12.3738 7.66903 13.5969 7.46662 14.969 7.46662C16.2389 7.46662 17.3724 7.65199 18.3696 8.02273C19.371 8.39347 20.219 8.92188 20.9136 9.60795C21.6125 10.2898 22.143 11.1016 22.5052 12.0433C22.8717 12.9808 23.0528 14.0185 23.0486 15.1562C23.0528 15.9403 22.9846 16.6605 22.844 17.3168C22.7034 17.973 22.4818 18.5462 22.1792 19.0362C21.8809 19.522 21.4889 19.9077 21.0031 20.1932C20.5173 20.4744 19.9292 20.6342 19.2389 20.6726C18.7446 20.7109 18.344 20.6747 18.0372 20.5639C17.7304 20.4531 17.496 20.2891 17.3341 20.0717C17.1764 19.8501 17.0741 19.5923 17.0273 19.2983H16.9506C16.8483 19.554 16.648 19.7862 16.3497 19.995C16.0514 20.1996 15.6871 20.3594 15.2567 20.4744C14.8305 20.5852 14.3767 20.6257 13.8952 20.5959C13.3923 20.5661 12.915 20.4489 12.4633 20.2443C12.0159 20.0398 11.6175 19.7436 11.268 19.3558C10.9229 18.968 10.6501 18.4886 10.4498 17.9176C10.2538 17.3466 10.1537 16.6861 10.1494 15.9361C10.1537 15.1946 10.2581 14.549 10.4626 13.9993C10.6714 13.4496 10.9463 12.9872 11.2872 12.6122C11.6324 12.2372 12.0159 11.9432 12.4378 11.7301C12.8596 11.517 13.2836 11.3807 13.7098 11.321C14.1913 11.2486 14.6473 11.2486 15.0777 11.321C15.5081 11.3935 15.8703 11.5107 16.1643 11.6726C16.4626 11.8345 16.648 12.0092 16.7204 12.1967H16.8099V11.4808H18.8106V17.7195C18.8149 18.0135 18.8809 18.2415 19.0088 18.4034C19.1366 18.5653 19.3092 18.6463 19.5265 18.6463C19.8206 18.6463 20.0656 18.5163 20.2616 18.2564C20.4619 17.9964 20.6111 17.598 20.7091 17.0611C20.8113 16.5241 20.8625 15.8402 20.8625 15.0092C20.8625 14.2081 20.7559 13.505 20.5429 12.8999C20.3341 12.2905 20.04 11.7727 19.6608 11.3466C19.2858 10.9162 18.849 10.5668 18.3504 10.2983C17.8518 10.0298 17.3106 9.83381 16.7268 9.71023C16.1473 9.58665 15.5507 9.52486 14.9371 9.52486C13.876 9.52486 12.9491 9.68679 12.1565 10.0107C11.3639 10.3303 10.7034 10.7798 10.175 11.3594C9.64657 11.9389 9.25027 12.6186 8.98606 13.3984C8.72612 14.174 8.59402 15.0199 8.58976 15.9361C8.59402 16.946 8.73464 17.8409 9.01163 18.6207C9.29288 19.3963 9.70623 20.0483 10.2517 20.5767C10.7971 21.1051 11.4704 21.5057 12.2716 21.7784C13.0727 22.0511 13.9932 22.1875 15.0329 22.1875C15.523 22.1875 16.0024 22.1513 16.4711 22.0788C16.9399 22.0107 17.3639 21.9254 17.7432 21.8232C18.1224 21.7251 18.4271 21.6293 18.6572 21.5355L19.29 23.3892C19.0216 23.5426 18.6572 23.6854 18.197 23.8175C17.741 23.9538 17.2254 24.0625 16.6501 24.1435C16.0791 24.2287 15.491 24.2713 14.8859 24.2713ZM14.5919 18.4929C15.1118 18.4929 15.5251 18.3928 15.8319 18.1925C16.143 17.9922 16.3646 17.696 16.4967 17.304C16.6331 16.9077 16.697 16.4197 16.6885 15.8402C16.6842 15.3288 16.6182 14.8963 16.4903 14.5426C16.3667 14.1847 16.1515 13.9141 15.8447 13.7308C15.5422 13.5433 15.1203 13.4496 14.5791 13.4496C14.1061 13.4496 13.7034 13.5497 13.371 13.75C13.0429 13.9503 12.7915 14.2315 12.6167 14.5938C12.4463 14.9517 12.3589 15.3736 12.3547 15.8594C12.3589 16.3111 12.4314 16.7393 12.572 17.1442C12.7126 17.5447 12.9449 17.8707 13.2687 18.1222C13.5926 18.3693 14.0336 18.4929 14.5919 18.4929Z" fill="white"/>
</svg>
