<svg width="30" height="30" viewBox="0 0 30 30" fill="none" xmlns="http://www.w3.org/2000/svg">
<g clip-path="url(#clip0_7289_13601)">
<circle cx="15" cy="15" r="15" fill="black" fill-opacity="0.3"/>
<path d="M15 23.3635C14.6901 23.3728 14.3885 23.2632 14.1569 23.0572C13.9253 22.8511 13.7814 22.5643 13.7546 22.2555L13.6213 21.1581C12.288 20.7781 11.5066 19.7915 11.3053 18.2248L10.1053 8.97948C9.84744 8.93806 9.58644 8.91932 9.32531 8.92348C8.93988 8.92031 8.55585 8.97011 8.18397 9.07148V23.0928H5.82397V11.8221C5.82397 10.2928 6.50931 9.21281 7.76131 8.76348V8.03681C7.76131 7.19681 8.27064 6.63281 9.02931 6.63281C9.78797 6.63281 10.264 7.10481 10.3866 7.96615L10.48 8.63948C11.8466 9.02615 12.656 10.1261 12.888 11.9115L13.996 20.8235C14.6592 20.9515 15.3408 20.9515 16.004 20.8235L17.112 11.9128C17.344 10.1261 18.1533 9.02615 19.52 8.63948L19.6133 7.96615C19.736 7.10881 20.2173 6.63281 20.9706 6.63281C21.724 6.63281 22.2386 7.19681 22.2386 8.03681V8.76348C23.4906 9.21281 24.176 10.2928 24.176 11.8221V23.0928H21.8186V9.07015C21.4467 8.96887 21.0627 8.91908 20.6773 8.92215C20.4162 8.91799 20.1552 8.93672 19.8973 8.97815L18.6973 18.2248C18.5 19.7635 17.7 20.7741 16.3813 21.1581L16.248 22.2581C16.2274 22.5696 16.0848 22.8603 15.8511 23.0673C15.6175 23.2742 15.3116 23.3807 15 23.3635ZM14.052 21.2648L14.172 22.2101C14.1864 22.4165 14.2812 22.6089 14.4361 22.7461C14.5909 22.8832 14.7934 22.9541 15 22.9435C15.1032 22.9509 15.2068 22.9375 15.3048 22.9041C15.4027 22.8708 15.4929 22.8181 15.5701 22.7492C15.6474 22.6803 15.71 22.5967 15.7542 22.5031C15.7985 22.4096 15.8236 22.3082 15.828 22.2048L15.948 21.2581C15.3202 21.3613 14.6798 21.3613 14.052 21.2581V21.2648ZM22.2386 22.6795H23.756V11.8221C23.756 10.5261 23.2333 9.63148 22.2386 9.21415V22.6795ZM6.23864 22.6795H7.76131V9.21415C6.76664 9.63148 6.24397 10.5261 6.24397 11.8221L6.23864 22.6795ZM10.5413 9.09415L11.716 18.1701C11.8853 19.4835 12.504 20.3328 13.5586 20.7035L12.4666 11.9595C12.2706 10.4181 11.6386 9.47681 10.5413 9.09415ZM19.4586 9.09415C18.3613 9.47681 17.7253 10.4181 17.5293 11.9608L16.4426 20.6981C17.496 20.3275 18.116 19.4781 18.284 18.1648L19.4586 9.09415ZM8.18131 8.63015C8.55488 8.53927 8.93818 8.49449 9.32264 8.49681C9.56378 8.49429 9.80481 8.50855 10.044 8.53948L9.97064 8.01548C9.87864 7.37281 9.56264 7.04748 9.02931 7.04748C8.49597 7.04748 8.18131 7.42481 8.18131 8.03148V8.63015ZM20.6773 8.49681C21.0618 8.49449 21.4451 8.53927 21.8186 8.63015V8.03681C21.8186 7.43015 21.4933 7.05281 20.9706 7.05281C20.448 7.05281 20.1213 7.37815 20.0293 8.02081L19.956 8.54481C20.1951 8.51388 20.4362 8.49962 20.6773 8.50215V8.49681Z" fill="white"/>
</g>
<defs>
<clipPath id="clip0_7289_13601">
<rect width="30" height="30" fill="white"/>
</clipPath>
</defs>
</svg>
