<svg width="30" height="30" viewBox="0 0 30 30" fill="none" xmlns="http://www.w3.org/2000/svg">
<g clip-path="url(#clip0_10132_13360)">
<mask id="mask0_10132_13360" style="mask-type:alpha" maskUnits="userSpaceOnUse" x="0" y="0" width="30" height="30">
<circle cx="15" cy="15" r="15" fill="#D9D9D9"/>
</mask>
<g mask="url(#mask0_10132_13360)">
<path d="M33 -3H-3V33H33V-3Z" fill="white"/>
<path d="M33 -3H-3V33H33V-3Z" fill="black" fill-opacity="0.3"/>
<mask id="mask1_10132_13360" style="mask-type:luminance" maskUnits="userSpaceOnUse" x="8" y="9" width="13" height="12">
<path d="M8.79749 9.32642H20.3964V20.5035H8.79749V9.32642Z" fill="white"/>
</mask>
<g mask="url(#mask1_10132_13360)">
<mask id="mask2_10132_13360" style="mask-type:luminance" maskUnits="userSpaceOnUse" x="8" y="9" width="13" height="12">
<path d="M14.8716 9.36963C13.7205 9.40258 13.0156 10.0196 12.7731 10.2126C12.4538 10.4716 10.46 12.1301 10.1293 12.4055C9.94756 12.5873 8.84726 13.4465 8.8187 14.6317C8.79042 15.7938 10.0634 17.2434 10.0634 17.2434C10.0634 17.2434 10.8345 18.2129 11.6495 18.9846C12.6133 19.8053 13.5662 20.5053 14.5467 20.4943C15.527 20.483 16.3426 19.7688 16.6727 19.5189C17.0961 19.2141 18.4918 18.0402 19.1621 17.4913C19.6539 17.0429 20.3849 16.4253 20.3849 15.1715C20.3849 13.8738 19.4321 12.7417 19.3272 12.626C18.7008 11.8921 18.0371 11.1704 17.3226 10.4661C17.3226 10.4661 16.3915 9.39626 14.8716 9.36963ZM14.8084 9.76093C16.2138 9.78564 17.1178 10.8022 17.1178 10.8022C17.7785 11.4535 18.3867 12.1373 18.9661 12.8161C19.0627 12.9229 19.9686 13.9782 19.9686 15.1781C19.9686 16.3377 19.0748 17.1022 18.7837 17.318C18.106 17.8 16.8742 18.8766 16.5167 19.1735C16.3322 19.3152 15.4573 20.0651 14.5509 20.0755C13.43 20.0467 12.7553 19.4736 11.864 18.7144C11.1102 18.001 10.366 17.077 10.366 17.077C10.366 17.077 9.16963 15.7172 9.19545 14.6424C9.22208 13.5465 10.3254 12.7249 10.4935 12.5568C10.7991 12.302 12.6037 10.7879 12.8992 10.5485C13.1232 10.37 13.7438 9.79168 14.8084 9.76093Z" fill="white"/>
</mask>
<g mask="url(#mask2_10132_13360)">
<path d="M8.79041 9.36963V20.5053H20.3849V9.36963H8.79041Z" fill="white"/>
</g>
</g>
<mask id="mask3_10132_13360" style="mask-type:luminance" maskUnits="userSpaceOnUse" x="6" y="7" width="17" height="16">
<path d="M6.19641 7.56909H22.7863V22.4016H6.19641V7.56909Z" fill="white"/>
</mask>
<g mask="url(#mask3_10132_13360)">
<mask id="mask4_10132_13360" style="mask-type:luminance" maskUnits="userSpaceOnUse" x="6" y="7" width="17" height="16">
<path d="M16.0329 7.62231C14.3551 7.67531 12.9091 8.58861 12.5115 8.84508C11.9865 9.18915 9.04529 11.259 8.50049 11.6254C8.19349 11.8667 6.72853 12.8218 6.29467 14.7327C5.97724 16.266 7.23076 18.1736 7.23076 18.1736C7.23076 18.1736 8.20118 19.7391 9.20016 20.7501C10.3353 21.8677 11.4038 22.3332 12.9992 22.3658C14.424 22.3433 16.0612 21.5292 16.9382 20.9709C17.8238 20.4599 19.3063 19.4494 20.3858 18.6767C20.9179 18.2997 22.317 17.2095 22.6962 15.3063C23.0919 13.3193 21.6003 11.2744 21.4644 11.0797C21.1607 10.6272 20.2076 9.56699 19.8327 9.20837C19.5757 8.98623 18.2313 7.64538 16.0329 7.62231ZM15.9143 8.12372C17.9471 8.14487 18.8404 9.06998 19.1325 9.30778C20.0607 10.1112 20.3361 10.4756 21.1555 11.5883C21.3169 11.7951 22.4323 13.6211 22.1467 15.2041C21.8708 16.7339 20.7944 17.6788 20.0285 18.301C18.7319 19.3472 16.6985 20.5395 16.4788 20.6812C15.3129 21.3993 14.3307 21.8474 13.0132 21.868C11.7075 21.8537 10.7898 21.6395 9.36601 20.232C8.44228 19.297 7.73492 18.0295 7.73492 18.0295C7.73492 18.0295 6.49595 16.1674 6.78949 14.7494C7.0888 13.3034 8.6279 12.0609 8.94286 11.8494C9.44674 11.5108 12.0277 9.68727 12.5131 9.36901C12.8808 9.13176 14.3628 8.1726 15.9143 8.12372Z" fill="white"/>
</mask>
<g mask="url(#mask4_10132_13360)">
<path d="M5.97729 7.62231V22.3658H23.092V7.62231H5.97729Z" fill="white"/>
</g>
</g>
<mask id="mask5_10132_13360" style="mask-type:luminance" maskUnits="userSpaceOnUse" x="3" y="3" width="24" height="24">
<path d="M3 3H26.1978V26.6898H3V3Z" fill="white"/>
</mask>
<g mask="url(#mask5_10132_13360)">
<mask id="mask6_10132_13360" style="mask-type:luminance" maskUnits="userSpaceOnUse" x="3" y="3" width="24" height="24">
<path d="M13.7582 3.19936C11.42 3.80704 10.1859 4.87548 8.95824 6.1993C7.14893 8.12613 5.85861 10.0222 5.21524 10.8699C4.685 11.5907 2.73867 14.33 3.02974 17.3912C3.24694 19.6528 4.86623 21.7169 5.30228 22.1222C5.30228 22.1222 7.51003 24.2138 9.36409 25.433C11.4573 26.7708 13.9386 26.8601 15.7783 26.4781C17.9452 25.9259 19.5925 24.4104 20.8833 23.0539C21.9035 22.0009 22.7868 21.0777 23.9478 19.4809C24.4673 18.742 26.1443 16.6333 26.1965 13.6128C26.2701 9.35302 23.2797 7.0489 23.0018 6.79627C22.0311 5.87061 20.2045 4.65389 19.5178 4.22771C19.0576 3.97179 16.8627 2.54308 13.7582 3.19936ZM13.5931 3.93637C16.3484 3.35148 17.4152 3.99953 18.6534 4.53251C20.316 5.459 21.1697 6.14933 22.8159 7.57887C23.9528 8.63633 25.3664 10.4624 25.4636 13.4203C25.5432 15.8428 24.5091 17.4807 23.7067 18.6651C22.3458 20.6595 20.9934 22.0003 20.4745 22.5566C19.3931 23.6303 18.077 25.0782 15.928 25.7268C14.0835 26.1157 11.9804 26.2815 9.6406 24.8212C7.92604 23.6937 5.75317 21.6516 5.75317 21.6516C4.93515 20.7009 3.83595 19.1225 3.62039 16.8799C3.40072 14.5931 4.48537 12.9796 5.38796 11.6714C5.96268 10.8748 7.74151 8.52677 8.28383 7.89136C9.23036 6.81 10.759 4.63604 13.5931 3.93637Z" fill="white"/>
</mask>
<g mask="url(#mask6_10132_13360)">
<path d="M3 2.98926V26.7142H26.1978V2.98926H3Z" fill="white"/>
</g>
</g>
</g>
</g>
<defs>
<clipPath id="clip0_10132_13360">
<rect width="30" height="30" fill="white"/>
</clipPath>
</defs>
</svg>
