<svg width="27" height="27" viewBox="0 0 27 27" fill="none" xmlns="http://www.w3.org/2000/svg">
<path d="M23.9313 6.82113C23.1506 7.1579 22.301 7.40027 21.4259 7.49467C22.3291 6.95635 23.0154 6.10677 23.3394 5.09647C22.5051 5.59397 21.5611 5.9588 20.5789 6.1476C19.7829 5.29802 18.6527 4.77246 17.4 4.77246C14.9891 4.77246 13.0501 6.72673 13.0501 9.12493C13.0501 9.4617 13.0909 9.79846 13.1573 10.1225C9.54721 9.93368 6.3275 8.20902 4.18699 5.56846C3.8094 6.21648 3.59509 6.95635 3.59509 7.7651C3.59509 9.27545 4.36302 10.6072 5.53406 11.3905C4.8197 11.3624 4.14617 11.1608 3.56703 10.8368V10.8904C3.56703 13.0054 5.06207 14.7581 7.05461 15.1612C6.68978 15.2556 6.29944 15.3092 5.90909 15.3092C5.6259 15.3092 5.35802 15.2811 5.08759 15.2429C5.63866 16.9675 7.24341 18.2202 9.15431 18.261C7.65927 19.4321 5.78663 20.1209 3.75327 20.1209C3.38844 20.1209 3.05167 20.1081 2.70215 20.0673C4.63091 21.3047 6.9194 22.019 9.38392 22.019C17.3847 22.019 21.7627 15.3908 21.7627 9.63773C21.7627 9.44894 21.7627 9.26014 21.7499 9.07135C22.5969 8.45139 23.3394 7.68346 23.9313 6.82113Z" fill="#479AE9"/>
</svg>
