<svg width="20" height="20" viewBox="0 0 20 20" fill="none" xmlns="http://www.w3.org/2000/svg">
<g id="&#230;&#183;&#187;&#229;&#138;&#160; (1) 1" clip-path="url(#clip0_8763_7499)">
<path id="Vector" d="M17.0652 2.92893C15.1898 1.05357 12.6463 0 9.99414 0C7.34198 0 4.79844 1.05357 2.92307 2.92893C1.04771 4.80429 -0.00585937 7.34783 -0.00585938 10C-0.00585937 12.6522 1.04771 15.1957 2.92307 17.0711C4.79844 18.9464 7.34198 20 9.99414 20C12.6463 20 15.1898 18.9464 17.0652 17.0711C18.9406 15.1957 19.9941 12.6522 19.9941 10C19.9941 7.34783 18.9406 4.80429 17.0652 2.92893ZM16.2407 16.1841C14.6005 17.8242 12.3761 18.7456 10.0566 18.7456C7.73713 18.7456 5.51266 17.8242 3.87254 16.1841C2.23243 14.5439 1.31102 12.3195 1.31102 10C1.31102 7.68052 2.23243 5.45605 3.87254 3.81594C5.51266 2.17582 7.73713 1.25442 10.0566 1.25442C12.3761 1.25442 14.6005 2.17582 16.2407 3.81594C17.8808 5.45605 18.8022 7.68052 18.8022 10C18.8022 12.3195 17.8808 14.5439 16.2407 16.1841Z" fill="black" fill-opacity="0.8"/>
<path id="Vector_2" d="M14.9921 9.37613H10.6196V5.00356C10.6196 4.83789 10.5538 4.67901 10.4366 4.56186C10.3195 4.44472 10.1606 4.37891 9.99492 4.37891C9.82925 4.37891 9.67037 4.44472 9.55322 4.56186C9.43608 4.67901 9.37027 4.83789 9.37027 5.00356V9.37613H4.9977C4.83203 9.37613 4.67315 9.44194 4.556 9.55908C4.43886 9.67623 4.37305 9.83511 4.37305 10.0008C4.37305 10.1664 4.43886 10.3253 4.556 10.4425C4.67315 10.5596 4.83203 10.6254 4.9977 10.6254H9.37027V14.998C9.37027 15.1637 9.43608 15.3226 9.55322 15.4397C9.67037 15.5568 9.82925 15.6227 9.99492 15.6227C10.1606 15.6227 10.3195 15.5568 10.4366 15.4397C10.5538 15.3226 10.6196 15.1637 10.6196 14.998V10.6254H14.9921C15.1578 10.6254 15.3167 10.5596 15.4338 10.4425C15.551 10.3253 15.6168 10.1664 15.6168 10.0008C15.6168 9.83511 15.551 9.67623 15.4338 9.55908C15.3167 9.44194 15.1578 9.37613 14.9921 9.37613Z" fill="black" fill-opacity="0.8"/>
</g>
<defs>
<clipPath id="clip0_8763_7499">
<rect width="20" height="20" fill="white"/>
</clipPath>
</defs>
</svg>
