<svg width="25" height="24" viewBox="0 0 25 24" fill="none" xmlns="http://www.w3.org/2000/svg">
<path d="M24.4242 3.12398L20.8271 21.6816L20.8108 21.7236C20.8083 21.7301 20.6418 22.1467 20.2468 22.4674C19.9865 22.6783 19.5857 22.8044 19.1746 22.8044C18.8854 22.8043 18.6011 22.7438 18.33 22.6241L18.2831 22.6038L14.3714 19.5812C14.0947 19.3675 13.75 19.2497 13.4011 19.2497C13.0031 19.2497 12.6218 19.3982 12.3277 19.6679L10.211 21.6092L10.1934 21.6229C10.193 21.6229 9.935 21.8092 9.60065 21.8092C9.51262 21.8092 9.42484 21.7961 9.33996 21.7701L9.303 21.7587C9.303 21.7587 9.30048 21.7584 9.29783 21.758L9.64391 17.2588C9.71681 16.3119 10.1359 15.425 10.8213 14.7676L15.6009 10.1831C16.0533 9.74908 15.5019 9.03044 14.9657 9.35508L6.47672 14.4931L1.60989 12.8422C1.52753 12.8079 1.33986 12.7223 1.14854 12.585C0.764239 12.3104 0.554623 11.9895 0.506948 11.6031C0.47176 11.327 0.57619 11.0565 0.685791 10.8945C0.826544 10.6866 0.98962 10.5657 1.10023 10.4931C1.3526 10.3185 1.59085 10.2238 1.65807 10.1987L1.68065 10.1898C2.01235 10.049 6.8648 7.98854 11.7981 5.89616L18.9223 2.87413L20.0178 2.41126C21.2813 1.87726 22.1446 1.51251 22.4295 1.3961L22.4814 1.37655C22.6627 1.30567 22.9355 1.20982 23.2104 1.19683C23.2316 1.19582 23.2529 1.19531 23.2746 1.19531C23.5097 1.19531 23.7259 1.25648 23.9355 1.38223C24.1654 1.51932 24.3698 1.79818 24.4454 2.07704C24.5245 2.36901 24.5178 2.70185 24.4242 3.12398Z" fill="#594AF1"/>
</svg>
