<svg width="17" height="17" viewBox="0 0 17 17" fill="none" xmlns="http://www.w3.org/2000/svg">
<path fill-rule="evenodd" clip-rule="evenodd" d="M6.81827 2.90918C5.98984 2.90918 5.31827 3.58075 5.31827 4.40918V4.54049H6.31827V4.40918C6.31827 4.13304 6.54213 3.90918 6.81827 3.90918H11.6061C11.8823 3.90918 12.1061 4.13304 12.1061 4.40918V9.19706C12.1061 9.4732 11.8823 9.69706 11.6061 9.69706H11.4748V10.6971H11.6061C12.4346 10.6971 13.1061 10.0255 13.1061 9.19706V4.40918C13.1061 3.58075 12.4346 2.90918 11.6061 2.90918H6.81827ZM3.90918 6.34857H9.66676V12.1061H3.90918V6.34857ZM2.90918 6.34857C2.90918 5.79629 3.35689 5.34857 3.90918 5.34857H9.66675C10.219 5.34857 10.6668 5.79629 10.6668 6.34857V12.1061C10.6668 12.6584 10.219 13.1061 9.66676 13.1061H3.90918C3.3569 13.1061 2.90918 12.6584 2.90918 12.1061V6.34857Z" fill="white" fill-opacity="0.5"/>
</svg>
