<svg width="30" height="30" viewBox="0 0 30 30" fill="none" xmlns="http://www.w3.org/2000/svg">
<path d="M7 15C7 17.1217 7.84285 19.1566 9.34315 20.6569C10.8434 22.1571 12.8783 23 15 23C17.1217 23 19.1566 22.1571 20.6569 20.6569C22.1571 19.1566 23 17.1217 23 15C23 12.8783 22.1571 10.8434 20.6569 9.34315C19.1566 7.84285 17.1217 7 15 7C12.8783 7 10.8434 7.84285 9.34315 9.34315C7.84285 10.8434 7 12.8783 7 15Z" fill="black" fill-opacity="0.7"/>
<path d="M14.2383 14.2383H15.7621V18.4288H14.2383V14.2383Z" fill="white"/>
<path d="M14.0479 12.1428C14.0479 12.3954 14.1482 12.6376 14.3268 12.8162C14.5054 12.9949 14.7476 13.0952 15.0002 13.0952C15.2528 13.0952 15.4951 12.9949 15.6737 12.8162C15.8523 12.6376 15.9526 12.3954 15.9526 12.1428C15.9526 11.8902 15.8523 11.648 15.6737 11.4694C15.4951 11.2908 15.2528 11.1904 15.0002 11.1904C14.7476 11.1904 14.5054 11.2908 14.3268 11.4694C14.1482 11.648 14.0479 11.8902 14.0479 12.1428Z" fill="white"/>
</svg>
