<svg width="25" height="24" viewBox="0 0 25 24" fill="none" xmlns="http://www.w3.org/2000/svg">
<g clip-path="url(#clip0_2480_6931)">
<path d="M12.1309 0C8.94826 0 5.89601 1.26428 3.64558 3.51472C1.39514 5.76516 0.130859 8.8174 0.130859 12C0.130859 15.1826 1.39514 18.2348 3.64558 20.4853C5.89601 22.7357 8.94826 24 12.1309 24C15.3135 24 18.3657 22.7357 20.6161 20.4853C22.8666 18.2348 24.1309 15.1826 24.1309 12C24.1309 8.8174 22.8666 5.76516 20.6161 3.51472C18.3657 1.26428 15.3135 0 12.1309 0V0ZM1.61086 12.9067H4.95753C5.01086 14.12 5.18019 15.3253 5.46419 16.5067H2.58419C2.04713 15.3745 1.71747 14.1552 1.61086 12.9067ZM13.0375 5.70667V1.58667C14.3224 2.07497 15.3783 3.02616 15.9975 4.25333C16.2709 4.716 16.5122 5.19733 16.7175 5.69333L13.0375 5.70667ZM17.3309 7.50667C17.6402 8.684 17.8242 9.89067 17.8775 11.1067H13.0375V7.50667H17.3309ZM11.2242 1.58667V5.70667H7.54419C7.74988 5.21026 7.99048 4.72906 8.26419 4.26667C8.88082 3.03447 9.93698 2.07821 11.2242 1.58667ZM11.2242 7.50667V11.1067H6.39753C6.45086 9.89067 6.63486 8.684 6.94419 7.50667H11.2242ZM4.95753 11.0933H1.61086C1.71747 9.84479 2.04713 8.62549 2.58419 7.49333H5.46419C5.17965 8.67419 5.00997 9.87981 4.95753 11.0933ZM6.39753 12.9067H11.2242V16.5067H6.94419C6.63491 15.3294 6.45166 14.1226 6.39753 12.9067ZM11.2375 18.24V22.36C9.95262 21.8717 8.89679 20.9205 8.27753 19.6933C8.00381 19.2309 7.76321 18.7497 7.55753 18.2533L11.2375 18.24ZM13.0375 22.36V18.3067H16.7175C16.5118 18.8031 16.2712 19.2843 15.9975 19.7467C15.3783 20.9738 14.3224 21.925 13.0375 22.4133V22.36ZM13.0375 16.44V12.84H17.8642C17.8101 14.056 17.6268 15.2628 17.3175 16.44H13.0375ZM19.3175 12.84H22.6642C22.5576 14.0885 22.2279 15.3078 21.6909 16.44H18.7975C19.0775 15.28 19.2469 14.0973 19.3042 12.9067L19.3175 12.84ZM19.3175 11.04C19.2565 9.84841 19.0824 8.66532 18.7975 7.50667H21.6775C22.2149 8.64 22.5442 9.85867 22.6509 11.1067L19.3175 11.04ZM20.6509 5.70667H18.2642C17.8324 4.49373 17.2064 3.35897 16.4109 2.34667C18.07 3.09144 19.5112 4.24807 20.5975 5.70667H20.6509ZM7.85086 2.34667C7.05529 3.35897 6.42936 4.49373 5.99753 5.70667H3.66419C4.75049 4.24807 6.19168 3.09144 7.85086 2.34667ZM3.65086 18.3467H5.99753C6.42936 19.5596 7.05529 20.6944 7.85086 21.7067C6.18709 20.9507 4.74545 19.7799 3.66419 18.3067L3.65086 18.3467ZM16.3975 21.7067C17.1931 20.6944 17.819 19.5596 18.2509 18.3467H20.5975C19.5046 19.7857 18.064 20.9235 16.4109 21.6533L16.3975 21.7067Z" fill="#479AE9"/>
</g>
<defs>
<clipPath id="clip0_2480_6931">
<rect width="24" height="24" fill="white" transform="translate(0.130859)"/>
</clipPath>
</defs>
</svg>
