<svg width="100" height="100" viewBox="0 0 100 100" fill="none" xmlns="http://www.w3.org/2000/svg">
<g id="zeko" opacity="0.5">
<g id="Group 2883">
<g id="Clip path group">
<mask id="mask0_8431_2952" style="mask-type:luminance" maskUnits="userSpaceOnUse" x="29" y="31" width="39" height="38">
<g id="932f1a0aab">
<path id="Vector" d="M29.3242 31.0879H67.9871V68.3449H29.3242V31.0879Z" fill="white"/>
</g>
</mask>
<g mask="url(#mask0_8431_2952)">
<g id="Group">
<g id="Clip path group_2">
<mask id="mask1_8431_2952" style="mask-type:luminance" maskUnits="userSpaceOnUse" x="29" y="31" width="39" height="38">
<g id="c51ce544b2">
<path id="Vector_2" d="M49.5714 31.2324C45.7344 31.3423 43.3848 33.399 42.5766 34.0424C41.512 34.9056 34.8659 40.4341 33.7639 41.3521C33.158 41.9581 29.4903 44.8221 29.3951 48.7726C29.3008 52.6462 33.5442 57.4782 33.5442 57.4782C33.5442 57.4782 36.1144 60.7102 38.8311 63.2822C42.0438 66.0181 45.22 68.3512 48.4886 68.3146C51.7563 68.2771 54.4747 65.8963 55.575 65.0634C56.9864 64.0474 61.6389 60.1344 63.8732 58.3047C65.5125 56.81 67.9491 54.7515 67.9491 50.5721C67.9491 46.2463 64.773 42.4725 64.4233 42.0871C62.3355 39.6405 60.1232 37.2351 57.7415 34.8873C57.7415 34.8873 54.6377 31.3212 49.5714 31.2324ZM49.3609 32.5367C54.0455 32.6191 57.0587 36.0076 57.0587 36.0076C59.2609 38.1788 61.2884 40.4579 63.2197 42.7205C63.5419 43.0766 66.5615 46.5942 66.5615 50.5941C66.5615 54.4595 63.5821 57.0077 62.6119 57.7271C60.3529 59.3335 56.2468 62.9225 55.0551 63.9119C54.44 64.3842 51.5238 66.884 48.5023 66.9187C44.766 66.8226 42.5171 64.9124 39.546 62.3815C37.0334 60.0035 34.5529 56.9235 34.5529 56.9235C34.5529 56.9235 30.5649 52.3909 30.6509 48.8083C30.7397 45.1553 34.4174 42.4167 34.9776 41.8565C35.9964 41.0071 42.0118 35.96 42.9967 35.1619C43.7436 34.5669 45.8122 32.6393 49.3609 32.5367Z" fill="white"/>
</g>
</mask>
<g mask="url(#mask1_8431_2952)">
<g id="Group_2">
<path id="Vector_3" d="M29.3008 31.2324V68.3512H67.9491V31.2324H29.3008Z" fill="url(#paint0_linear_8431_2952)"/>
</g>
</g>
</g>
</g>
</g>
</g>
<g id="Clip path group_3">
<mask id="mask2_8431_2952" style="mask-type:luminance" maskUnits="userSpaceOnUse" x="20" y="25" width="56" height="50">
<g id="745597b5a2">
<path id="Vector_4" d="M20.6543 25.2305H75.954V74.6721H20.6543V25.2305Z" fill="white"/>
</g>
</mask>
<g mask="url(#mask2_8431_2952)">
<g id="Group_3">
<g id="Clip path group_4">
<mask id="mask3_8431_2952" style="mask-type:luminance" maskUnits="userSpaceOnUse" x="20" y="25" width="56" height="50">
<g id="072ff7ced9">
<path id="Vector_5" d="M53.443 25.4082C47.8504 25.5849 43.0304 28.6292 41.705 29.4841C39.9549 30.631 30.151 37.5306 28.335 38.7517C27.3116 39.5562 22.4284 42.7397 20.9822 49.1094C19.9241 54.2205 24.1025 60.5792 24.1025 60.5792C24.1025 60.5792 27.3373 65.7974 30.6672 69.1676C34.4511 72.8929 38.0126 74.4444 43.3306 74.5533C48.0802 74.4783 53.5373 71.7644 56.4608 69.9035C59.4127 68.2001 64.3545 64.8318 67.9526 62.2561C69.7264 60.9993 74.39 57.3655 75.654 51.0215C76.973 44.3983 72.001 37.5819 71.5479 36.9329C70.5356 35.4245 67.3585 31.8905 66.1091 30.6951C65.2524 29.9546 60.771 25.4851 53.443 25.4082ZM53.0476 27.0796C59.8237 27.15 62.8012 30.2337 63.7751 31.0264C66.8688 33.7046 67.7869 34.9192 70.5182 38.6281C71.0564 39.3173 74.7744 45.4042 73.8225 50.681C72.9026 55.7802 69.3146 58.9298 66.7617 61.0039C62.4396 64.4913 55.6617 68.4656 54.9295 68.9379C51.043 71.3314 47.7689 72.8252 43.3773 72.8939C39.0249 72.8463 35.966 72.1323 31.22 67.4404C28.1409 64.3238 25.7831 60.0987 25.7831 60.0987C25.7831 60.0987 21.6532 53.8919 22.6316 49.1652C23.6293 44.3452 28.7597 40.2034 29.8095 39.4986C31.4891 38.37 40.0922 32.2914 41.7105 31.2305C42.9361 30.4397 47.876 27.2425 53.0476 27.0796Z" fill="white"/>
</g>
</mask>
<g mask="url(#mask3_8431_2952)">
<g id="Group_4">
<path id="Vector_6" d="M19.9238 25.4082V74.5533H76.9727V25.4082H19.9238Z" fill="url(#paint1_linear_8431_2952)"/>
</g>
</g>
</g>
</g>
</g>
</g>
<g id="Clip path group_5">
<mask id="mask4_8431_2952" style="mask-type:luminance" maskUnits="userSpaceOnUse" x="10" y="10" width="78" height="79">
<g id="5740f32752">
<path id="Vector_7" d="M10 10H87.3258V88.9661H10V10Z" fill="white"/>
</g>
</mask>
<g mask="url(#mask4_8431_2952)">
<g id="Group_5">
<g id="Clip path group_6">
<mask id="mask5_8431_2952" style="mask-type:luminance" maskUnits="userSpaceOnUse" x="10" y="10" width="78" height="79">
<g id="748b53a43e">
<path id="Vector_8" d="M45.8607 10.665C38.0668 12.6906 33.9533 16.2521 29.861 20.6648C23.8299 27.0876 19.5289 33.4079 17.3843 36.2334C15.6168 38.6361 9.12906 47.7673 10.0993 57.9713C10.8233 65.5098 16.2209 72.3902 17.6744 73.7412C17.6744 73.7412 25.0336 80.7132 31.2138 84.7772C38.1912 89.2366 46.462 89.5341 52.5946 88.2609C59.8174 86.4202 65.3084 81.3685 69.6113 76.8469C73.0117 73.3367 75.9562 70.2594 79.8262 64.9368C81.558 62.4737 87.1478 55.445 87.3217 45.3765C87.567 31.1772 77.5992 23.4968 76.6729 22.6547C73.4373 19.5692 67.3486 15.5134 65.0594 14.0929C63.5253 13.2398 56.2092 8.47741 45.8607 10.665ZM45.3106 13.1217C54.4948 11.1721 58.0508 13.3322 62.178 15.1089C67.7202 18.1971 70.5659 20.4982 76.0533 25.2634C79.8427 28.7883 84.5547 34.8751 84.8787 44.7349C85.1442 52.8098 81.6971 58.2696 79.0225 62.2174C74.4862 68.8653 69.9783 73.3348 68.2484 75.1893C64.6439 78.7681 60.2567 83.5946 53.0935 85.7566C46.9453 87.0527 39.9349 87.6055 32.1355 82.7379C26.4203 78.9796 19.1774 72.1724 19.1774 72.1724C16.4507 69.0036 12.7867 63.7423 12.0681 56.2669C11.3359 48.6442 14.9514 43.2658 17.96 38.9052C19.8758 36.2499 25.8052 28.423 27.6129 26.305C30.768 22.7005 35.8636 15.4539 45.3106 13.1217Z" fill="white"/>
</g>
</mask>
<g mask="url(#mask5_8431_2952)">
<g id="Group_6">
<path id="Vector_9" d="M10 9.96484V89.0481H87.3258V9.96484H10Z" fill="url(#paint2_linear_8431_2952)"/>
</g>
</g>
</g>
</g>
</g>
</g>
</g>
</g>
<defs>
<linearGradient id="paint0_linear_8431_2952" x1="48.6249" y1="31.2324" x2="48.6249" y2="68.3512" gradientUnits="userSpaceOnUse">
<stop stop-color="white"/>
<stop offset="1" stop-color="#999999" stop-opacity="0"/>
</linearGradient>
<linearGradient id="paint1_linear_8431_2952" x1="48.4483" y1="25.4082" x2="48.4483" y2="74.5533" gradientUnits="userSpaceOnUse">
<stop stop-color="white"/>
<stop offset="1" stop-color="#999999" stop-opacity="0"/>
</linearGradient>
<linearGradient id="paint2_linear_8431_2952" x1="48.6629" y1="9.96484" x2="48.6629" y2="89.0481" gradientUnits="userSpaceOnUse">
<stop stop-color="white"/>
<stop offset="1" stop-color="#999999" stop-opacity="0"/>
</linearGradient>
</defs>
</svg>
