<svg width="72" height="72" viewBox="0 0 72 72" fill="none" xmlns="http://www.w3.org/2000/svg">
<rect width="72" height="72" rx="21.6" fill="url(#paint0_linear_1446_10037)"/>
<mask id="mask0_1446_10037" style="mask-type:alpha" maskUnits="userSpaceOnUse" x="0" y="0" width="72" height="72">
<path d="M0 36C0 22.5415 0 15.8123 2.89385 10.8C4.78965 7.51639 7.51639 4.78965 10.8 2.89385C15.8123 0 22.5415 0 36 0C49.4585 0 56.1877 0 61.2 2.89385C64.4836 4.78965 67.2104 7.51639 69.1061 10.8C72 15.8123 72 22.5415 72 36C72 49.4585 72 56.1877 69.1061 61.2C67.2104 64.4836 64.4836 67.2104 61.2 69.1061C56.1877 72 49.4585 72 36 72C22.5415 72 15.8123 72 10.8 69.1061C7.51639 67.2104 4.78965 64.4836 2.89385 61.2C0 56.1877 0 49.4585 0 36Z" fill="#87B9F8"/>
</mask>
<g mask="url(#mask0_1446_10037)">
<g filter="url(#filter0_f_1446_10037)">
<circle cx="71.6399" cy="8.28054" r="27.72" fill="#FF7870"/>
</g>
<path d="M-10.4395 54.7195L25.5605 19.4395L50.0406 23.0395L52.5606 53.2795L22.3205 85.3195L1.08055 76.6795L-10.4395 54.7195Z" fill="url(#paint1_linear_1446_10037)" fill-opacity="0.8"/>
<path d="M35.8043 16.0715C39.0529 16.0715 41.8868 16.7109 44.306 17.9896C46.7252 19.2683 48.5915 21.1691 49.9048 23.692C51.2526 26.1803 51.9265 29.2043 51.9265 32.764V52.8779H45.1873V43.5467H26.3176V52.8779H19.682V32.764C19.682 29.2043 20.3387 26.1803 21.652 23.692C22.9998 21.1691 24.8833 19.2683 27.3025 17.9896C29.7217 16.7109 32.5556 16.0715 35.8043 16.0715ZM45.1873 37.8962V32.1419C45.1873 28.7896 44.3579 26.2667 42.699 24.5733C41.0401 22.8453 38.7246 21.9813 35.7524 21.9813C32.7803 21.9813 30.4648 22.8453 28.8059 24.5733C27.147 26.2667 26.3176 28.7896 26.3176 32.1419V37.8962H45.1873Z" fill="#D7D7D7"/>
<path d="M36.525 16.0715C39.7736 16.0715 42.6075 16.7109 45.0267 17.9896C47.4459 19.2683 49.3122 21.1691 50.6255 23.692C51.9733 26.1803 52.6472 29.2043 52.6472 32.764V52.8779H45.908V43.5467H27.0383V52.8779H20.4027V32.764C20.4027 29.2043 21.0594 26.1803 22.3727 23.692C23.7205 21.1691 25.604 19.2683 28.0232 17.9896C30.4424 16.7109 33.2763 16.0715 36.525 16.0715ZM45.908 37.8962V32.1419C45.908 28.7896 45.0786 26.2667 43.4197 24.5733C41.7608 22.8453 39.4453 21.9813 36.4731 21.9813C33.501 21.9813 31.1855 22.8453 29.5266 24.5733C27.8677 26.2667 27.0383 28.7896 27.0383 32.1419V37.8962H45.908Z" fill="white"/>
</g>
<defs>
<filter id="filter0_f_1446_10037" x="7.91992" y="-55.4395" width="127.44" height="127.44" filterUnits="userSpaceOnUse" color-interpolation-filters="sRGB">
<feFlood flood-opacity="0" result="BackgroundImageFix"/>
<feBlend mode="normal" in="SourceGraphic" in2="BackgroundImageFix" result="shape"/>
<feGaussianBlur stdDeviation="18" result="effect1_foregroundBlur_1446_10037"/>
</filter>
<linearGradient id="paint0_linear_1446_10037" x1="53.28" y1="-32.4" x2="56.7615" y2="86.9093" gradientUnits="userSpaceOnUse">
<stop stop-color="#CA5C89"/>
<stop offset="0.463031" stop-color="#4F55EC"/>
<stop offset="1" stop-color="#3531FF"/>
</linearGradient>
<linearGradient id="paint1_linear_1446_10037" x1="44.2806" y1="30.2395" x2="2.16054" y2="68.0394" gradientUnits="userSpaceOnUse">
<stop stop-color="#2821A7" stop-opacity="0.63"/>
<stop offset="1" stop-color="#2821A7" stop-opacity="0"/>
</linearGradient>
</defs>
</svg>
