<svg width="30" height="30" viewBox="0 0 30 30" fill="none" xmlns="http://www.w3.org/2000/svg">
<path d="M16.9286 11H12C11.4477 11 11 11.4477 11 12V21C11 21.5523 11.4477 22 12 22H21C21.5523 22 22 21.5523 22 21V16.0714" stroke="black" stroke-width="1.5"/>
<path d="M17 11.75V8C17 7.44772 16.5523 7 16 7L7 7C6.44772 7 6 7.44771 6 8L6 17C6 17.5523 6.44772 18 7 18H11.5" stroke="black" stroke-width="1.5"/>
<path d="M19 9H24V14" stroke="black" stroke-width="1.5"/>
<path d="M24 9L14 19" stroke="black" stroke-width="1.5"/>
</svg>
