<svg width="100" height="100" viewBox="0 0 100 100" fill="none" xmlns="http://www.w3.org/2000/svg">
<g clip-path="url(#clip0_781_9973)">
<path d="M6 74.5716C5.99977 76.0725 7.12892 77.5586 9.32297 78.9453C11.517 80.3319 14.733 81.5918 18.7873 82.6531C22.8416 83.7144 27.6548 84.5563 32.952 85.1307C38.2493 85.705 43.9269 86.0007 49.6607 86.0007C55.3944 86.0007 61.072 85.705 66.3693 85.1307C71.6665 84.5563 76.4797 83.7144 80.534 82.6531C84.5883 81.5918 87.8043 80.3319 89.9984 78.9453C92.1924 77.5586 93.3216 76.0725 93.3213 74.5716C93.3216 73.0708 92.1924 71.5846 89.9984 70.1979C87.8043 68.8113 84.5883 67.5514 80.534 66.4901C76.4797 65.4288 71.6665 64.5869 66.3693 64.0126C61.072 63.4382 55.3944 63.1426 49.6607 63.1426C43.9269 63.1426 38.2493 63.4382 32.952 64.0126C27.6548 64.5869 22.8416 65.4288 18.7873 66.4901C14.733 67.5514 11.517 68.8113 9.32297 70.1979C7.12892 71.5846 5.99977 73.0708 6 74.5716H6Z" fill="#F0F0F0"/>
<path d="M30.6104 32.2861H68.7101C69.0934 32.2862 69.4705 32.3815 69.8072 32.5636C70.144 32.7456 70.4296 33.0085 70.6381 33.3284L81.4613 49.9341C81.7023 50.3037 81.8308 50.7347 81.8313 51.1753V74.5719C81.8313 74.872 81.7718 75.1692 81.6564 75.4466C81.5409 75.7239 81.3716 75.9758 81.1582 76.1881C80.9449 76.4003 80.6915 76.5687 80.4127 76.6836C80.1339 76.7984 79.8351 76.8576 79.5334 76.8576H19.7872C19.1777 76.8576 18.5933 76.6168 18.1623 76.1881C17.7314 75.7594 17.4893 75.1781 17.4893 74.5719V51.1776C17.4891 50.7359 17.6176 50.3036 17.8592 49.933L28.6825 33.3284C28.891 33.0085 29.1766 32.7456 29.5133 32.5636C29.85 32.3815 30.2272 32.2862 30.6104 32.2861Z" fill="#F9F9F9"/>
<path d="M30.6107 32.8567C30.3234 32.8568 30.0406 32.9284 29.7882 33.0649C29.5357 33.2015 29.3216 33.3986 29.1653 33.6384L18.3421 50.2441C18.161 50.5215 18.0644 50.8449 18.064 51.1756V74.571C18.064 74.7961 18.1086 75.019 18.1952 75.227C18.2818 75.435 18.4088 75.624 18.5688 75.7832C18.7288 75.9424 18.9188 76.0686 19.1279 76.1548C19.337 76.2409 19.5611 76.2853 19.7875 76.2853H79.5336C79.7599 76.2853 79.984 76.2409 80.1931 76.1548C80.4022 76.0686 80.5922 75.9424 80.7523 75.7832C80.9123 75.624 81.0393 75.435 81.1259 75.227C81.2125 75.019 81.257 74.7961 81.257 74.571V51.1767C81.2574 50.8454 81.1612 50.5211 80.9802 50.243L70.1569 33.6384C70.0004 33.3983 69.7859 33.2009 69.533 33.0644C69.2802 32.9279 68.9969 32.8565 68.7092 32.8567H30.6107ZM30.6107 31.7139H68.7104C69.1893 31.714 69.6607 31.8333 70.0815 32.0608C70.5023 32.2884 70.8592 32.617 71.1197 33.0167L81.943 49.6224C82.2449 50.0852 82.4058 50.625 82.406 51.1767V74.571C82.406 74.9462 82.3317 75.3177 82.1874 75.6644C82.043 76.011 81.8314 76.326 81.5647 76.5913C81.298 76.8566 80.9813 77.0671 80.6328 77.2107C80.2843 77.3542 79.9108 77.4281 79.5336 77.4281H19.7875C19.0256 77.4281 18.295 77.1271 17.7563 76.5913C17.2177 76.0555 16.915 75.3288 16.915 74.571V51.1767C16.915 50.6236 17.0759 50.0842 17.3769 49.6224L28.2002 33.0167C28.4608 32.6168 28.8179 32.2881 29.239 32.0605C29.66 31.833 30.1315 31.7138 30.6107 31.7139Z" fill="#D3D3D3"/>
<path d="M26.6816 56.2854V17.714C26.6816 16.2934 27.71 15.1426 28.9796 15.1426H70.3423C71.6119 15.1426 72.6402 16.2934 72.6402 17.714V56.2854H26.6816Z" fill="white" fill-opacity="0.726"/>
<path d="M27.8306 51.1429H26.6816V48.8571H27.8306V51.1429ZM27.8306 46.5714H26.6816V44.2857H27.8306V46.5714ZM27.8306 42H26.6816V39.7143H27.8306V42ZM27.8306 37.4286H26.6816V35.1429H27.8306V37.4286ZM27.8306 32.8571H26.6816V30.5714H27.8306V32.8571ZM27.8306 28.2857H26.6816V26H27.8306V28.2857ZM27.8306 23.7143H26.6816V21.4286H27.8306V23.7143ZM27.8306 19.1429H26.6816V16.8571H27.8306V19.1429ZM28.6923 15.3714L28.1178 14.3829C28.5543 14.1316 29.0498 13.9995 29.5541 14H30.6329V15.1429H29.5541C29.2461 15.1429 28.952 15.2229 28.6923 15.3714ZM32.932 15.1429V14H35.2299V15.1429H32.932ZM37.5279 15.1429V14H39.8258V15.1429H37.5279ZM42.1237 15.1429V14H44.4217V15.1429H42.1237ZM46.7196 15.1429V14H49.0175V15.1429H46.7196ZM51.3154 15.1429V14H53.6134V15.1429H51.3154ZM55.9113 15.1429V14H58.2092V15.1429H55.9113ZM60.5072 15.1429V14H62.8051V15.1429H60.5072ZM65.103 15.1429V14H67.401V15.1429H65.103ZM69.6989 15.1429V14H70.9168C71.3787 14 71.8245 14.1086 72.2266 14.3143L71.7027 15.3314C71.4596 15.2071 71.1901 15.1425 70.9168 15.1429H69.6977H69.6989ZM72.6379 16.7429L73.7846 16.6686C73.788 16.7257 73.7903 16.7851 73.7903 16.8457V19.0023H72.6414V16.8491L72.6379 16.7429ZM72.6402 21.288H73.7892V23.5737H72.6402V21.288ZM72.6402 25.8594H73.7892V28.1451H72.6402V25.8594ZM72.6402 30.4309H73.7892V32.7166H72.6402V30.4309ZM72.6402 35.0023H73.7892V37.288H72.6402V35.0023ZM72.6402 39.5737H73.7892V41.8594H72.6402V39.5737ZM72.6402 44.1451H73.7892V46.4309H72.6402V44.1451ZM72.6402 48.7166H73.7892V51.0023H72.6402V48.7166Z" fill="#D0D0D0"/>
<path d="M18.6382 50.5713H37.0217C37.6311 50.5713 38.2156 50.8121 38.6465 51.2408C39.0775 51.6694 39.3196 52.2508 39.3196 52.857V53.9999C39.3196 54.6061 39.5617 55.1874 39.9926 55.6161C40.4236 56.0448 41.0081 56.2856 41.6175 56.2856H57.703C58.3125 56.2856 58.897 56.0448 59.3279 55.6161C59.7589 55.1874 60.001 54.6061 60.001 53.9999V52.857C60.001 52.2508 60.2431 51.6694 60.674 51.2408C61.1049 50.8121 61.6894 50.5713 62.2989 50.5713H80.6823C80.987 50.5713 81.2793 50.6917 81.4948 50.906C81.7102 51.1203 81.8313 51.411 81.8313 51.7141V75.7141C81.8313 76.0173 81.7102 76.3079 81.4948 76.5223C81.2793 76.7366 80.987 76.857 80.6823 76.857H18.6382C18.3335 76.857 18.0413 76.7366 17.8258 76.5223C17.6103 76.3079 17.4893 76.0173 17.4893 75.7141V51.7141C17.4893 51.411 17.6103 51.1203 17.8258 50.906C18.0413 50.6917 18.3335 50.5713 18.6382 50.5713Z" fill="white"/>
<path d="M18.6385 51.1429C18.4861 51.1429 18.34 51.2031 18.2323 51.3102C18.1245 51.4174 18.064 51.5627 18.064 51.7143V75.7143C18.064 75.8658 18.1245 76.0112 18.2323 76.1183C18.34 76.2255 18.4861 76.2857 18.6385 76.2857H80.6826C80.8349 76.2857 80.9811 76.2255 81.0888 76.1183C81.1965 76.0112 81.257 75.8658 81.257 75.7143V51.7143C81.257 51.5627 81.1965 51.4174 81.0888 51.3102C80.9811 51.2031 80.8349 51.1429 80.6826 51.1429H62.2991C62.0728 51.1429 61.8487 51.1872 61.6396 51.2733C61.4305 51.3595 61.2405 51.4858 61.0805 51.645C60.9204 51.8041 60.7935 51.9931 60.7069 52.2011C60.6203 52.4091 60.5757 52.632 60.5757 52.8571V54C60.5757 54.7578 60.2731 55.4845 59.7344 56.0203C59.1957 56.5561 58.4651 56.8571 57.7033 56.8571H41.6178C40.856 56.8571 40.1254 56.5561 39.5867 56.0203C39.048 55.4845 38.7454 54.7578 38.7454 54V52.8571C38.7454 52.632 38.7008 52.4091 38.6142 52.2011C38.5276 51.9931 38.4006 51.8041 38.2406 51.645C38.0805 51.4858 37.8905 51.3595 37.6814 51.2733C37.4724 51.1872 37.2482 51.1429 37.0219 51.1429H18.6385ZM18.6385 50H37.0219C37.7837 50 38.5143 50.301 39.053 50.8368C39.5917 51.3727 39.8943 52.0994 39.8943 52.8571V54C39.8943 54.2251 39.9389 54.448 40.0255 54.656C40.1121 54.864 40.2391 55.053 40.3991 55.2122C40.5592 55.3714 40.7491 55.4976 40.9582 55.5838C41.1673 55.6699 41.3915 55.7143 41.6178 55.7143H57.7033C57.9296 55.7143 58.1537 55.6699 58.3628 55.5838C58.5719 55.4976 58.7619 55.3714 58.9219 55.2122C59.082 55.053 59.2089 54.864 59.2955 54.656C59.3821 54.448 59.4267 54.2251 59.4267 54V52.8571C59.4267 52.0994 59.7294 51.3727 60.268 50.8368C60.8067 50.301 61.5373 50 62.2991 50H80.6826C81.1397 50 81.578 50.1806 81.9012 50.5021C82.2244 50.8236 82.406 51.2596 82.406 51.7143V75.7143C82.406 76.1689 82.2244 76.605 81.9012 76.9265C81.578 77.248 81.1397 77.4286 80.6826 77.4286H18.6385C18.4122 77.4286 18.188 77.3842 17.979 77.2981C17.7699 77.2119 17.5799 77.0857 17.4198 76.9265C17.2598 76.7673 17.1328 76.5783 17.0462 76.3703C16.9596 76.1623 16.915 75.9394 16.915 75.7143V51.7143C16.915 51.4892 16.9596 51.2662 17.0462 51.0583C17.1328 50.8503 17.2598 50.6613 17.4198 50.5021C17.5799 50.3429 17.7699 50.2166 17.979 50.1305C18.188 50.0443 18.4122 50 18.6385 50Z" fill="#D3D3D3"/>
</g>
<defs>
<clipPath id="clip0_781_9973">
<rect width="87.3" height="72" fill="white" transform="translate(6 14)"/>
</clipPath>
</defs>
</svg>
