<svg width="11" height="12" viewBox="0 0 11 12" fill="none" xmlns="http://www.w3.org/2000/svg">
<path id="Union" fill-rule="evenodd" clip-rule="evenodd" d="M4.31046 0.902344C3.48203 0.902344 2.81046 1.57392 2.81046 2.40234V2.53366H3.81046V2.40234C3.81046 2.1262 4.03432 1.90234 4.31046 1.90234H9.09834C9.37448 1.90234 9.59834 2.1262 9.59834 2.40234V7.19022C9.59834 7.46636 9.37448 7.69022 9.09834 7.69022H8.96702V8.69022H9.09834C9.92677 8.69022 10.5983 8.01865 10.5983 7.19022V2.40234C10.5983 1.57392 9.92676 0.902344 9.09834 0.902344H4.31046ZM1.40137 4.34174H7.15894V10.0993H1.40137V4.34174ZM0.401367 4.34174C0.401367 3.78945 0.849082 3.34174 1.40137 3.34174H7.15894C7.71123 3.34174 8.15894 3.78945 8.15894 4.34174V10.0993C8.15894 10.6516 7.71123 11.0993 7.15894 11.0993H1.40137C0.849083 11.0993 0.401367 10.6516 0.401367 10.0993V4.34174Z" fill="black"/>
</svg>
