<svg width="30" height="30" viewBox="0 0 30 30" fill="none" xmlns="http://www.w3.org/2000/svg">
<circle cx="15" cy="15" r="8.25" stroke="black" stroke-width="1.5"/>
<path d="M18.25 15C18.25 17.4055 17.8152 19.5471 17.1431 21.0594C16.8066 21.8164 16.4254 22.3826 16.0399 22.7494C15.6584 23.1126 15.3082 23.25 15 23.25C14.6918 23.25 14.3416 23.1126 13.9601 22.7494C13.5746 22.3826 13.1934 21.8164 12.8569 21.0594C12.1848 19.5471 11.75 17.4055 11.75 15C11.75 12.5945 12.1848 10.4529 12.8569 8.94064C13.1934 8.18359 13.5746 7.61737 13.9601 7.25056C14.3416 6.88743 14.6918 6.75 15 6.75C15.3082 6.75 15.6584 6.88743 16.0399 7.25056C16.4254 7.61737 16.8066 8.18359 17.1431 8.94064C17.8152 10.4529 18.25 12.5945 18.25 15Z" stroke="black" stroke-width="1.5"/>
<path d="M7 15C8.41667 15.3333 11.3444 16 15.5 16C19.75 16 22.5833 15.4444 24 15" stroke="black" stroke-width="1.5"/>
</svg>
