<svg width="16" height="16" viewBox="0 0 16 16" fill="none" xmlns="http://www.w3.org/2000/svg">
<g id="ledger_status">
<path id="Vector" d="M12.6665 7.33325V1.99992C12.6665 1.82311 12.5963 1.65354 12.4712 1.52851C12.3462 1.40349 12.1766 1.33325 11.9998 1.33325H3.99984C3.82303 1.33325 3.65346 1.40349 3.52843 1.52851C3.40341 1.65354 3.33317 1.82311 3.33317 1.99992V7.33325C3.15636 7.33325 2.98679 7.40349 2.86177 7.52851C2.73674 7.65354 2.6665 7.82311 2.6665 7.99992V11.5599C2.66623 11.9102 2.73497 12.2571 2.86881 12.5809C3.00264 12.9046 3.19895 13.1988 3.4465 13.4466L3.8865 13.8866C4.13434 14.1341 4.42852 14.3304 4.75224 14.4643C5.07596 14.5981 5.42288 14.6669 5.77317 14.6666H10.2265C10.5768 14.6669 10.9237 14.5981 11.2474 14.4643C11.5712 14.3304 11.8653 14.1341 12.1132 13.8866L12.5532 13.4466C12.8007 13.1988 12.997 12.9046 13.1309 12.5809C13.2647 12.2571 13.3334 11.9102 13.3332 11.5599V7.99992C13.3332 7.82311 13.2629 7.65354 13.1379 7.52851C13.0129 7.40349 12.8433 7.33325 12.6665 7.33325ZM4.6665 2.66659H11.3332V7.33325H4.6665V2.66659ZM6.99984 3.99992H6.33317C6.24477 3.99992 6.15998 4.03504 6.09747 4.09755C6.03496 4.16006 5.99984 4.24485 5.99984 4.33325V4.99992C5.99984 5.08832 6.03496 5.17311 6.09747 5.23562C6.15998 5.29813 6.24477 5.33325 6.33317 5.33325H6.99984C7.08824 5.33325 7.17303 5.29813 7.23554 5.23562C7.29805 5.17311 7.33317 5.08832 7.33317 4.99992V4.33325C7.33317 4.24485 7.29805 4.16006 7.23554 4.09755C7.17303 4.03504 7.08824 3.99992 6.99984 3.99992ZM9.6665 3.99992H8.99984C8.91143 3.99992 8.82665 4.03504 8.76414 4.09755C8.70162 4.16006 8.6665 4.24485 8.6665 4.33325V4.99992C8.6665 5.08832 8.70162 5.17311 8.76414 5.23562C8.82665 5.29813 8.91143 5.33325 8.99984 5.33325H9.6665C9.71028 5.33325 9.75362 5.32463 9.79407 5.30788C9.83451 5.29113 9.87125 5.26657 9.90221 5.23562C9.93316 5.20467 9.95771 5.16792 9.97446 5.12748C9.99122 5.08704 9.99984 5.04369 9.99984 4.99992V4.33325C9.99984 4.28948 9.99122 4.24613 9.97446 4.20569C9.95771 4.16525 9.93316 4.1285 9.90221 4.09755C9.87125 4.0666 9.83451 4.04204 9.79407 4.02529C9.75362 4.00854 9.71028 3.99992 9.6665 3.99992Z" fill="#0DB27C"/>
</g>
</svg>
