<svg width="471" height="480" viewBox="0 0 471 480" fill="none" xmlns="http://www.w3.org/2000/svg">
<g clip-path="url(#clip0_33_5)">
<path d="M241.035 128.716C217.663 129.387 203.349 141.914 198.429 145.829C191.943 151.086 151.462 184.752 144.752 190.345C141.062 194.036 118.719 211.475 118.137 235.532C117.567 259.124 143.41 288.549 143.41 288.549C143.41 288.549 159.066 308.234 175.616 323.893C195.186 340.559 214.532 354.763 234.437 354.54C254.342 354.316 270.9 339.816 277.602 334.743C286.202 328.555 314.543 304.727 328.148 293.582C338.134 284.484 352.974 271.947 352.974 246.493C352.974 220.151 333.628 197.168 331.503 194.819C318.78 179.922 305.308 165.275 290.798 150.974C290.798 150.974 271.894 129.259 241.035 128.716ZM239.752 136.662C268.289 137.165 286.639 157.799 286.639 157.799C300.057 171.023 312.403 184.902 324.168 198.678C326.132 200.85 344.525 222.271 344.525 246.63C344.525 270.167 326.378 285.686 320.465 290.066C306.705 299.848 281.697 321.703 274.436 327.733C270.689 330.606 252.928 345.832 234.521 346.039C211.765 345.455 198.066 333.822 179.97 318.411C164.665 303.931 149.556 285.175 149.556 285.175C149.556 285.175 125.263 257.57 125.79 235.754C126.329 213.508 148.729 196.829 152.141 193.416C158.346 188.244 194.989 157.508 200.987 152.646C205.537 149.026 218.14 137.283 239.752 136.662Z" fill="url(#paint0_linear_33_5)"/>
<path d="M264.619 93.249C230.555 94.3236 201.194 112.865 193.124 118.07C182.464 125.058 122.747 167.076 111.683 174.508C105.45 179.408 75.7088 198.793 66.8999 237.584C60.4545 268.714 85.9061 307.438 85.9061 307.438C85.9061 307.438 105.607 339.211 125.887 359.736C148.938 382.424 170.629 391.872 203.024 392.535C231.953 392.078 265.191 375.552 283.001 364.216C300.983 353.847 331.084 333.333 353 317.649C363.801 309.993 392.211 287.864 399.908 249.233C407.946 208.894 377.658 167.387 374.898 163.436C368.733 154.249 349.383 132.727 341.771 125.446C336.553 120.937 309.256 93.7158 264.619 93.249ZM262.211 103.427C303.487 103.859 321.623 122.638 327.553 127.462C346.4 143.773 351.992 151.172 368.625 173.759C371.907 177.953 394.552 215.021 388.752 247.159C383.147 278.212 361.295 297.391 345.744 310.019C319.421 331.261 278.132 355.463 273.674 358.336C250.001 372.913 230.06 382.01 203.309 382.432C176.796 382.142 158.164 377.789 129.256 349.22C110.503 330.24 96.139 304.512 96.139 304.512C96.139 304.512 70.9825 266.713 76.9425 237.927C83.0203 208.572 114.269 183.352 120.664 179.059C130.896 172.186 183.298 135.167 193.156 128.705C200.618 123.892 230.711 104.421 262.211 103.427Z" fill="url(#paint1_linear_33_5)"/>
<path d="M218.426 3.46774C170.956 15.8058 145.901 37.4924 120.971 64.3632C84.2385 103.477 58.0372 141.965 44.9758 159.175C34.2068 173.806 -5.30878 229.416 0.598375 291.553C5.01218 337.462 37.8872 379.364 46.7434 387.589C46.7434 387.589 91.5659 430.049 129.212 454.797C171.715 481.953 222.092 483.767 259.443 476.011C303.438 464.801 336.885 434.038 363.096 406.505C383.809 385.129 401.741 366.388 425.318 333.976C435.862 318.972 469.914 276.168 470.973 214.854C472.466 128.382 411.748 81.609 406.111 76.4846C386.402 57.6912 349.311 32.9917 335.369 24.3437C326.025 19.1484 281.461 -9.85659 218.426 3.46774ZM215.076 18.4281C271.017 6.55425 292.68 19.7094 317.816 30.5294C351.575 49.3367 368.908 63.3492 402.334 92.3705C425.418 113.833 454.116 150.901 456.09 210.946C457.706 260.122 436.711 293.374 420.42 317.411C392.789 357.897 365.329 385.114 354.794 396.407C332.838 418.202 306.115 447.598 262.482 460.76C225.035 468.655 182.33 472.025 134.826 442.379C100.014 419.494 55.8954 378.037 55.8954 378.037C39.29 358.739 16.9691 326.702 12.5949 281.178C8.13427 234.755 30.155 201.999 48.482 175.446C60.1525 159.277 96.2686 111.608 107.279 98.7108C126.496 76.7635 157.537 32.6335 215.076 18.4281Z" fill="url(#paint2_linear_33_5)"/>
</g>
<defs>
<linearGradient id="paint0_linear_33_5" x1="459.912" y1="160.656" x2="10.7549" y2="316.248" gradientUnits="userSpaceOnUse">
<stop offset="0.293375" stop-color="#FFE459"/>
<stop offset="0.570978" stop-color="#DD9B34"/>
<stop offset="0.684543" stop-color="#DB9531"/>
<stop offset="0.905363" stop-color="#A47327"/>
</linearGradient>
<linearGradient id="paint1_linear_33_5" x1="459.912" y1="160.656" x2="10.7549" y2="316.248" gradientUnits="userSpaceOnUse">
<stop offset="0.293375" stop-color="#FFE459"/>
<stop offset="0.570978" stop-color="#DD9B34"/>
<stop offset="0.684543" stop-color="#DB9531"/>
<stop offset="0.905363" stop-color="#A47327"/>
</linearGradient>
<linearGradient id="paint2_linear_33_5" x1="459.912" y1="160.656" x2="10.7547" y2="316.248" gradientUnits="userSpaceOnUse">
<stop offset="0.293375" stop-color="#FFE459"/>
<stop offset="0.570978" stop-color="#DD9B34"/>
<stop offset="0.684543" stop-color="#DB9531"/>
<stop offset="0.905363" stop-color="#A47327"/>
</linearGradient>
<clipPath id="clip0_33_5">
<rect width="471" height="480" fill="white"/>
</clipPath>
</defs>
</svg>
