<svg width="16" height="16" viewBox="0 0 16 16" fill="none" xmlns="http://www.w3.org/2000/svg">
<g id="ledger_status">
<path id="Vector" d="M12.667 7.33398V2.00065C12.667 1.82384 12.5968 1.65427 12.4717 1.52925C12.3467 1.40422 12.1771 1.33398 12.0003 1.33398H4.00033C3.82352 1.33398 3.65395 1.40422 3.52892 1.52925C3.4039 1.65427 3.33366 1.82384 3.33366 2.00065V7.33398C3.15685 7.33398 2.98728 7.40422 2.86225 7.52925C2.73723 7.65427 2.66699 7.82384 2.66699 8.00065V11.5607C2.66672 11.9109 2.73546 12.2579 2.8693 12.5816C3.00313 12.9053 3.19943 13.1995 3.44699 13.4473L3.88699 13.8873C4.13483 14.1349 4.42901 14.3312 4.75273 14.465C5.07645 14.5988 5.42336 14.6676 5.77366 14.6673H10.227C10.5773 14.6676 10.9242 14.5988 11.2479 14.465C11.5716 14.3312 11.8658 14.1349 12.1137 13.8873L12.5537 13.4473C12.8012 13.1995 12.9975 12.9053 13.1314 12.5816C13.2652 12.2579 13.3339 11.9109 13.3337 11.5607V8.00065C13.3337 7.82384 13.2634 7.65427 13.1384 7.52925C13.0134 7.40422 12.8438 7.33398 12.667 7.33398ZM4.66699 2.66732H11.3337V7.33398H4.66699V2.66732ZM7.00033 4.00065H6.33366C6.24525 4.00065 6.16047 4.03577 6.09796 4.09828C6.03544 4.16079 6.00033 4.24558 6.00033 4.33398V5.00065C6.00033 5.08906 6.03544 5.17384 6.09796 5.23635C6.16047 5.29886 6.24525 5.33398 6.33366 5.33398H7.00033C7.08873 5.33398 7.17352 5.29886 7.23603 5.23635C7.29854 5.17384 7.33366 5.08906 7.33366 5.00065V4.33398C7.33366 4.24558 7.29854 4.16079 7.23603 4.09828C7.17352 4.03577 7.08873 4.00065 7.00033 4.00065ZM9.66699 4.00065H9.00033C8.91192 4.00065 8.82714 4.03577 8.76462 4.09828C8.70211 4.16079 8.66699 4.24558 8.66699 4.33398V5.00065C8.66699 5.08906 8.70211 5.17384 8.76462 5.23635C8.82714 5.29886 8.91192 5.33398 9.00033 5.33398H9.66699C9.71077 5.33398 9.75411 5.32536 9.79455 5.30861C9.835 5.29186 9.87174 5.26731 9.90269 5.23635C9.93365 5.2054 9.9582 5.16865 9.97495 5.12821C9.9917 5.08777 10.0003 5.04442 10.0003 5.00065V4.33398C10.0003 4.29021 9.9917 4.24687 9.97495 4.20642C9.9582 4.16598 9.93365 4.12923 9.90269 4.09828C9.87174 4.06733 9.835 4.04278 9.79455 4.02602C9.75411 4.00927 9.71077 4.00065 9.66699 4.00065Z" fill="#D65A5A"/>
</g>
</svg>
