<svg width="25" height="24" viewBox="0 0 25 24" fill="none" xmlns="http://www.w3.org/2000/svg">
<path d="M23.201 6.5595C21.8749 3.96493 19.6539 1.93846 16.949 0.855C15.6572 0.344229 14.2885 0.0551681 12.9005 0L12.1025 0C10.5485 0.0592413 9.02019 0.414602 7.5995 1.047C5.45278 2.01305 3.63525 3.58553 2.3705 5.571C1.18974 7.43216 0.54272 9.58181 0.5 11.7855V12.2145C0.546247 15.0483 1.599 17.7732 3.47 19.902C5.00615 21.6581 7.02079 22.9284 9.2675 23.5575C10.19 23.82 11.1455 23.949 12.1025 24H12.9005C13.6295 23.955 14.36 23.8815 15.0725 23.721C16.8181 23.3392 18.4562 22.5718 19.8668 21.475C21.2774 20.3782 22.4248 18.9797 23.225 17.382C24.0292 15.7769 24.4648 14.0125 24.5 12.2175V11.7855C24.4706 9.96731 24.0263 8.17986 23.201 6.5595ZM22.7555 11.145H19.418C19.3165 9.52105 19.0106 7.91639 18.5075 6.369C19.1585 6.096 19.79 5.7765 20.3975 5.4135C21.7565 7.03464 22.5803 9.03683 22.7555 11.145ZM17.1335 16.9905C16.9475 16.9305 16.76 16.875 16.574 16.821C15.5243 16.5319 14.4476 16.3515 13.361 16.2825V12.8595H17.7365C17.6978 14.2553 17.4954 15.6418 17.1335 16.9905ZM14.711 22.047C14.2659 22.1434 13.8149 22.2106 13.361 22.248V18.003C14.4642 18.0777 15.5544 18.2842 16.6085 18.618C16.16 19.8075 15.587 20.943 14.897 22.002C14.8357 22.0196 14.7736 22.0347 14.711 22.047ZM10.3265 1.95C10.7621 1.85654 11.2029 1.78942 11.6465 1.749V5.805C10.7485 5.739 9.85924 5.58475 8.9915 5.3445C8.912 5.322 8.831 5.2995 8.7515 5.274C9.1595 4.1115 9.6875 2.997 10.3265 1.95ZM16.2845 5.3355C16.028 5.40787 15.7694 5.4724 15.509 5.529C14.8013 5.68045 14.0833 5.77872 13.361 5.823V1.752C13.6715 1.779 13.9805 1.821 14.288 1.875C15.08 2.946 15.749 4.107 16.283 5.3355H16.2845ZM8.5295 6.996C9.5435 7.2855 10.592 7.449 11.6465 7.527V11.145H7.751C7.751 9.72 7.922 8.301 8.261 6.9195L8.528 6.996H8.5295ZM11.645 12.8595V16.2855C10.8305 16.3455 10.019 16.4385 9.224 16.617C9.03328 16.6578 8.84371 16.7039 8.6555 16.755C8.2355 15.495 7.958 14.1885 7.8305 12.8625H11.645V12.8595ZM9.59 18.2895C10.265 18.1365 10.955 18.0525 11.645 18.003V22.224C10.6963 21.0423 9.90242 19.7443 9.2825 18.3615L9.59 18.2895ZM9.176 21.7365C7.92176 21.3082 6.7624 20.6409 5.762 19.7715C6.3635 19.4235 6.9905 19.125 7.6355 18.876C8.0705 19.872 8.585 20.829 9.176 21.7365ZM13.361 11.1465V7.539C14.207 7.479 15.05 7.386 15.875 7.2015C16.2155 7.1265 16.553 7.041 16.8875 6.9435C17.3255 8.304 17.597 9.714 17.6975 11.1435H13.361V11.1465ZM19.1465 4.155C18.7423 4.37896 18.3268 4.58173 17.9015 4.7625C17.5976 4.0497 17.25 3.35638 16.8605 2.6865C17.6825 3.069 18.4505 3.5625 19.1465 4.155ZM7.919 2.793C7.6265 3.408 7.3655 4.038 7.139 4.68C6.73296 4.49839 6.336 4.29715 5.9495 4.077C6.55453 3.57481 7.21538 3.14397 7.919 2.793ZM3.8195 6.4905C4.0805 6.078 4.3715 5.6865 4.6865 5.3175C5.3135 5.7015 5.966 6.0405 6.6395 6.33C6.23842 7.90353 6.03635 9.52116 6.038 11.145H2.252C2.39068 9.48962 2.92854 7.89253 3.8195 6.4905ZM2.7155 15.168C2.47434 14.4181 2.31984 13.6431 2.255 12.858H6.113C6.2435 14.3625 6.551 15.8445 7.0265 17.274C6.1625 17.604 5.3315 18.0165 4.5395 18.504C3.72838 17.5157 3.1097 16.3842 2.7155 15.168ZM17.4245 21.0345C17.7155 20.454 17.975 19.8585 18.2045 19.2495C18.5435 19.41 18.8765 19.584 19.2005 19.77H19.241C18.6836 20.2561 18.0751 20.6801 17.426 21.0345H17.4245ZM20.4545 18.522C19.9025 18.1815 19.3295 17.877 18.74 17.6085C19.1711 16.0603 19.409 14.4646 19.448 12.858H22.754C22.5803 14.9357 21.7783 16.9113 20.4545 18.522Z" fill="#594AF1"/>
</svg>
