<svg width="30" height="30" viewBox="0 0 30 30" fill="none" xmlns="http://www.w3.org/2000/svg">
<circle cx="15" cy="15" r="8.5" stroke="#594AF1"/>
<path fill-rule="evenodd" clip-rule="evenodd" d="M12.8462 15.0002C12.8462 15.51 12.4329 15.9233 11.9231 15.9233C11.4133 15.9233 11 15.51 11 15.0002C11 14.4904 11.4133 14.0771 11.9231 14.0771C12.4329 14.0771 12.8462 14.4904 12.8462 15.0002ZM15.9231 15.0002C15.9231 15.51 15.5098 15.9233 15 15.9233C14.4902 15.9233 14.0769 15.51 14.0769 15.0002C14.0769 14.4904 14.4902 14.0772 15 14.0772C15.5098 14.0772 15.9231 14.4904 15.9231 15.0002ZM18.0769 15.9233C18.5867 15.9233 19 15.51 19 15.0002C19 14.4904 18.5867 14.0772 18.0769 14.0772C17.5671 14.0772 17.1538 14.4904 17.1538 15.0002C17.1538 15.51 17.5671 15.9233 18.0769 15.9233Z" fill="#594AF1"/>
</svg>
