<svg width="31" height="30" viewBox="0 0 31 30" fill="none" xmlns="http://www.w3.org/2000/svg">
<path d="M17.4286 11H12.5C11.9477 11 11.5 11.4477 11.5 12V21C11.5 21.5523 11.9477 22 12.5 22H21.5C22.0523 22 22.5 21.5523 22.5 21V16.0714" stroke="white" stroke-width="1.5"/>
<path d="M17.5 11.75V8C17.5 7.44772 17.0523 7 16.5 7L7.5 7C6.94772 7 6.5 7.44771 6.5 8L6.5 17C6.5 17.5523 6.94772 18 7.5 18H12" stroke="white" stroke-width="1.5"/>
<path d="M19.5 9H24.5V14" stroke="white" stroke-width="1.5"/>
<path d="M24.5 9L14.5 19" stroke="white" stroke-width="1.5"/>
</svg>
