<svg width="30" height="30" viewBox="0 0 30 30" fill="none" xmlns="http://www.w3.org/2000/svg">
<path d="M14.4998 8.16357C10.2383 8.16357 6.57366 10.8062 5.12402 14.5564C6.57366 18.3066 10.2383 20.9492 14.4998 20.9492C18.7613 20.9492 22.4271 18.3066 23.8755 14.5564C22.4271 10.8062 18.7613 8.16357 14.4997 8.16357H14.4998ZM14.4997 18.8179C12.1137 18.8179 10.2383 16.9437 10.2383 14.5564C10.2383 12.1691 12.1137 10.2949 14.4997 10.2949C16.8871 10.2949 18.7613 12.1691 18.7613 14.5564C18.7613 16.9437 16.8871 18.8179 14.4997 18.8179ZM14.4997 11.9993C13.0514 11.9993 11.9427 13.108 11.9427 14.5564C11.9427 16.0048 13.0514 17.1135 14.4997 17.1135C15.9494 17.1135 17.0569 16.0048 17.0569 14.5564C17.0569 13.108 15.9494 11.9993 14.4998 11.9993" fill="#594AF1"/>
</svg>
