<svg width="99" height="82" viewBox="0 0 99 82" fill="none" xmlns="http://www.w3.org/2000/svg">
<path opacity="0.2" d="M49.4587 80.8421L49.4919 80.8404L49.5251 80.8417C50.7837 80.89 52.0023 80.4955 52.9231 79.7601C53.8416 79.0266 54.3855 78.0187 54.4715 76.96L54.4733 76.9373L54.4766 76.9147L55.2039 71.8178C51.4355 72.4652 47.5645 72.4652 43.796 71.8178L44.5234 76.9147L44.5275 76.9433L44.5294 76.9721C44.5982 78.0317 45.1341 79.045 46.0529 79.7798C46.9743 80.5166 48.1989 80.9054 49.4587 80.8421ZM34.9166 65.8101C36.7371 67.7383 39.1226 69.0958 42.0101 69.9023L35.9479 26.1608C35.9477 26.1599 35.9476 26.1589 35.9475 26.158C35.3394 21.9667 34.0111 18.649 31.9484 16.1889C30.092 13.9748 27.604 12.4109 24.402 11.5435L30.9594 56.9433L30.9595 56.9438C31.504 60.7318 32.8793 63.6523 34.9166 65.8101ZM11.4452 10.1397C15.0874 9.28538 18.8862 9.11537 22.6038 9.63968L22.143 6.64366C22.1428 6.64283 22.1427 6.64201 22.1426 6.64118C21.8502 4.82126 21.17 3.57977 20.2505 2.7895C19.3309 1.99918 18.0902 1.58984 16.5429 1.58984C15.0214 1.58984 13.7587 2.07274 12.8805 2.92408C12.0066 3.7712 11.4452 5.0492 11.4452 6.77549L11.4452 10.1397ZM95.6177 16.6648C94.0822 14.6171 91.8819 13.0782 89.0549 12.1284L89.0548 79.5221L98.2137 79.5221L98.25 25.4992C98.25 21.894 97.3218 18.9374 95.6177 16.6648ZM68.0332 56.9433L74.5906 11.5438C71.3922 12.4113 68.9062 13.9749 67.0508 16.1888C64.9889 18.649 63.6606 21.9667 63.0526 26.158C63.0524 26.1589 63.0523 26.1599 63.0521 26.1608L56.9896 69.9041C59.9272 69.0901 62.3157 67.7272 64.1248 65.7972C66.1456 63.6413 67.4916 60.7263 68.0331 56.9442L68.0332 56.9433ZM76.8573 6.6555L76.3923 9.64263C77.8644 9.42468 79.3563 9.32863 80.8491 9.35599C83.1152 9.33206 85.3726 9.59536 87.5549 10.1373L87.5549 10.1294L87.5632 10.1317L87.5916 6.78553C87.5909 5.0504 87.0205 3.77461 86.1386 2.93075C85.2506 2.08096 83.9774 1.60303 82.4571 1.60303C80.9136 1.60303 79.6707 2.0123 78.7491 2.8031C77.8276 3.59372 77.146 4.83535 76.8574 6.65447C76.8574 6.65481 76.8573 6.65515 76.8573 6.6555ZM0.750005 25.5322L0.75 79.5221L9.94514 79.5221L9.94515 12.1613C7.11807 13.1112 4.91781 14.6501 3.38233 16.6978C1.67823 18.9703 0.750006 21.9269 0.750005 25.5322Z" stroke="url(#paint0_linear_8164_2918)" stroke-width="1.5"/>
<defs>
<linearGradient id="paint0_linear_8164_2918" x1="49.5" y1="0.83984" x2="49.5" y2="81.5988" gradientUnits="userSpaceOnUse">
<stop stop-color="white"/>
<stop offset="1" stop-color="white" stop-opacity="0.06"/>
</linearGradient>
</defs>
</svg>
