<svg width="20" height="21" viewBox="0 0 20 21" fill="none" xmlns="http://www.w3.org/2000/svg">
<g id="&#233;&#154;&#144;&#232;&#151;&#143; (2) 1">
<path id="Vector" d="M16.5837 9.16965C17.3329 8.49253 18.018 7.74785 18.6306 6.94504C18.7282 6.81087 18.7686 6.64342 18.7428 6.47951C18.7169 6.3156 18.6271 6.16866 18.4929 6.07101C18.3587 5.97337 18.1913 5.93302 18.0274 5.95884C17.8634 5.98467 17.7165 6.07455 17.6189 6.20871C16.9293 7.10993 16.1434 7.93317 15.2751 8.66379C14.3155 9.5016 13.2107 10.1569 12.0154 10.5974C11.368 10.8272 10.6867 10.9467 9.99972 10.9509C9.31531 10.9452 8.63668 10.8251 7.99191 10.5954C6.79656 10.155 5.69181 9.49965 4.73215 8.66183C3.86472 7.93104 3.0789 7.10854 2.3884 6.20871C2.29075 6.07325 2.1433 5.98213 1.97847 5.95539C1.81365 5.92865 1.64495 5.96849 1.50949 6.06613C1.37403 6.16377 1.28291 6.31123 1.25617 6.47606C1.22944 6.64088 1.26927 6.80958 1.36691 6.94504C1.97935 7.74853 2.66454 8.49387 3.41379 9.1716L1.44894 11.1364C1.33136 11.2551 1.26571 11.4155 1.26644 11.5826C1.26717 11.7496 1.33423 11.9095 1.45285 12.0271C1.57147 12.1447 1.73195 12.2103 1.89897 12.2096C2.066 12.2088 2.22589 12.1418 2.34347 12.0232L4.37472 9.97824C5.18594 10.6233 6.07915 11.1579 7.03097 11.5681L6.30832 14.2614C6.26535 14.4215 6.28771 14.5921 6.37049 14.7357C6.45326 14.8792 6.58968 14.9841 6.74972 15.0271C6.80249 15.0418 6.85706 15.049 6.91183 15.0486C7.04942 15.0489 7.18325 15.0036 7.29242 14.9199C7.4016 14.8361 7.47998 14.7186 7.51535 14.5857L8.21652 11.9704C9.38017 12.2777 10.6037 12.2777 11.7673 11.9704L12.4685 14.5857C12.5044 14.7209 12.5848 14.8402 12.6968 14.9241C12.8088 15.0081 12.9457 15.0519 13.0857 15.0486C13.1404 15.049 13.195 15.0418 13.2478 15.0271C13.4078 14.9841 13.5442 14.8792 13.627 14.7357C13.7098 14.5921 13.7321 14.4215 13.6892 14.2614L12.9665 11.5681C13.919 11.1581 14.8129 10.6235 15.6247 9.97824L17.6657 12.0232C17.7833 12.141 17.9429 12.2073 18.1094 12.2075C18.2759 12.2077 18.4356 12.1417 18.5534 12.0241C18.6713 11.9066 18.7376 11.747 18.7378 11.5805C18.738 11.414 18.672 11.2543 18.5544 11.1364L16.5837 9.16965Z" fill="black" fill-opacity="0.8"/>
</g>
</svg>
