<svg width="30" height="30" viewBox="0 0 30 30" fill="none" xmlns="http://www.w3.org/2000/svg">
<path d="M24.6708 10.2053L24.6677 10.2027C24.2786 9.88224 23.7086 9.95093 23.3929 10.344C21.4186 12.8009 18.3899 14.3766 14.9999 14.3766C11.6099 14.3766 8.58127 12.8009 6.60693 10.344C6.29128 9.95093 5.72128 9.88224 5.33215 10.2027L5.32911 10.2053C4.95346 10.5144 4.88781 11.0718 5.19216 11.4518C6.16631 12.6676 7.35709 13.6925 8.70431 14.4748L7.35214 17.2479C7.24785 17.4617 7.23277 17.7082 7.31023 17.9332C7.38769 18.1581 7.55134 18.3431 7.76519 18.4474C7.97903 18.5517 8.22555 18.5668 8.45051 18.4893C8.67547 18.4119 8.86045 18.2482 8.96475 18.0344L10.316 15.2626C11.525 15.7497 12.8028 16.0443 14.103 16.1357V19.2205C14.103 19.4583 14.1975 19.6865 14.3657 19.8547C14.5339 20.0229 14.762 20.1174 14.9999 20.1174C15.2378 20.1174 15.466 20.0229 15.6342 19.8547C15.8024 19.6865 15.8969 19.4583 15.8969 19.2205V16.1357C17.2273 16.0418 18.4999 15.74 19.6838 15.2626L21.036 18.0344C21.1403 18.2482 21.3254 18.4117 21.5503 18.4891C21.7753 18.5665 22.0218 18.5513 22.2355 18.447C22.4493 18.3426 22.6129 18.1576 22.6903 17.9327C22.7677 17.7077 22.7525 17.4612 22.6482 17.2474L21.296 14.4753C22.6431 13.6929 23.8337 12.6679 24.8077 11.4522C25.1121 11.0718 25.0468 10.5148 24.6708 10.2057V10.2053Z" fill="black" fill-opacity="0.8"/>
</svg>
