<svg width="157" height="43" viewBox="0 0 157 43" fill="none" xmlns="http://www.w3.org/2000/svg">
<path fill-rule="evenodd" clip-rule="evenodd" d="M97.043 10.1166C95.8905 9.59443 94.4274 9.2844 92.8581 9.2844C89.8256 9.2844 87.4225 10.2308 85.8531 12.3194C84.2837 14.3998 83.45 17.3287 83.45 21.1877C83.45 24.8346 84.1775 27.6574 85.8531 29.5339C87.5287 31.5164 89.8256 32.4546 92.9643 32.4546C96.1031 32.4546 98.6124 31.1003 100.288 28.5956L100.811 32.0385H102.168V0H100.182V8.02799C100.182 9.70049 100.182 11.373 100.288 13.1434H100.182C99.2418 11.683 98.1955 10.7448 97.043 10.1166ZM47.2646 1.98252V32.0385H63.6858V30.056H49.3571V1.98252H47.2646ZM66.3995 29.4278C68.2795 31.4103 70.7888 32.4546 74.0338 32.4546C75.2272 32.4628 76.4206 32.3567 77.5894 32.1446C78.6357 31.9325 79.7882 31.5164 81.0388 30.9942V29.0117C79.5756 29.6399 78.3169 29.9499 77.3769 30.1621C76.4369 30.366 75.2844 30.4721 74.0338 30.4721C71.4182 30.4721 69.3257 29.746 67.9689 28.0735C66.5058 26.507 65.7701 24.1084 65.7701 21.0816H81.9787V19.4091C81.9787 16.2763 81.2513 13.7716 79.6819 11.8951C78.1125 10.1166 76.02 9.17834 73.4044 9.17834C70.372 9.17834 68.0669 10.2226 66.2932 12.4173C64.5113 14.5059 63.6776 17.4266 63.6776 20.9756C63.6776 24.6306 64.6258 27.4453 66.3995 29.4278ZM73.4044 11.063C71.2057 11.063 69.5382 11.7972 68.1732 13.1515C66.9226 14.6119 66.0807 16.5944 65.8764 19.3112H79.6819C79.6819 16.7005 79.1588 14.718 78.0063 13.2576C76.96 11.7891 75.3907 11.063 73.4044 11.063ZM92.8581 11.063C90.455 11.063 88.575 11.8951 87.3162 13.6737C86.0656 15.3462 85.4363 17.8509 85.4363 21.1877C85.4363 27.5513 87.9456 30.6842 92.8581 30.6842C95.3674 30.6842 97.2474 29.9499 98.3999 28.4896C99.5524 27.0292 100.174 24.6306 100.174 21.1795V20.8695C100.174 17.4266 99.5442 14.9219 98.3999 13.4616C97.3536 11.7891 95.4737 11.063 92.8581 11.063ZM123.91 11.169V9.70864H123.894V9.60258H116.889C116.055 9.29256 114.903 9.1865 113.44 9.1865C111.028 9.1865 109.148 9.81471 107.685 11.169C106.328 12.5233 105.593 14.3998 105.593 16.5944C105.593 18.0548 105.903 19.4091 106.639 20.5595C107.375 21.7098 108.421 22.542 109.672 23.0642C107.792 24.2145 106.852 25.5688 106.852 27.0292C106.852 27.6737 107.072 28.2938 107.481 28.7996C107.8 29.3136 108.421 29.7378 109.05 30.0478C107.481 30.4639 106.124 31.0921 105.184 32.1364C104.244 33.1807 103.721 34.429 103.721 35.9954C103.721 37.8719 104.448 39.4383 106.018 40.4826C107.587 41.633 109.786 42.1551 112.606 42.1551C116.162 42.1551 118.883 41.5269 120.763 40.2786C122.643 39.0304 123.583 37.2518 123.583 34.8532C123.583 32.8707 122.856 31.4103 121.597 30.4721C120.338 29.5339 118.458 29.0117 116.055 29.0117H112.189C110.93 29.0117 109.99 28.7996 109.467 28.4896C108.944 28.1714 108.633 27.6492 108.633 26.9231C108.633 26.197 108.846 25.6749 109.263 25.0467C109.68 24.5245 110.309 24.0024 111.143 23.5863C111.462 23.6924 112.189 23.6924 113.235 23.6924C115.647 23.6924 117.527 23.0642 118.99 21.7098C120.453 20.3474 121.188 18.683 121.188 16.4884C121.188 14.718 120.559 13.0455 119.308 11.479L123.91 11.169ZM105.715 35.7996C105.715 38.8264 108.012 40.3929 112.614 40.3929C118.467 40.3929 121.401 38.5164 121.401 34.7553C121.401 33.401 120.984 32.4628 120.044 31.8346C119.104 31.2064 117.641 30.8963 115.549 30.8963H111.887C107.808 30.9942 105.715 32.5607 105.715 35.7996ZM109.067 20.6655C108.02 19.6213 107.497 18.3648 107.497 16.5944C107.497 14.8159 107.914 13.3555 108.96 12.4254C109.9 11.3811 111.372 10.859 113.145 10.859C115.025 10.859 116.382 11.3811 117.428 12.3194C118.475 13.2576 118.998 14.718 118.998 16.5944C118.998 18.373 118.581 19.7273 117.535 20.6655C116.595 21.6038 115.132 22.1259 113.252 22.1259C111.47 22.1259 110.113 21.6038 109.067 20.6655Z" fill="#333745"/>
<path fill-rule="evenodd" clip-rule="evenodd" d="M5.22623 1.27747H7.73319V9.03016H0V6.51688C0 3.57789 2.40897 1.27747 5.22623 1.27747ZM27.2662 1.27747H12.3225V21.3837H32.3781V6.50869C32.3863 3.68432 30.0835 1.27747 27.2662 1.27747ZM133.922 32.7958C130.68 32.7958 128.173 31.7479 126.295 29.7586C124.523 27.7692 123.576 24.9449 123.576 21.2773C123.576 17.7161 124.409 14.7853 126.189 12.6896C127.961 10.4874 130.264 9.43948 133.293 9.43948C135.907 9.43948 137.997 10.3809 139.565 12.1656C141.133 14.0485 141.86 16.5618 141.86 19.7055V21.3837H125.773C125.773 24.4209 126.507 26.8278 127.969 28.3996C129.325 30.0779 131.415 30.8065 134.028 30.8065C135.278 30.8065 136.429 30.7 137.368 30.4954C138.307 30.2825 139.565 29.9714 141.027 29.3411V31.3304C139.777 31.8543 138.626 32.2719 137.581 32.4847C136.429 32.6976 135.278 32.7958 133.922 32.7958ZM133.4 11.3306C131.203 11.3306 129.537 12.0674 128.173 13.4263C126.924 14.8917 126.083 16.8811 125.879 19.6072H139.671C139.671 16.9875 139.148 14.9982 137.997 13.5328C136.952 12.0592 135.384 11.3306 133.4 11.3306ZM156.485 9.857C155.44 9.65234 154.394 9.54591 153.455 9.54591C151.994 9.54591 150.744 9.86519 149.487 10.602C148.441 11.2323 147.502 12.3785 146.563 14.0567H146.457L146.245 9.97161H144.473V32.3783H146.563V20.123C146.563 17.6097 147.192 15.6204 148.441 13.9421C149.699 12.3703 151.267 11.5352 153.145 11.5352C154.125 11.5271 155.105 11.6335 156.068 11.8463L156.485 9.857ZM0 13.7374H7.73319V21.4901H0V13.7374ZM27.1601 33.8437H24.6531V26.0992H32.3863V28.6043C32.3863 31.5432 29.9773 33.8437 27.1601 33.8437ZM12.3225 26.0992H20.0557V33.8519H12.3225V26.0992ZM0 28.6125V26.0992H7.73319V33.8519H5.22623C2.29464 33.8519 0 31.4368 0 28.6125Z" fill="#333745"/>
</svg>
