<svg width="335" height="50" viewBox="0 0 335 50" fill="none" xmlns="http://www.w3.org/2000/svg">
<path d="M0.5 4C0.5 2.067 2.067 0.5 4 0.5H331C332.933 0.5 334.5 2.067 334.5 4V46C334.5 47.933 332.933 49.5 331 49.5H4C2.067 49.5 0.5 47.933 0.5 46V4Z" fill="black" fill-opacity="0.05" stroke="#594AF1"/>
<path fill-rule="evenodd" clip-rule="evenodd" d="M72.8073 20.4796C72.0625 20.1452 71.1169 19.9466 70.1027 19.9466C68.1429 19.9466 66.5898 20.5527 65.5755 21.8905C64.5613 23.223 64.0225 25.0989 64.0225 27.5705C64.0225 29.9063 64.4926 31.7143 65.5755 32.9162C66.6585 34.186 68.1429 34.7869 70.1714 34.7869C72.1999 34.7869 73.8216 33.9195 74.9045 32.3153L75.2426 34.5204H76.1195V14H74.8358V19.1419C74.8358 20.2131 74.8358 21.2843 74.9045 22.4182H74.8358C74.2284 21.4829 73.5522 20.8819 72.8073 20.4796ZM40.6367 15.2698V34.5204H51.2494V33.2506H41.9891V15.2698H40.6367ZM53.0032 32.8482C54.2182 34.118 55.84 34.7869 57.9371 34.7869C58.7084 34.7921 59.4796 34.7242 60.235 34.5883C60.9112 34.4524 61.6561 34.1859 62.4643 33.8515V32.5817C61.5187 32.9841 60.7052 33.1827 60.0977 33.3185C59.4902 33.4492 58.7454 33.5171 57.9371 33.5171C56.2467 33.5171 54.8944 33.052 54.0175 31.9808C53.0719 30.9775 52.5965 29.4412 52.5965 27.5026H63.0718V26.4314C63.0718 24.4248 62.6016 22.8206 61.5874 21.6187C60.5731 20.4795 59.2208 19.8786 57.5304 19.8786C55.5706 19.8786 54.0809 20.5475 52.9346 21.9531C51.783 23.2908 51.2441 25.1616 51.2441 27.4346C51.2441 29.7757 51.8569 31.5784 53.0032 32.8482ZM57.5303 21.0858C56.1093 21.0858 55.0316 21.556 54.1494 22.4235C53.3412 23.3588 52.7971 24.6286 52.665 26.3687H61.5873C61.5873 24.6966 61.2492 23.4268 60.5043 22.4914C59.8282 21.5508 58.8139 21.0858 57.5303 21.0858ZM70.1022 21.0858C68.5492 21.0858 67.3342 21.6188 66.5207 22.7579C65.7124 23.8291 65.3057 25.4333 65.3057 27.5706C65.3057 31.6464 66.9274 33.653 70.1022 33.653C71.724 33.653 72.939 33.1827 73.6838 32.2474C74.4286 31.312 74.8301 29.7757 74.8301 27.5653V27.3668C74.8301 25.1616 74.4234 23.5574 73.6838 22.622C73.0076 21.5508 71.7926 21.0858 70.1022 21.0858ZM90.171 21.1537V20.2183H90.1604V20.1504H85.6332C85.0944 19.9518 84.3496 19.8839 83.404 19.8839C81.8456 19.8839 80.6307 20.2862 79.6851 21.1537C78.8082 22.0211 78.3328 23.2229 78.3328 24.6286C78.3328 25.564 78.5335 26.4314 79.0089 27.1682C79.4843 27.905 80.1605 28.438 80.9687 28.7724C79.7538 29.5092 79.1463 30.3766 79.1463 31.312C79.1463 31.7248 79.2889 32.1219 79.553 32.4459C79.759 32.7751 80.1605 33.0468 80.5673 33.2454C79.553 33.5119 78.6761 33.9143 78.0686 34.5831C77.4611 35.252 77.123 36.0515 77.123 37.0548C77.123 38.2566 77.5932 39.2599 78.6074 39.9288C79.6217 40.6656 81.0427 41 82.8652 41C85.1631 41 86.9222 40.5976 88.1372 39.7981C89.3522 38.9986 89.9597 37.8595 89.9597 36.3232C89.9597 35.0534 89.4895 34.1181 88.676 33.5171C87.8625 32.9162 86.6475 32.5818 85.0944 32.5818H82.5958C81.7823 32.5818 81.1748 32.4459 80.8367 32.2473C80.4986 32.0435 80.2979 31.7091 80.2979 31.244C80.2979 30.779 80.4352 30.4445 80.7046 30.0422C80.974 29.7078 81.3808 29.3733 81.9196 29.1068C82.1256 29.1748 82.5958 29.1748 83.2719 29.1748C84.8303 29.1748 86.0453 28.7724 86.9909 27.905C87.9364 27.0323 88.4119 25.9663 88.4119 24.5607C88.4119 23.4267 88.0051 22.3555 87.1969 21.3522L90.171 21.1537ZM78.4121 36.9295C78.4121 38.8681 79.8965 39.8714 82.8706 39.8714C86.6529 39.8714 88.5493 38.6695 88.5493 36.2606C88.5493 35.3932 88.2799 34.7922 87.6724 34.3899C87.0649 33.9875 86.1194 33.789 84.767 33.789H82.4004C79.7644 33.8517 78.4121 34.855 78.4121 36.9295ZM80.5777 27.2362C79.9016 26.5673 79.5635 25.7626 79.5635 24.6287C79.5635 23.4895 79.8329 22.5542 80.5091 21.9584C81.1165 21.2896 82.0674 20.9552 83.2137 20.9552C84.4287 20.9552 85.3056 21.2896 85.9818 21.8905C86.6579 22.4914 86.996 23.4268 86.996 24.6287C86.996 25.7678 86.7266 26.6352 86.0505 27.2362C85.443 27.8371 84.4974 28.1715 83.2824 28.1715C82.1308 28.1715 81.2539 27.8371 80.5777 27.2362Z" fill="#333745"/>
<path fill-rule="evenodd" clip-rule="evenodd" d="M27.7123 14.8182H18.0545V27.6961H31.0161V18.1688C31.0213 16.3598 29.5331 14.8182 27.7123 14.8182ZM96.6417 35.0055C94.5465 35.0055 92.9263 34.3343 91.7125 33.0601C90.5673 31.786 89.9551 29.977 89.9551 27.6279C89.9551 25.347 90.4934 23.4699 91.6439 22.1276C92.7891 20.7171 94.2774 20.0459 96.2353 20.0459C97.9241 20.0459 99.2752 20.6489 100.288 21.792C101.302 22.998 101.771 24.6077 101.771 26.6212V27.6961H91.3747C91.3747 29.6414 91.8497 31.183 92.7944 32.1897C93.6704 33.2646 95.0215 33.7313 96.7103 33.7313C97.5178 33.7313 98.2619 33.6631 98.8688 33.532C99.4757 33.3957 100.288 33.1965 101.233 32.7927V34.0669C100.426 34.4025 99.6815 34.6699 99.006 34.8062C98.2619 34.9425 97.5178 35.0055 96.6417 35.0055ZM96.3039 21.2571C94.8843 21.2571 93.8077 21.7291 92.9263 22.5995C92.1189 23.538 91.5753 24.8122 91.4434 26.5583H100.357C100.357 24.8804 100.019 23.6062 99.2752 22.6676C98.5997 21.7238 97.5864 21.2571 96.3039 21.2571ZM111.224 20.3133C110.549 20.1823 109.873 20.1141 109.266 20.1141C108.322 20.1141 107.514 20.3186 106.701 20.7905C106.026 21.1942 105.419 21.9283 104.812 23.0032H104.743L104.606 20.3868H103.461V34.738H104.812V26.8886C104.812 25.2789 105.218 24.0047 106.026 22.9298C106.839 21.9231 107.852 21.3882 109.066 21.3882C109.699 21.383 110.332 21.4512 110.955 21.5875L111.224 20.3133ZM13.4684 14.8182H15.0886V19.7838H10.0908V18.174C10.0908 16.2917 11.6477 14.8182 13.4684 14.8182ZM10.0908 22.7987H15.0886V27.7642H10.0908V22.7987ZM27.6436 35.6766H26.0234V30.7163H31.0212V32.3208C31.0212 34.2032 29.4644 35.6766 27.6436 35.6766ZM18.0547 30.7163H23.0525V35.6819H18.0547V30.7163ZM10.0908 32.3261V30.7163H15.0886V35.6819H13.4684C11.5738 35.6819 10.0908 34.135 10.0908 32.3261Z" fill="#333745"/>
</svg>
