<svg width="280" height="62" viewBox="0 0 280 62" fill="none"
    xmlns="http://www.w3.org/2000/svg">
    <path d="M8.57143 18.5714H131.424C142.206 18.5714 150.947 27.3125 150.947 38.0952C150.947 48.8779 142.206 57.619 131.424 57.619H8.57144C4.88954 57.619 1.90476 54.6342 1.90476 50.9523V25.238C1.90476 21.5562 4.88953 18.5714 8.57143 18.5714Z" stroke="#594AF1" stroke-width="3.80952"/>
    <rect x="18.6228" y="25.7142" width="89.3348" height="24.7619" rx="1.90476" fill="#594AF1" stroke="#594AF1" stroke-width="3.80952"/>
    <ellipse cx="131.835" cy="38.5713" rx="11.4639" ry="11.4286" fill="#594AF1"/>
    <rect x="24.3608" y="14.7618" width="12.4192" height="3.80952" rx="1.90476" fill="#594AF1"/>
    <rect width="8.58469" height="1.90771" rx="0.953855" transform="matrix(-0.708198 -0.706014 0.708198 -0.706014 22.624 11.9047)" fill="#594AF1"/>
    <rect width="8.58469" height="1.90771" rx="0.953855" transform="matrix(0.708198 -0.706014 0.708198 0.706014 34.3916 10.3466)" fill="#594AF1"/>
    <rect x="28.1821" y="9.5238" width="8.57143" height="1.91065" rx="0.955326" transform="rotate(-90 28.1821 9.5238)" fill="#594AF1"/>
    <rect width="8.58469" height="1.90771" rx="0.953855" transform="matrix(-0.708198 -0.706014 0.708198 -0.706014 80.1172 10.9523)" fill="#594AF1"/>
    <rect width="8.58469" height="1.90771" rx="0.953855" transform="matrix(0.708198 -0.706014 0.708198 0.706014 91.8853 9.39417)" fill="#594AF1"/>
    <rect x="85.6758" y="8.57141" width="8.57143" height="1.91065" rx="0.955326" transform="rotate(-90 85.6758 8.57141)" fill="#594AF1"/>
    <rect x="80.7249" y="14.7618" width="12.4192" height="3.80952" rx="1.90476" fill="#594AF1"/>
    <path d="M51.4921 43.3807H52.6304V37.4711H52.7197L55.0802 43.3807H56.0066L58.3726 37.4711H58.4563V43.3807H59.5947V35.3283H58.155L55.588 41.7513H55.4987L52.9318 35.3283H51.4921V43.3807ZM62.1059 36.2379C62.5188 36.2379 62.8648 35.8975 62.8648 35.4845C62.8648 35.066 62.5188 34.7256 62.1059 34.7256C61.6874 34.7256 61.347 35.066 61.347 35.4845C61.347 35.8975 61.6874 36.2379 62.1059 36.2379ZM61.4976 43.3807H62.703V37.3205H61.4976V43.3807ZM64.4664 43.3807H65.6773V39.826C65.6773 38.8495 66.2298 38.2412 67.1171 38.2412C68.0043 38.2412 68.4229 38.7379 68.4229 39.7423V43.3807H69.6282V39.4577C69.6282 38.0124 68.8804 37.2033 67.5244 37.2033C66.6427 37.2033 66.0624 37.5939 65.7666 38.2412H65.6773V37.3205H64.4664V43.3807ZM72.982 43.4812C73.7856 43.4812 74.4217 43.1352 74.7789 42.5214H74.8737V43.3807H76.0735V39.2345C76.0735 37.9622 75.2142 37.2033 73.6907 37.2033C72.3124 37.2033 71.3581 37.8673 71.213 38.8606L71.2075 38.8997H72.3737L72.3793 38.8774C72.5244 38.4477 72.9653 38.2022 73.6349 38.2022C74.4552 38.2022 74.8737 38.5705 74.8737 39.2345V39.7702L73.2331 39.8651C71.7878 39.9544 70.9731 40.585 70.9731 41.6676V41.6787C70.9731 42.7781 71.8269 43.4812 72.982 43.4812ZM72.1784 41.6285V41.6173C72.1784 41.0705 72.5579 40.7691 73.395 40.7189L74.8737 40.624V41.143C74.8737 41.9243 74.2097 42.5158 73.3057 42.5158C72.6528 42.5158 72.1784 42.1865 72.1784 41.6285Z" fill="white"/>
    <path d="M120.371 55.7141V55.7141C120.371 58.081 122.29 59.9998 124.657 59.9998H269.429C274.162 59.9998 278 56.1623 278 51.4284V23.8093C278 19.0755 274.162 15.2379 269.429 15.2379H125.371C122.61 15.2379 120.371 17.4765 120.371 20.2379V20.2379" stroke="#594AF1" stroke-width="3.80952"/>
</svg>
