<svg width="25" height="25" viewBox="0 0 25 25" fill="none" xmlns="http://www.w3.org/2000/svg">
<g clip-path="url(#clip0_1493_11159)">
<path d="M24.9811 18.7237C24.9032 17.0509 24.1875 15.4714 22.9811 14.31L20.9811 12.31C20.833 12.1547 20.6553 12.0305 20.4585 11.9449C20.2617 11.8593 20.0498 11.8139 19.8351 11.8113C19.6205 11.8088 19.4076 11.8492 19.2088 11.9302C19.01 12.0111 18.8295 12.131 18.6777 12.2828C18.5259 12.4345 18.4061 12.6151 18.3251 12.8139C18.2441 13.0127 18.2037 13.2256 18.2063 13.4402C18.2088 13.6548 18.2542 13.8668 18.3398 14.0636C18.4255 14.2604 18.5496 14.4381 18.7049 14.5862L20.7049 16.5862C21.3331 17.1812 21.7045 17.9979 21.7399 18.8625C21.7615 19.2408 21.7054 19.6196 21.5749 19.9754C21.4444 20.3313 21.2423 20.6565 20.9811 20.9312C20.726 21.18 20.4238 21.3753 20.0921 21.5056C19.7605 21.6359 19.4061 21.6985 19.0499 21.6899C18.1477 21.6434 17.2918 21.2764 16.6361 20.6549L11.6011 15.62C11.0038 15.0856 10.6402 14.3381 10.5885 13.5383C10.5369 12.7386 10.8013 11.9505 11.3249 11.3437C11.4802 11.1956 11.6043 11.0179 11.6899 10.8211C11.7756 10.6243 11.821 10.4123 11.8235 10.1977C11.826 9.98311 11.7856 9.77016 11.7047 9.57139C11.6237 9.37262 11.5038 9.19205 11.3521 9.04028C11.2003 8.88852 11.0197 8.76863 10.821 8.68767C10.6222 8.60671 10.4092 8.56631 10.1946 8.56884C9.98003 8.57137 9.76809 8.61679 9.57128 8.70242C9.37448 8.78804 9.19679 8.91216 9.04865 9.06746C8.49186 9.61586 8.05204 10.2715 7.75576 10.9946C7.45949 11.7178 7.31292 12.4935 7.3249 13.275C7.34851 15.0405 8.06711 16.7257 9.3249 17.965L14.3599 22.9999C15.6021 24.2534 17.2854 24.9713 19.0499 24.9999C20.6253 25.0052 22.1385 24.3853 23.2574 23.2762C23.8593 22.689 24.3254 21.9772 24.6232 21.1908C24.921 20.4043 25.0431 19.5623 24.9811 18.7237Z" fill="#0DB27C"/>
<path d="M6.41898 10.415L5.04398 9.03997L4.35398 8.34997C3.7355 7.76862 3.34422 6.98606 3.25023 6.14247C3.22852 5.76409 3.28465 5.38527 3.41515 5.02944C3.54566 4.67361 3.74777 4.34834 4.00898 4.07372C4.26409 3.82494 4.56635 3.62967 4.898 3.49937C5.22965 3.36907 5.584 3.30638 5.94023 3.31497C6.84948 3.32974 7.71645 3.7015 8.35398 4.34997L13.389 9.38497C13.9863 9.91932 14.3499 10.6668 14.4016 11.4666C14.4532 12.2664 14.1888 13.0545 13.6652 13.6612C13.5099 13.8094 13.3858 13.9871 13.3002 14.1839C13.2145 14.3807 13.1691 14.5926 13.1666 14.8072C13.1641 15.0218 13.2045 15.2348 13.2854 15.4335C13.3664 15.6323 13.4863 15.8129 13.638 15.9646C13.7898 16.1164 13.9704 16.2363 14.1692 16.3173C14.3679 16.3982 14.5809 16.4386 14.7955 16.4361C15.0101 16.4336 15.222 16.3881 15.4188 16.3025C15.6156 16.2169 15.7933 16.0928 15.9415 15.9375C16.4983 15.3891 16.9381 14.7335 17.2344 14.0103C17.5306 13.2871 17.6772 12.5114 17.6652 11.73C17.6416 9.96438 16.923 8.27925 15.6652 7.03997L10.6302 2.00497C9.38802 0.75148 7.70474 0.0336626 5.94023 0.00497667C4.36481 -0.000252904 2.85165 0.619667 1.73273 1.72873C1.15331 2.31769 0.701268 3.01957 0.404723 3.79072C0.108177 4.56187 -0.0265285 5.38578 0.00898431 6.21122C0.0869069 7.88404 0.802598 9.46348 2.00898 10.625L2.69898 11.315L4.00898 12.69C4.3128 12.9881 4.72145 13.1551 5.1471 13.1551C5.57275 13.1551 5.98141 12.9881 6.28523 12.69C6.44879 12.5529 6.58269 12.3838 6.67873 12.1932C6.77477 12.0026 6.83094 11.7945 6.8438 11.5814C6.85667 11.3684 6.82597 11.155 6.75357 10.9542C6.68117 10.7534 6.5686 10.5695 6.42273 10.4137L6.41898 10.415Z" fill="#0DB27C"/>
</g>
<defs>
<clipPath id="clip0_1493_11159">
<rect width="25" height="25" fill="white"/>
</clipPath>
</defs>
</svg>
