<svg width="30" height="30" viewBox="0 0 30 30" fill="none" xmlns="http://www.w3.org/2000/svg">
<g clip-path="url(#clip0_7265_13258)">
<circle cx="15" cy="15" r="15" fill="black" fill-opacity="0.05"/>
<path d="M15.0002 23.3654C14.6904 23.3748 14.3887 23.2652 14.1572 23.0591C13.9256 22.8531 13.7817 22.5662 13.7549 22.2574L13.6216 21.1601C12.2882 20.7801 11.5069 19.7934 11.3056 18.2268L10.1056 8.98143C9.84769 8.94001 9.58669 8.92127 9.32555 8.92543C8.94012 8.92226 8.55609 8.97206 8.18422 9.07343V23.0948H5.82422V11.8241C5.82422 10.2948 6.50955 9.21477 7.76155 8.76543V8.03877C7.76155 7.19877 8.27089 6.63477 9.02955 6.63477C9.78822 6.63477 10.2642 7.10677 10.3869 7.9681L10.4802 8.64143C11.8469 9.0281 12.6562 10.1281 12.8882 11.9134L13.9962 20.8254C14.6594 20.9534 15.341 20.9534 16.0042 20.8254L17.1122 11.9148C17.3442 10.1281 18.1536 9.0281 19.5202 8.64143L19.6136 7.9681C19.7362 7.11077 20.2176 6.63477 20.9709 6.63477C21.7242 6.63477 22.2389 7.19877 22.2389 8.03877V8.76543C23.4909 9.21477 24.1762 10.2948 24.1762 11.8241V23.0948H21.8189V9.0721C21.447 8.97083 21.063 8.92103 20.6776 8.9241C20.4164 8.91994 20.1554 8.93868 19.8976 8.9801L18.6976 18.2268C18.5002 19.7654 17.7002 20.7761 16.3816 21.1601L16.2482 22.2601C16.2276 22.5715 16.085 22.8623 15.8514 23.0692C15.6177 23.2762 15.3119 23.3826 15.0002 23.3654ZM14.0522 21.2668L14.1722 22.2121C14.1866 22.4184 14.2814 22.6109 14.4363 22.748C14.5911 22.8852 14.7936 22.9561 15.0002 22.9454C15.1034 22.9528 15.2071 22.9395 15.305 22.9061C15.4029 22.8727 15.4932 22.82 15.5704 22.7512C15.6476 22.6823 15.7102 22.5986 15.7545 22.5051C15.7988 22.4116 15.8238 22.3101 15.8282 22.2068L15.9482 21.2601C15.3204 21.3632 14.68 21.3632 14.0522 21.2601V21.2668ZM22.2389 22.6814H23.7562V11.8241C23.7562 10.5281 23.2336 9.63343 22.2389 9.2161V22.6814ZM6.23889 22.6814H7.76155V9.2161C6.76689 9.63343 6.24422 10.5281 6.24422 11.8241L6.23889 22.6814ZM10.5416 9.0961L11.7162 18.1721C11.8856 19.4854 12.5042 20.3348 13.5589 20.7054L12.4669 11.9614C12.2709 10.4201 11.6389 9.47877 10.5416 9.0961ZM19.4589 9.0961C18.3616 9.47877 17.7256 10.4201 17.5296 11.9628L16.4429 20.7001C17.4962 20.3294 18.1162 19.4801 18.2842 18.1668L19.4589 9.0961ZM8.18155 8.6321C8.55512 8.54122 8.93842 8.49644 9.32289 8.49877C9.56403 8.49624 9.80505 8.5105 10.0442 8.54143L9.97088 8.01743C9.87888 7.37477 9.56289 7.04943 9.02955 7.04943C8.49622 7.04943 8.18155 7.42677 8.18155 8.03343V8.6321ZM20.6776 8.49877C21.062 8.49644 21.4453 8.54122 21.8189 8.6321V8.03877C21.8189 7.4321 21.4936 7.05477 20.9709 7.05477C20.4482 7.05477 20.1216 7.3801 20.0296 8.02277L19.9562 8.54677C20.1954 8.51583 20.4364 8.50158 20.6776 8.5041V8.49877Z" fill="#808080"/>
</g>
<defs>
<clipPath id="clip0_7265_13258">
<rect width="30" height="30" fill="white"/>
</clipPath>
</defs>
</svg>
