<svg width="30" height="30" viewBox="0 0 30 30" fill="none" xmlns="http://www.w3.org/2000/svg">
<g clip-path="url(#clip0_7265_13221)">
<mask id="mask0_7265_13221" style="mask-type:alpha" maskUnits="userSpaceOnUse" x="0" y="0" width="30" height="30">
<circle cx="15" cy="15" r="15" fill="#D9D9D9"/>
</mask>
<g mask="url(#mask0_7265_13221)">
<path d="M30 0.0283203H0V29.9721H30V0.0283203Z" fill="url(#paint0_linear_7265_13221)"/>
<path d="M14.9062 23.9937C15.5053 24.0279 16.0191 23.5704 16.0538 22.9718L16.2338 21.603C15.3605 21.8055 14.4525 21.8055 13.5792 21.603L13.7531 22.9746C13.7981 23.5709 14.3095 24.0227 14.9062 23.9937ZM22.6875 23.6984H24.832V11.4574C24.832 9.78633 24.0591 8.66414 22.6875 8.24086V23.6984ZM4.98047 23.6984H7.125V8.23336C5.76234 8.65664 4.98047 9.77883 4.98047 11.4499V23.6984ZM16.2338 21.6026C17.6306 21.2529 18.5536 20.2559 18.7777 18.5055L20.1244 8.10633C18.5728 8.47664 17.7248 9.65648 17.4755 11.5737L16.2338 21.6026ZM13.5787 21.6026L12.3384 11.5737C12.0877 9.65648 11.2397 8.47664 9.69422 8.10633L11.0409 18.5055C11.265 20.2516 12.1631 21.2487 13.5848 21.6026M22.6875 8.23664V7.26305C22.6875 6.41508 22.1892 5.93555 21.5152 5.93555C20.8411 5.93555 20.3677 6.33539 20.2439 7.2068L20.1188 8.10492C20.9728 7.93711 21.8545 7.98023 22.688 8.23008M7.125 8.23055C7.60828 8.07492 8.11406 7.99852 8.62219 8.00508C8.98219 7.99758 9.34219 8.03133 9.69422 8.10539L9.57047 7.20727C9.44531 6.33586 8.97188 5.93602 8.29781 5.93602C7.62375 5.93602 7.12547 6.40945 7.12547 7.26352V8.23102L7.125 8.23055Z" fill="white"/>
</g>
</g>
<defs>
<linearGradient id="paint0_linear_7265_13221" x1="15" y1="0.216289" x2="15" y2="30.2163" gradientUnits="userSpaceOnUse">
<stop stop-color="#D9DADF"/>
<stop offset="0.4" stop-color="#CD5826"/>
<stop offset="0.79" stop-color="#7D6DEF"/>
</linearGradient>
<clipPath id="clip0_7265_13221">
<rect width="30" height="30" fill="white"/>
</clipPath>
</defs>
</svg>
