<?xml version="1.0" standalone="no"?><!DOCTYPE svg PUBLIC "-//W3C//DTD SVG 1.1//EN" "http://www.w3.org/Graphics/SVG/1.1/DTD/svg11.dtd"><svg t="1663035045351" class="icon" viewBox="0 0 1024 1024" version="1.1" xmlns="http://www.w3.org/2000/svg" p-id="2788" xmlns:xlink="http://www.w3.org/1999/xlink" width="200" height="200"><path d="M528.896 998.4c-262.656 0-476.672-214.016-476.672-476.672S266.24 45.056 528.896 45.056c163.84 0 314.368 82.432 402.432 221.184 14.336 22.528 7.68 53.248-14.848 67.584a49.3568 49.3568 0 0 1-67.584-14.848 377.2416 377.2416 0 0 0-320-175.616c-208.896 0-378.88 169.984-378.88 378.88s169.984 378.88 378.88 378.88a378.88 378.88 0 0 0 349.184-231.424c10.752-25.088 39.424-36.352 64-26.112 25.088 10.752 36.352 39.424 26.112 64a476.16 476.16 0 0 1-439.296 290.816z" fill="" p-id="2789"></path><path d="M889.344 341.504h-217.6a49.152 49.152 0 0 1 0-98.304h168.96v-168.96a49.152 49.152 0 0 1 98.304 0v218.112c-1.024 27.136-22.528 49.152-49.664 49.152z" fill="" p-id="2790"></path></svg>