<svg width="30" height="30" viewBox="0 0 30 30" fill="none" xmlns="http://www.w3.org/2000/svg">
<circle cx="15" cy="15" r="15" fill="#594AF1" fill-opacity="0.1"/>
<path d="M15.1448 16.464C15.0277 16.464 14.9123 16.4351 14.809 16.3798L8.37474 12.9292C8.26239 12.869 8.16832 12.7796 8.10239 12.6705C8.03646 12.5614 8.00111 12.4366 8.00003 12.3091C7.99894 12.1817 8.03218 12.0563 8.09625 11.9461C8.16032 11.8359 8.25286 11.7449 8.36417 11.6828L14.7984 8.09015C14.9043 8.03103 15.0236 8 15.1448 8C15.2661 8 15.3853 8.03103 15.4912 8.09015L21.9255 11.6828C22.0368 11.745 22.1293 11.8359 22.1933 11.9461C22.2573 12.0563 22.2906 12.1817 22.2895 12.3091C22.2884 12.4366 22.253 12.5614 22.1872 12.6705C22.1213 12.7796 22.0272 12.8689 21.9149 12.9292L15.4805 16.3798C15.3773 16.4351 15.262 16.464 15.1448 16.464ZM10.1903 12.2906L15.1448 14.9471L20.0994 12.2906L15.1448 9.5241L10.1903 12.2906Z" fill="#594AF1"/>
<path d="M15.1446 19.7324C15.0274 19.7324 14.9121 19.7035 14.8088 19.648L8.37455 16.1976C8.21102 16.1071 8.08969 15.956 8.03683 15.7767C7.98398 15.5975 8.00385 15.4047 8.09216 15.24C8.18046 15.0753 8.33008 14.952 8.50861 14.8969C8.68715 14.8417 8.88022 14.8591 9.04602 14.9453L15.1446 18.2157L21.2433 14.9453C21.4091 14.8591 21.6021 14.8417 21.7807 14.8969C21.9592 14.952 22.1088 15.0753 22.1971 15.24C22.2854 15.4047 22.3053 15.5975 22.2524 15.7767C22.1996 15.956 22.0783 16.1071 21.9147 16.1976L15.4803 19.648C15.3771 19.7034 15.2618 19.7324 15.1446 19.7324Z" fill="#594AF1"/>
<mask id="path-4-inside-1_3914_8295" fill="white">
<path d="M15.1446 23C15.0275 23 14.9121 22.971 14.8088 22.9156L8.37455 19.4651C8.21102 19.3747 8.08969 19.2235 8.03683 19.0443C7.98398 18.8651 8.00385 18.6722 8.09216 18.5076C8.18046 18.3429 8.33008 18.2196 8.50861 18.1645C8.68715 18.1093 8.88022 18.1267 9.04602 18.2129L15.1446 21.4834L21.2433 18.2129C21.4091 18.1267 21.6021 18.1093 21.7807 18.1645C21.9592 18.2196 22.1088 18.3429 22.1971 18.5076C22.2854 18.6722 22.3053 18.8651 22.2525 19.0443C22.1996 19.2235 22.0783 19.3747 21.9147 19.4651L15.4803 22.9156C15.3771 22.971 15.2618 23 15.1446 23Z"/>
</mask>
<path d="M15.1446 23C15.0275 23 14.9121 22.971 14.8088 22.9156L8.37455 19.4651C8.21102 19.3747 8.08969 19.2235 8.03683 19.0443C7.98398 18.8651 8.00385 18.6722 8.09216 18.5076C8.18046 18.3429 8.33008 18.2196 8.50861 18.1645C8.68715 18.1093 8.88022 18.1267 9.04602 18.2129L15.1446 21.4834L21.2433 18.2129C21.4091 18.1267 21.6021 18.1093 21.7807 18.1645C21.9592 18.2196 22.1088 18.3429 22.1971 18.5076C22.2854 18.6722 22.3053 18.8651 22.2525 19.0443C22.1996 19.2235 22.0783 19.3747 21.9147 19.4651L15.4803 22.9156C15.3771 22.971 15.2618 23 15.1446 23Z" fill="#594AF1"/>
<path d="M14.8088 22.9156L15.5178 21.5937L15.5177 21.5937L14.8088 22.9156ZM8.37455 19.4651L7.64877 20.7779L7.65719 20.7825L7.66566 20.7871L8.37455 19.4651ZM9.04602 18.2129L9.75492 16.891L9.74641 16.8864L9.73783 16.882L9.04602 18.2129ZM15.1446 21.4834L14.4357 22.8053L15.1446 23.1855L15.8535 22.8053L15.1446 21.4834ZM21.2433 18.2129L20.5515 16.882L20.5429 16.8864L20.5344 16.891L21.2433 18.2129ZM21.9147 19.4651L22.6236 20.7871L22.6321 20.7825L22.6405 20.7779L21.9147 19.4651ZM15.4803 22.9156L14.7714 21.5936L14.771 21.5939L15.4803 22.9156ZM15.1448 21.5C15.275 21.5 15.4031 21.5322 15.5178 21.5937L14.0998 24.2374C14.4211 24.4097 14.7799 24.4999 15.1445 24.5L15.1448 21.5ZM15.5177 21.5937L9.08344 18.1432L7.66566 20.7871L14.0999 24.2375L15.5177 21.5937ZM9.10032 18.1524C9.28203 18.2529 9.41684 18.4209 9.47557 18.62L6.59809 19.4686C6.76253 20.0262 7.14001 20.4966 7.64877 20.7779L9.10032 18.1524ZM9.47557 18.62C9.5343 18.8192 9.51222 19.0334 9.4141 19.2164L6.77021 17.7987C6.49549 18.3111 6.43365 18.911 6.59809 19.4686L9.47557 18.62ZM9.4141 19.2164C9.31598 19.3994 9.14973 19.5364 8.95135 19.5976L8.06587 16.7313C7.51043 16.9029 7.04494 17.2864 6.77021 17.7987L9.4141 19.2164ZM8.95135 19.5976C8.75298 19.6589 8.53845 19.6396 8.35422 19.5438L9.73783 16.882C9.222 16.6138 8.62132 16.5597 8.06587 16.7313L8.95135 19.5976ZM8.33712 19.5348L14.4357 22.8053L15.8535 20.1615L9.75492 16.891L8.33712 19.5348ZM15.8535 22.8053L21.9522 19.5348L20.5344 16.891L14.4357 20.1615L15.8535 22.8053ZM21.9351 19.5438C21.7508 19.6396 21.5363 19.6589 21.3379 19.5976L22.2234 16.7313C21.668 16.5597 21.0673 16.6138 20.5515 16.882L21.9351 19.5438ZM21.3379 19.5976C21.1395 19.5364 20.9733 19.3994 20.8752 19.2164L23.5191 17.7987C23.2443 17.2864 22.7789 16.9029 22.2234 16.7313L21.3379 19.5976ZM20.8752 19.2164C20.7771 19.0334 20.755 18.8192 20.8137 18.62L23.6912 19.4686C23.8556 18.911 23.7938 18.3111 23.5191 17.7987L20.8752 19.2164ZM20.8137 18.62C20.8724 18.4209 21.0073 18.2529 21.189 18.1524L22.6405 20.7779C23.1493 20.4966 23.5268 20.0262 23.6912 19.4686L20.8137 18.62ZM21.2059 18.1432L14.7714 21.5936L16.1892 24.2375L22.6236 20.7871L21.2059 18.1432ZM14.771 21.5939C14.8859 21.5322 15.0142 21.5 15.1445 21.5L15.1448 24.5C15.5094 24.4999 15.8683 24.4097 16.1896 24.2373L14.771 21.5939Z" fill="#594AF1" mask="url(#path-4-inside-1_3914_8295)"/>
</svg>
