<svg width="335" height="224" viewBox="0 0 335 224" fill="none" xmlns="http://www.w3.org/2000/svg">
<g clip-path="url(#clip0_2340_6473)">
<path d="M0 32C0 20.7989 0 15.1984 2.17987 10.9202C4.09734 7.15695 7.15695 4.09734 10.9202 2.17987C15.1984 0 20.799 0 32 0H303C314.201 0 319.802 0 324.08 2.17987C327.843 4.09734 330.903 7.15695 332.82 10.9202C335 15.1984 335 20.799 335 32V192C335 203.201 335 208.802 332.82 213.08C330.903 216.843 327.843 219.903 324.08 221.82C319.802 224 314.201 224 303 224H32C20.799 224 15.1984 224 10.9202 221.82C7.15695 219.903 4.09734 216.843 2.17987 213.08C0 208.802 0 203.201 0 192V32Z" fill="#594AF1"/>
<path opacity="0.2" fill-rule="evenodd" clip-rule="evenodd" d="M265.019 149.325L264.945 149.329C263.898 149.387 262.87 149.029 262.088 148.331C261.306 147.634 260.833 146.656 260.772 145.611L260.769 145.559L260.144 140.68C263.383 141.19 266.683 141.19 269.922 140.68L269.299 145.548L269.296 145.589C269.22 146.635 268.739 147.611 267.954 148.309C267.17 149.007 266.144 149.373 265.094 149.328L265.019 149.325ZM270.127 139.112C270.125 139.112 270.124 139.112 270.123 139.113C266.755 139.694 263.311 139.694 259.943 139.113C259.942 139.112 259.941 139.112 259.939 139.112C259.431 139.024 258.923 138.923 258.419 138.809C258.406 138.806 258.393 138.803 258.38 138.8C258.379 138.8 258.378 138.799 258.376 138.799L259.26 145.699C259.344 147.145 259.999 148.498 261.081 149.462C262.162 150.426 263.582 150.922 265.029 150.84C266.472 150.902 267.882 150.4 268.961 149.44C270.039 148.48 270.701 147.138 270.806 145.699L271.69 138.799C271.688 138.799 271.687 138.8 271.686 138.8C271.673 138.803 271.66 138.806 271.647 138.809C271.143 138.923 270.635 139.024 270.127 139.112ZM240.382 71.3808C247.164 73.6374 250.936 79.3977 252.102 88.3635L258.376 138.814C258.375 138.814 258.374 138.813 258.373 138.813C258.361 138.81 258.349 138.807 258.337 138.804C257.809 138.671 257.294 138.519 256.793 138.349C256.793 138.349 256.793 138.349 256.793 138.349C250.65 136.259 246.617 131.361 245.568 123.234L238.789 70.9285C239.335 71.0584 239.863 71.2083 240.374 71.3781C240.377 71.379 240.379 71.3799 240.382 71.3808ZM240.593 73.064C243.124 74.0372 245.132 75.5694 246.686 77.635C248.678 80.2821 249.994 83.9002 250.6 88.5549C250.6 88.5562 250.601 88.5576 250.601 88.5589L256.583 136.661C254.31 135.775 252.413 134.455 250.917 132.688C248.963 130.382 247.609 127.219 247.07 123.04L240.593 73.064ZM237.225 70.6537C233.94 70.2071 230.601 70.3711 227.376 71.1375C226.868 71.2581 226.364 71.3937 225.862 71.5442L225.862 66.6773C225.862 62.4112 228.372 60 231.765 60C235.158 60 237.534 62.0106 238.165 66.3953L238.789 70.9136C238.27 70.8116 237.749 70.7251 237.227 70.654C237.226 70.6539 237.225 70.6538 237.225 70.6537ZM237.01 69.0997C233.795 68.711 230.537 68.8746 227.376 69.5835L227.376 66.6773C227.376 64.8403 227.912 63.5667 228.652 62.7674C229.385 61.9759 230.44 61.5141 231.765 61.5141C233.15 61.5141 234.19 61.9158 234.954 62.6469C235.735 63.3949 236.382 64.6387 236.666 66.6065C236.666 66.608 236.666 66.6095 236.667 66.611L237.01 69.0997ZM291.269 70.9285L284.49 123.234C283.448 131.351 279.507 136.25 273.273 138.352C273.274 138.352 273.273 138.352 273.273 138.352C272.773 138.521 272.258 138.671 271.729 138.804C271.717 138.807 271.705 138.81 271.693 138.813C271.692 138.813 271.691 138.814 271.69 138.814L277.964 88.3635C279.131 79.3949 282.904 73.6338 289.684 71.3787C290.196 71.2086 290.724 71.0585 291.269 70.9285ZM289.466 73.0649L282.989 123.041C282.452 127.216 281.126 130.373 279.189 132.676C277.699 134.447 275.797 135.774 273.482 136.667L279.465 88.5589C279.465 88.5573 279.466 88.5558 279.466 88.5543C280.072 83.8999 281.389 80.2818 283.379 77.6347C284.932 75.5697 286.938 74.038 289.466 73.0649ZM292.837 70.6535C292.312 70.7277 291.789 70.8193 291.269 70.9285L291.901 66.4102C292.524 62.0254 294.915 60.0148 298.301 60.0148C301.687 60.0148 304.241 62.3964 304.241 66.6921L304.204 71.5591C304.726 71.7201 305.231 71.9012 305.718 72.102C311.675 74.5579 315 79.9699 315 87.7403L314.963 149.357L304.204 149.357L304.204 71.5591C303.705 71.3983 303.201 71.2544 302.693 71.1275C300.728 70.6361 298.705 70.3991 296.675 70.424C295.391 70.3971 294.107 70.474 292.837 70.6535ZM293.054 69.0973L293.4 66.6234C293.4 66.6229 293.4 66.6225 293.4 66.622C293.68 64.6553 294.329 63.4111 295.111 62.6626C295.877 61.9305 296.92 61.529 298.301 61.529C299.628 61.529 300.695 61.9875 301.436 62.7783C302.182 63.5734 302.726 64.8424 302.727 66.6865L302.705 69.5724C300.734 69.11 298.711 68.8868 296.681 68.9096C295.469 68.8855 294.256 68.9483 293.054 69.0973ZM305.718 73.7541C307.924 74.7751 309.666 76.255 310.935 78.1413C312.568 80.5673 313.486 83.7677 313.486 87.7394C313.486 87.7393 313.486 87.7396 313.486 87.7394L313.45 147.842L305.718 147.842L305.718 73.7541ZM215.066 87.7774C215.066 80.007 218.391 74.595 224.348 72.1391C224.835 71.9383 225.34 71.7572 225.862 71.5962L225.862 149.357L215.066 149.357L215.066 87.7774ZM216.58 147.842L216.58 87.7774C216.58 83.8055 217.498 80.6045 219.131 78.1783C220.4 76.2921 222.142 74.8121 224.348 73.7911L224.348 147.842L216.58 147.842Z" fill="url(#paint0_linear_2340_6473)"/>
</g>
<defs>
<linearGradient id="paint0_linear_2340_6473" x1="265.033" y1="60" x2="265.033" y2="150.849" gradientUnits="userSpaceOnUse">
<stop stop-color="white"/>
<stop offset="1" stop-color="white" stop-opacity="0.06"/>
</linearGradient>
<clipPath id="clip0_2340_6473">
<rect width="335" height="224" fill="white"/>
</clipPath>
</defs>
</svg>
